<?xml version="1.0" encoding="UTF-8" standalone="no"?><!DOCTYPE svg PUBLIC "-//W3C//DTD SVG 1.1//EN" "http://www.w3.org/Graphics/SVG/1.1/DTD/svg11.dtd"><svg width="100%" height="100%" viewBox="0 0 623 621" version="1.1" xmlns="http://www.w3.org/2000/svg" xmlns:xlink="http://www.w3.org/1999/xlink" xml:space="preserve" xmlns:serif="http://www.serif.com/" style="fill-rule:evenodd;clip-rule:evenodd;stroke-linejoin:round;stroke-miterlimit:1.41421;"><g id="Head-Gear" serif:id="Head Gear"><path d="M376.543,10.013l0,15.316c36.529,8.346 70.46,23.548 100.363,44.178l10.798,-10.13l85.415,91.051l-10.854,10.182c15.612,26.128 27.26,54.893 34.11,85.462l15.727,0l0,124.844l-15.01,0c-6.564,30.97 -18.041,60.135 -33.577,86.638l10.604,9.948l-85.415,91.05l-9.788,-9.182c-31.066,21.818 -66.568,37.74 -104.873,46.137l0,15.409l-62.722,0l0,0.023l-63.249,0l0,-15.409c-38.305,-8.396 -73.806,-24.319 -104.873,-46.136l-9.787,9.181l-85.416,-91.05l10.604,-9.948c-15.535,-26.503 -27.013,-55.667 -33.577,-86.638l-15.01,0l0,-124.843l15.727,0c6.851,-30.569 18.498,-59.334 34.11,-85.462l-10.854,-10.183l85.416,-91.05l10.797,10.129c29.904,-20.629 63.834,-35.831 100.363,-44.177l0,-15.316l65.223,0l0,-0.024l65.748,0Zm-66.978,275.284c0.41,0 0.82,-0.001 1.23,-0.002" style="fill:#fff;"/><path d="M599.425,373.807l-0.141,0.635l-0.163,0.73l-0.166,0.73l-0.167,0.729l-0.169,0.728l-0.171,0.727l-0.172,0.726l-0.174,0.727l-0.177,0.725l-0.177,0.724l-0.18,0.724l-0.182,0.723l-0.183,0.723l-0.185,0.722l-0.187,0.721l-0.188,0.72l-0.191,0.719l-0.192,0.719l-0.194,0.719l-0.195,0.717l-0.198,0.717l-0.199,0.716l-0.201,0.715l-0.202,0.714l-0.205,0.714l-0.206,0.713l-0.208,0.713l-0.21,0.711l-0.211,0.711l-0.213,0.71l-0.215,0.71l-0.217,0.708l-0.218,0.708l-0.22,0.707l-0.222,0.706l-0.223,0.706l-0.226,0.705l-0.227,0.704l-0.228,0.703l-0.231,0.703l-0.232,0.701l-0.233,0.701l-0.236,0.7l-0.237,0.7l-0.239,0.698l-0.241,0.698l-0.242,0.697l-0.244,0.696l-0.246,0.696l-0.247,0.694l-0.249,0.694l-0.251,0.693l-0.252,0.693l-0.255,0.691l-0.255,0.691l-0.258,0.689l-0.259,0.689l-0.261,0.688l-0.262,0.688l-0.264,0.686l-0.266,0.686l-0.268,0.685l-0.269,0.684l-0.27,0.683l-0.273,0.683l-0.274,0.681l-0.276,0.681l-0.277,0.68l-0.279,0.679l-0.281,0.678l-0.282,0.677l-0.284,0.677l-0.285,0.675l-0.287,0.675l-0.289,0.674l-0.291,0.673l-0.292,0.672l-0.293,0.671l-0.296,0.671l-0.297,0.67l-0.298,0.668l-0.3,0.668l-0.302,0.667l-0.303,0.666l-0.305,0.665l-0.307,0.665l-0.308,0.663l-0.309,0.663l-0.312,0.661l-0.313,0.661l-0.314,0.66l-0.316,0.659l-0.318,0.658l-0.319,0.657l-0.321,0.656l-0.322,0.655l-0.324,0.655l-0.326,0.653l-0.327,0.653l-0.328,0.651l-0.331,0.651l-0.331,0.65l-0.334,0.649l-0.335,0.648l-0.336,0.646l-0.338,0.647l-0.34,0.645l-0.341,0.644l-0.342,0.643l-0.344,0.643l-0.346,0.641l-0.347,0.64l-0.349,0.64l-0.35,0.638l-0.352,0.638l-0.354,0.636l-0.355,0.636l-0.356,0.634l-0.358,0.634l-0.359,0.633l-0.361,0.632l-0.299,0.519l11.036,10.353l-89.371,95.267l-10.188,-9.558l-0.282,0.195l-0.741,0.509l-0.742,0.506l-0.745,0.505l-0.746,0.502l-0.747,0.5l-0.749,0.498l-0.751,0.495l-0.752,0.493l-0.754,0.491l-0.755,0.489l-0.757,0.487l-0.759,0.484l-0.76,0.482l-0.762,0.48l-0.763,0.477l-0.765,0.475l-0.766,0.473l-0.768,0.471l-0.77,0.469l-0.771,0.466l-0.773,0.464l-0.774,0.461l-0.775,0.459l-0.777,0.457l-0.779,0.455l-0.78,0.452l-0.782,0.451l-0.783,0.447l-0.785,0.446l-0.786,0.443l-0.788,0.44l-0.789,0.439l-0.79,0.436l-0.792,0.434l-0.794,0.431l-0.795,0.429l-0.796,0.427l-0.798,0.424l-0.799,0.422l-0.801,0.419l-0.803,0.417l-0.803,0.415l-0.805,0.412l-0.807,0.41l-0.808,0.408l-0.809,0.405l-0.811,0.403l-0.812,0.4l-0.814,0.398l-0.815,0.395l-0.816,0.393l-0.818,0.391l-0.819,0.388l-0.82,0.386l-0.822,0.383l-0.823,0.381l-0.825,0.378l-0.826,0.376l-0.827,0.374l-0.829,0.371l-0.83,0.368l-0.831,0.366l-0.833,0.364l-0.834,0.361l-0.835,0.358l-0.837,0.356l-0.838,0.354l-0.839,0.351l-0.841,0.348l-0.842,0.346l-0.843,0.344l-0.845,0.341l-0.845,0.338l-0.847,0.336l-0.849,0.333l-0.849,0.331l-0.851,0.328l-0.852,0.326l-0.854,0.323l-0.854,0.321l-0.856,0.317l-0.858,0.316l-0.858,0.313l-0.86,0.31l-0.861,0.308l-0.862,0.305l-0.863,0.302l-0.864,0.3l-0.866,0.297l-0.867,0.295l-0.868,0.292l-0.87,0.289l-0.87,0.287l-0.872,0.284l-0.873,0.281l-0.874,0.279l-0.875,0.276l-0.877,0.274l-0.877,0.271l-0.879,0.268l-0.88,0.265l-0.881,0.263l-0.882,0.26l-0.883,0.258l-0.885,0.255l-0.886,0.252l-0.886,0.249l-0.888,0.247l-0.889,0.244l-0.89,0.242l-0.891,0.238l-0.893,0.236l-0.893,0.233l-0.895,0.231l-0.895,0.227l-0.897,0.225l-0.898,0.223l-0.899,0.219l-0.899,0.217l-0.901,0.214l-0.902,0.211l-0.903,0.209l-0.444,0.101l0,15.984l-62.723,0l0,0.023l-69.03,0l0,-15.984l-0.443,-0.101l-0.903,-0.208l-0.903,-0.212l-0.9,-0.214l-0.9,-0.216l-0.899,-0.22l-0.898,-0.222l-0.897,-0.225l-0.895,-0.228l-0.895,-0.23l-0.893,-0.234l-0.892,-0.235l-0.891,-0.239l-0.891,-0.241l-0.888,-0.244l-0.888,-0.247l-0.887,-0.25l-0.886,-0.252l-0.884,-0.255l-0.884,-0.257l-0.882,-0.26l-0.881,-0.263l-0.88,-0.266l-0.878,-0.268l-0.878,-0.271l-0.877,-0.273l-0.875,-0.277l-0.874,-0.278l-0.873,-0.282l-0.871,-0.284l-0.871,-0.287l-0.87,-0.289l-0.868,-0.292l-0.867,-0.295l-0.865,-0.297l-0.865,-0.3l-0.863,-0.302l-0.862,-0.305l-0.861,-0.308l-0.86,-0.31l-0.858,-0.313l-0.857,-0.315l-0.856,-0.318l-0.855,-0.321l-0.853,-0.323l-0.852,-0.325l-0.851,-0.329l-0.85,-0.33l-0.848,-0.334l-0.847,-0.335l-0.846,-0.339l-0.845,-0.341l-0.843,-0.343l-0.842,-0.346l-0.84,-0.349l-0.84,-0.351l-0.838,-0.353l-0.836,-0.356l-0.836,-0.359l-0.834,-0.361l-0.832,-0.363l-0.832,-0.366l-0.83,-0.369l-0.828,-0.371l-0.828,-0.373l-0.826,-0.376l-0.824,-0.379l-0.823,-0.38l-0.822,-0.384l-0.821,-0.385l-0.819,-0.389l-0.818,-0.39l-0.816,-0.393l-0.815,-0.396l-0.814,-0.398l-0.812,-0.4l-0.811,-0.403l-0.809,-0.405l-0.808,-0.407l-0.806,-0.41l-0.806,-0.413l-0.803,-0.414l-0.802,-0.417l-0.801,-0.42l-0.8,-0.422l-0.797,-0.424l-0.797,-0.427l-0.795,-0.429l-0.793,-0.431l-0.792,-0.434l-0.791,-0.436l-0.789,-0.438l-0.788,-0.441l-0.786,-0.443l-0.785,-0.445l-0.783,-0.448l-0.782,-0.45l-0.78,-0.452l-0.778,-0.455l-0.777,-0.457l-0.776,-0.459l-0.774,-0.462l-0.773,-0.464l-0.771,-0.466l-0.769,-0.468l-0.768,-0.471l-0.767,-0.473l-0.764,-0.475l-0.764,-0.478l-0.761,-0.48l-0.761,-0.482l-0.758,-0.484l-0.757,-0.487l-0.756,-0.488l-0.754,-0.491l-0.752,-0.494l-0.75,-0.495l-0.75,-0.498l-0.747,-0.5l-0.746,-0.502l-0.744,-0.504l-0.743,-0.507l-0.741,-0.508l-0.282,-0.195l-10.188,9.557l-89.371,-95.266l0,0l11.036,-10.353l-0.299,-0.52l-0.36,-0.632l-0.36,-0.632l-0.358,-0.634l-0.356,-0.635l-0.355,-0.635l-0.353,-0.637l-0.352,-0.637l-0.351,-0.639l-0.348,-0.639l-0.348,-0.641l-0.345,-0.641l-0.344,-0.642l-0.343,-0.644l-0.341,-0.644l-0.34,-0.645l-0.338,-0.646l-0.336,-0.647l-0.335,-0.648l-0.333,-0.649l-0.332,-0.65l-0.33,-0.65l-0.329,-0.652l-0.327,-0.652l-0.326,-0.654l-0.323,-0.654l-0.323,-0.656l-0.321,-0.656l-0.319,-0.657l-0.318,-0.658l-0.316,-0.659l-0.314,-0.66l-0.313,-0.66l-0.311,-0.662l-0.31,-0.663l-0.308,-0.663l-0.307,-0.664l-0.305,-0.665l-0.303,-0.667l-0.302,-0.666l-0.3,-0.668l-0.298,-0.669l-0.297,-0.67l-0.295,-0.67l-0.294,-0.671l-0.292,-0.672l-0.29,-0.674l-0.289,-0.673l-0.287,-0.675l-0.286,-0.676l-0.284,-0.676l-0.282,-0.678l-0.281,-0.678l-0.279,-0.679l-0.277,-0.68l-0.276,-0.68l-0.274,-0.682l-0.272,-0.682l-0.271,-0.684l-0.269,-0.684l-0.268,-0.684l-0.265,-0.686l-0.265,-0.687l-0.262,-0.687l-0.261,-0.688l-0.259,-0.689l-0.257,-0.69l-0.256,-0.691l-0.254,-0.691l-0.253,-0.692l-0.25,-0.693l-0.25,-0.694l-0.247,-0.695l-0.246,-0.695l-0.244,-0.696l-0.242,-0.697l-0.241,-0.698l-0.238,-0.699l-0.238,-0.699l-0.235,-0.7l-0.234,-0.701l-0.232,-0.702l-0.23,-0.702l-0.229,-0.704l-0.227,-0.704l-0.225,-0.705l-0.224,-0.705l-0.222,-0.706l-0.22,-0.708l-0.218,-0.707l-0.217,-0.709l-0.214,-0.709l-0.214,-0.71l-0.211,-0.711l-0.21,-0.712l-0.208,-0.712l-0.206,-0.713l-0.204,-0.714l-0.203,-0.715l-0.201,-0.715l-0.199,-0.716l-0.197,-0.717l-0.196,-0.717l-0.194,-0.718l-0.192,-0.719l-0.19,-0.72l-0.189,-0.72l-0.187,-0.721l-0.185,-0.722l-0.183,-0.722l-0.182,-0.723l-0.179,-0.724l-0.178,-0.725l-0.176,-0.725l-0.175,-0.726l-0.172,-0.727l-0.171,-0.727l-0.169,-0.728l-0.167,-0.729l-0.165,-0.729l-0.164,-0.73l-0.14,-0.636l-15.568,0l0,-130.625l16.312,0l0.147,-0.631l0.17,-0.72l0.172,-0.72l0.174,-0.719l0.175,-0.719l0.177,-0.718l0.179,-0.717l0.181,-0.716l0.182,-0.716l0.184,-0.715l0.186,-0.715l0.188,-0.713l0.189,-0.713l0.191,-0.712l0.193,-0.712l0.195,-0.711l0.196,-0.71l0.198,-0.709l0.2,-0.709l0.202,-0.708l0.203,-0.707l0.205,-0.707l0.206,-0.706l0.209,-0.705l0.21,-0.704l0.211,-0.704l0.214,-0.703l0.215,-0.702l0.217,-0.701l0.218,-0.701l0.221,-0.7l0.222,-0.699l0.223,-0.698l0.226,-0.698l0.227,-0.697l0.228,-0.696l0.231,-0.695l0.232,-0.695l0.233,-0.694l0.236,-0.693l0.237,-0.692l0.239,-0.692l0.24,-0.69l0.242,-0.69l0.244,-0.69l0.245,-0.688l0.247,-0.688l0.249,-0.686l0.25,-0.686l0.252,-0.686l0.254,-0.684l0.255,-0.684l0.257,-0.683l0.259,-0.682l0.26,-0.681l0.262,-0.68l0.263,-0.68l0.265,-0.679l0.267,-0.678l0.268,-0.677l0.27,-0.677l0.272,-0.675l0.273,-0.675l0.275,-0.674l0.276,-0.673l0.278,-0.672l0.28,-0.671l0.281,-0.671l0.283,-0.67l0.285,-0.669l0.286,-0.668l0.287,-0.667l0.29,-0.666l0.291,-0.666l0.292,-0.664l0.294,-0.664l0.296,-0.663l0.297,-0.662l0.299,-0.661l0.3,-0.661l0.302,-0.659l0.303,-0.659l0.305,-0.658l0.307,-0.656l0.308,-0.656l0.31,-0.656l0.311,-0.654l0.313,-0.653l0.314,-0.653l0.316,-0.651l0.318,-0.651l0.319,-0.65l0.321,-0.649l0.322,-0.647l0.323,-0.648l0.326,-0.646l0.326,-0.645l0.329,-0.644l0.33,-0.644l0.331,-0.642l0.333,-0.642l0.334,-0.641l0.336,-0.639l0.338,-0.639l0.339,-0.638l0.34,-0.637l0.342,-0.636l0.344,-0.636l0.345,-0.634l0.346,-0.633l0.348,-0.632l0.35,-0.632l0.351,-0.63l0.352,-0.63l0.354,-0.628l0.356,-0.628l0.357,-0.627l0.358,-0.625l0.36,-0.625l0.362,-0.624l0.362,-0.622l0.28,-0.477l-11.272,-10.575l0,0l89.371,-95.266l0,0l11.213,10.519l0.204,-0.139l0.713,-0.481l0.714,-0.479l0.716,-0.477l0.718,-0.476l0.718,-0.473l0.721,-0.471l0.721,-0.469l0.724,-0.467l0.724,-0.465l0.726,-0.463l0.728,-0.46l0.729,-0.459l0.73,-0.457l0.732,-0.454l0.733,-0.453l0.735,-0.45l0.736,-0.449l0.737,-0.446l0.739,-0.444l0.74,-0.442l0.742,-0.44l0.743,-0.438l0.745,-0.436l0.745,-0.433l0.748,-0.432l0.748,-0.429l0.75,-0.428l0.751,-0.425l0.753,-0.423l0.754,-0.421l0.755,-0.418l0.757,-0.417l0.758,-0.414l0.76,-0.413l0.76,-0.41l0.763,-0.408l0.763,-0.406l0.765,-0.403l0.766,-0.402l0.767,-0.399l0.769,-0.397l0.77,-0.395l0.771,-0.393l0.773,-0.39l0.774,-0.388l0.775,-0.386l0.776,-0.384l0.778,-0.382l0.779,-0.379l0.781,-0.378l0.781,-0.375l0.783,-0.372l0.784,-0.371l0.786,-0.368l0.786,-0.366l0.788,-0.364l0.789,-0.362l0.791,-0.359l0.791,-0.357l0.793,-0.355l0.794,-0.352l0.795,-0.351l0.797,-0.348l0.798,-0.345l0.799,-0.344l0.8,-0.341l0.801,-0.339l0.803,-0.336l0.804,-0.335l0.805,-0.331l0.806,-0.33l0.807,-0.327l0.809,-0.325l0.809,-0.323l0.811,-0.32l0.812,-0.318l0.813,-0.316l0.815,-0.313l0.815,-0.311l0.817,-0.309l0.818,-0.306l0.819,-0.304l0.82,-0.302l0.821,-0.299l0.823,-0.297l0.823,-0.295l0.825,-0.292l0.825,-0.29l0.827,-0.287l0.828,-0.285l0.829,-0.282l0.831,-0.281l0.831,-0.277l0.832,-0.276l0.834,-0.273l0.834,-0.27l0.836,-0.269l0.836,-0.265l0.838,-0.264l0.839,-0.26l0.84,-0.259l0.841,-0.256l0.842,-0.254l0.843,-0.251l0.844,-0.248l0.845,-0.247l0.847,-0.243l0.847,-0.242l0.848,-0.238l0.849,-0.237l0.851,-0.234l0.851,-0.231l0.852,-0.229l0.854,-0.227l0.854,-0.224l0.855,-0.221l0.857,-0.219l0.857,-0.216l0.859,-0.214l0.859,-0.212l0.86,-0.209l0.862,-0.206l0.342,-0.081l0,-15.912l65.223,0l0,-0.023l71.53,0l0,15.911l0.343,0.081l0.861,0.207l0.86,0.209l0.86,0.211l0.858,0.214l0.858,0.217l0.856,0.219l0.855,0.221l0.855,0.224l0.853,0.226l0.852,0.229l0.852,0.232l0.85,0.234l0.849,0.236l0.849,0.239l0.847,0.241l0.846,0.244l0.845,0.246l0.844,0.249l0.843,0.251l0.842,0.254l0.841,0.256l0.84,0.258l0.839,0.261l0.838,0.263l0.837,0.266l0.835,0.268l0.835,0.271l0.833,0.273l0.833,0.275l0.831,0.278l0.83,0.28l0.829,0.283l0.828,0.285l0.827,0.287l0.826,0.29l0.824,0.292l0.824,0.294l0.822,0.297l0.821,0.3l0.82,0.301l0.819,0.304l0.818,0.306l0.817,0.309l0.815,0.311l0.815,0.313l0.813,0.316l0.812,0.318l0.811,0.32l0.81,0.323l0.808,0.325l0.808,0.327l0.806,0.33l0.805,0.332l0.803,0.334l0.803,0.337l0.801,0.339l0.801,0.341l0.799,0.343l0.797,0.346l0.797,0.348l0.795,0.35l0.794,0.353l0.793,0.354l0.792,0.357l0.79,0.36l0.789,0.361l0.788,0.364l0.787,0.366l0.785,0.369l0.784,0.37l0.783,0.373l0.782,0.375l0.78,0.377l0.779,0.38l0.778,0.381l0.776,0.384l0.776,0.386l0.774,0.388l0.772,0.391l0.772,0.393l0.769,0.395l0.769,0.397l0.768,0.399l0.766,0.401l0.764,0.404l0.764,0.406l0.762,0.408l0.761,0.41l0.759,0.412l0.758,0.414l0.757,0.417l0.755,0.419l0.754,0.421l0.753,0.423l0.751,0.425l0.75,0.427l0.749,0.43l0.747,0.431l0.746,0.434l0.744,0.435l0.743,0.438l0.742,0.44l0.74,0.442l0.739,0.445l0.737,0.446l0.737,0.448l0.734,0.451l0.733,0.452l0.732,0.455l0.731,0.456l0.728,0.459l0.728,0.461l0.726,0.463l0.725,0.465l0.723,0.467l0.722,0.469l0.72,0.471l0.719,0.473l0.717,0.475l0.716,0.477l0.714,0.479l0.713,0.482l0.204,0.138l11.213,-10.518l89.371,95.266l-11.271,10.574l0.279,0.477l0.363,0.623l0.361,0.624l0.36,0.624l0.359,0.626l0.357,0.627l0.355,0.627l0.354,0.629l0.353,0.629l0.351,0.631l0.349,0.631l0.348,0.633l0.347,0.633l0.345,0.634l0.343,0.635l0.342,0.636l0.341,0.637l0.339,0.638l0.337,0.639l0.336,0.64l0.334,0.641l0.333,0.641l0.332,0.643l0.33,0.643l0.328,0.645l0.327,0.645l0.325,0.646l0.324,0.647l0.322,0.648l0.32,0.649l0.319,0.65l0.318,0.65l0.316,0.652l0.314,0.652l0.313,0.654l0.311,0.654l0.31,0.655l0.308,0.656l0.307,0.657l0.305,0.658l0.304,0.658l0.302,0.66l0.3,0.66l0.299,0.661l0.297,0.662l0.295,0.663l0.294,0.664l0.293,0.665l0.291,0.665l0.289,0.667l0.288,0.667l0.286,0.668l0.284,0.669l0.283,0.67l0.281,0.67l0.28,0.671l0.278,0.673l0.276,0.673l0.275,0.674l0.273,0.674l0.272,0.676l0.27,0.676l0.268,0.678l0.267,0.678l0.265,0.678l0.264,0.68l0.261,0.681l0.261,0.681l0.258,0.682l0.257,0.683l0.255,0.683l0.254,0.685l0.252,0.685l0.25,0.686l0.249,0.687l0.247,0.688l0.246,0.688l0.243,0.689l0.242,0.69l0.241,0.691l0.238,0.691l0.238,0.693l0.235,0.693l0.234,0.694l0.232,0.694l0.23,0.696l0.229,0.696l0.227,0.697l0.225,0.697l0.224,0.699l0.222,0.699l0.22,0.7l0.219,0.7l0.216,0.702l0.216,0.702l0.213,0.703l0.212,0.704l0.21,0.704l0.208,0.705l0.207,0.706l0.205,0.706l0.203,0.707l0.201,0.709l0.2,0.708l0.198,0.71l0.196,0.71l0.195,0.711l0.193,0.711l0.191,0.712l0.189,0.713l0.188,0.714l0.186,0.714l0.184,0.715l0.182,0.716l0.181,0.717l0.179,0.717l0.177,0.718l0.175,0.718l0.174,0.719l0.172,0.72l0.17,0.721l0.147,0.63l16.313,0l0,130.626l-15.568,0Zm-453.119,174.229l0.725,0.501l0.726,0.499l0.728,0.497l0.73,0.494l0.731,0.493l0.733,0.49l0.734,0.488l0.737,0.486l0.737,0.483l0.739,0.482l0.741,0.479l0.742,0.477l0.744,0.475l0.745,0.472l0.747,0.471l0.748,0.468l0.75,0.466l0.752,0.463l0.753,0.462l0.754,0.459l0.756,0.457l0.757,0.455l0.759,0.453l0.761,0.45l0.762,0.448l0.763,0.446l0.765,0.443l0.766,0.441l0.768,0.439l0.769,0.437l0.771,0.434l0.772,0.432l0.774,0.43l0.775,0.428l0.776,0.425l0.778,0.423l0.78,0.42l0.78,0.419l0.783,0.415l0.783,0.414l0.785,0.411l0.787,0.409l0.788,0.407l0.789,0.404l0.791,0.402l0.792,0.4l0.793,0.397l0.795,0.395l0.796,0.392l0.798,0.39l0.799,0.388l0.8,0.385l0.802,0.383l0.803,0.381l0.804,0.378l0.806,0.375l0.807,0.374l0.808,0.371l0.81,0.368l0.811,0.366l0.812,0.364l0.814,0.361l0.815,0.359l0.816,0.356l0.818,0.354l0.819,0.352l0.82,0.349l0.821,0.346l0.823,0.344l0.824,0.342l0.825,0.339l0.827,0.337l0.828,0.334l0.829,0.332l0.83,0.329l0.832,0.327l0.833,0.324l0.834,0.322l0.835,0.319l0.837,0.316l0.837,0.315l0.839,0.311l0.841,0.31l0.841,0.306l0.843,0.304l0.844,0.302l0.845,0.299l0.846,0.296l0.848,0.294l0.848,0.291l0.85,0.289l0.851,0.287l0.852,0.283l0.853,0.281l0.855,0.279l0.856,0.276l0.856,0.273l0.859,0.271l0.859,0.268l0.86,0.265l0.861,0.263l0.863,0.26l0.863,0.258l0.865,0.255l0.866,0.253l0.867,0.249l0.868,0.248l0.869,0.244l0.871,0.242l0.871,0.239l0.873,0.237l0.873,0.234l0.875,0.231l0.876,0.229l0.876,0.225l0.878,0.224l0.879,0.22l0.88,0.218l0.881,0.215l0.883,0.213l0.883,0.21l0.884,0.207l0.885,0.204l0.886,0.202l0.888,0.199l3.16,0.697l0,14.841l57.467,0l0,-0.024l62.723,0l0,-14.84l3.16,-0.698l0.887,-0.199l0.886,-0.202l0.885,-0.204l0.885,-0.207l0.883,-0.21l0.882,-0.212l0.881,-0.215l0.88,-0.218l0.879,-0.221l0.878,-0.223l0.877,-0.226l0.875,-0.228l0.875,-0.232l0.874,-0.234l0.872,-0.236l0.872,-0.239l0.87,-0.242l0.869,-0.245l0.868,-0.247l0.867,-0.25l0.866,-0.252l0.865,-0.255l0.864,-0.258l0.862,-0.26l0.861,-0.263l0.861,-0.266l0.859,-0.268l0.858,-0.271l0.857,-0.273l0.855,-0.276l0.855,-0.278l0.853,-0.281l0.852,-0.284l0.851,-0.286l0.85,-0.289l0.849,-0.291l0.847,-0.294l0.847,-0.297l0.845,-0.299l0.843,-0.301l0.843,-0.304l0.842,-0.307l0.84,-0.309l0.839,-0.312l0.838,-0.314l0.836,-0.317l0.836,-0.319l0.834,-0.322l0.832,-0.324l0.832,-0.327l0.83,-0.329l0.83,-0.332l0.827,-0.334l0.827,-0.336l0.825,-0.34l0.824,-0.341l0.823,-0.344l0.821,-0.347l0.821,-0.349l0.819,-0.351l0.817,-0.354l0.816,-0.357l0.815,-0.358l0.814,-0.362l0.812,-0.363l0.811,-0.366l0.81,-0.369l0.808,-0.371l0.808,-0.373l0.805,-0.376l0.805,-0.378l0.803,-0.381l0.801,-0.382l0.801,-0.386l0.799,-0.387l0.797,-0.39l0.796,-0.393l0.795,-0.395l0.794,-0.397l0.792,-0.399l0.79,-0.402l0.79,-0.405l0.787,-0.406l0.787,-0.409l0.785,-0.411l0.784,-0.414l0.782,-0.416l0.781,-0.418l0.779,-0.421l0.778,-0.423l0.776,-0.425l0.775,-0.427l0.774,-0.43l0.772,-0.432l0.771,-0.434l0.769,-0.437l0.768,-0.439l0.767,-0.441l0.764,-0.444l0.764,-0.446l0.762,-0.448l0.76,-0.45l0.759,-0.452l0.757,-0.455l0.756,-0.457l0.755,-0.459l0.753,-0.462l0.751,-0.464l0.75,-0.466l0.748,-0.468l0.747,-0.47l0.746,-0.473l0.743,-0.475l0.742,-0.477l0.741,-0.479l0.739,-0.481l0.738,-0.484l0.736,-0.486l0.734,-0.488l0.733,-0.49l0.731,-0.492l0.73,-0.495l0.728,-0.496l0.727,-0.499l0.725,-0.501l0.723,-0.503l2.649,-1.854l9.391,8.81l81.461,-86.834l-10.177,-9.547l1.524,-2.608l0.359,-0.617l0.356,-0.617l0.356,-0.619l0.354,-0.619l0.352,-0.62l0.351,-0.622l0.349,-0.622l0.348,-0.623l0.347,-0.624l0.345,-0.625l0.343,-0.626l0.342,-0.627l0.34,-0.628l0.339,-0.628l0.338,-0.63l0.335,-0.631l0.335,-0.631l0.333,-0.633l0.331,-0.633l0.33,-0.634l0.328,-0.635l0.327,-0.637l0.325,-0.637l0.324,-0.637l0.322,-0.639l0.321,-0.64l0.319,-0.641l0.317,-0.641l0.317,-0.643l0.314,-0.643l0.313,-0.644l0.311,-0.645l0.31,-0.646l0.309,-0.647l0.306,-0.648l0.305,-0.648l0.304,-0.65l0.302,-0.65l0.301,-0.651l0.299,-0.652l0.297,-0.653l0.296,-0.654l0.294,-0.655l0.292,-0.655l0.291,-0.657l0.29,-0.657l0.288,-0.658l0.286,-0.659l0.285,-0.66l0.283,-0.66l0.281,-0.662l0.28,-0.662l0.279,-0.663l0.276,-0.664l0.275,-0.665l0.274,-0.666l0.272,-0.666l0.27,-0.667l0.269,-0.669l0.267,-0.669l0.265,-0.669l0.264,-0.671l0.262,-0.671l0.261,-0.672l0.259,-0.673l0.257,-0.674l0.255,-0.675l0.255,-0.675l0.252,-0.676l0.251,-0.677l0.249,-0.678l0.247,-0.679l0.246,-0.679l0.244,-0.68l0.243,-0.681l0.24,-0.682l0.24,-0.682l0.237,-0.683l0.236,-0.684l0.234,-0.685l0.233,-0.686l0.231,-0.686l0.229,-0.687l0.227,-0.688l0.226,-0.688l0.224,-0.69l0.223,-0.69l0.221,-0.691l0.219,-0.692l0.217,-0.692l0.216,-0.693l0.214,-0.694l0.212,-0.694l0.211,-0.696l0.209,-0.696l0.207,-0.697l0.205,-0.697l0.204,-0.698l0.202,-0.699l0.201,-0.7l0.198,-0.7l0.197,-0.702l0.196,-0.702l0.193,-0.702l0.192,-0.703l0.19,-0.704l0.188,-0.705l0.187,-0.705l0.185,-0.707l0.183,-0.706l0.181,-0.708l0.18,-0.708l0.178,-0.709l0.176,-0.709l0.174,-0.711l0.173,-0.711l0.171,-0.711l0.169,-0.712l0.167,-0.714l0.166,-0.713l0.164,-0.714l0.162,-0.715l0.16,-0.716l0.159,-0.716l0.156,-0.717l0.155,-0.718l0.642,-3.01l14.458,0l0,-119.062l-15.147,0l-0.669,-2.968l-0.162,-0.708l-0.163,-0.708l-0.165,-0.707l-0.167,-0.706l-0.168,-0.706l-0.171,-0.705l-0.172,-0.704l-0.173,-0.704l-0.175,-0.703l-0.178,-0.702l-0.178,-0.702l-0.181,-0.701l-0.182,-0.7l-0.184,-0.7l-0.186,-0.698l-0.187,-0.699l-0.189,-0.697l-0.191,-0.697l-0.192,-0.696l-0.194,-0.695l-0.196,-0.695l-0.198,-0.694l-0.199,-0.693l-0.201,-0.693l-0.202,-0.692l-0.204,-0.691l-0.206,-0.691l-0.208,-0.689l-0.209,-0.689l-0.211,-0.688l-0.213,-0.688l-0.214,-0.687l-0.216,-0.686l-0.217,-0.685l-0.22,-0.685l-0.22,-0.684l-0.223,-0.683l-0.224,-0.682l-0.226,-0.682l-0.227,-0.681l-0.23,-0.68l-0.23,-0.679l-0.233,-0.679l-0.234,-0.678l-0.235,-0.677l-0.238,-0.676l-0.238,-0.676l-0.241,-0.674l-0.242,-0.675l-0.244,-0.673l-0.245,-0.672l-0.247,-0.672l-0.249,-0.671l-0.25,-0.67l-0.252,-0.67l-0.254,-0.668l-0.255,-0.668l-0.256,-0.667l-0.259,-0.666l-0.26,-0.666l-0.261,-0.664l-0.263,-0.664l-0.265,-0.663l-0.266,-0.662l-0.268,-0.662l-0.269,-0.66l-0.271,-0.66l-0.273,-0.659l-0.274,-0.658l-0.276,-0.658l-0.277,-0.656l-0.279,-0.656l-0.28,-0.655l-0.282,-0.654l-0.284,-0.653l-0.285,-0.653l-0.286,-0.651l-0.289,-0.651l-0.289,-0.65l-0.292,-0.649l-0.293,-0.648l-0.294,-0.647l-0.296,-0.647l-0.298,-0.645l-0.299,-0.645l-0.3,-0.644l-0.302,-0.643l-0.304,-0.642l-0.305,-0.642l-0.307,-0.64l-0.308,-0.64l-0.31,-0.639l-0.311,-0.638l-0.313,-0.636l-0.314,-0.637l-0.316,-0.635l-0.317,-0.634l-0.319,-0.634l-0.321,-0.632l-0.321,-0.632l-0.324,-0.631l-0.325,-0.63l-0.326,-0.629l-0.328,-0.628l-0.329,-0.627l-0.331,-0.626l-0.332,-0.626l-0.334,-0.624l-0.335,-0.624l-0.337,-0.623l-0.338,-0.621l-0.34,-0.621l-0.341,-0.62l-0.343,-0.619l-0.344,-0.618l-0.346,-0.617l-0.347,-0.617l-0.348,-0.615l-0.35,-0.614l-0.352,-0.614l-0.353,-0.612l-0.354,-0.612l-0.356,-0.61l-0.357,-0.61l-0.359,-0.609l-0.36,-0.607l-1.553,-2.607l10.442,-9.796l-81.461,-86.834l-10.387,9.745l-2.616,-1.8l-0.696,-0.475l-0.698,-0.474l-0.699,-0.472l-0.7,-0.47l-0.702,-0.468l-0.704,-0.466l-0.704,-0.463l-0.707,-0.462l-0.707,-0.46l-0.709,-0.458l-0.711,-0.456l-0.712,-0.454l-0.713,-0.451l-0.715,-0.45l-0.716,-0.448l-0.717,-0.446l-0.719,-0.443l-0.72,-0.442l-0.722,-0.439l-0.723,-0.438l-0.724,-0.435l-0.726,-0.434l-0.727,-0.431l-0.729,-0.429l-0.73,-0.428l-0.731,-0.425l-0.732,-0.423l-0.734,-0.421l-0.735,-0.419l-0.737,-0.417l-0.738,-0.414l-0.739,-0.413l-0.741,-0.41l-0.742,-0.409l-0.743,-0.406l-0.744,-0.404l-0.746,-0.402l-0.747,-0.4l-0.749,-0.398l-0.749,-0.396l-0.751,-0.393l-0.753,-0.392l-0.753,-0.389l-0.755,-0.387l-0.756,-0.385l-0.758,-0.383l-0.758,-0.381l-0.76,-0.378l-0.762,-0.377l-0.762,-0.374l-0.764,-0.372l-0.765,-0.369l-0.766,-0.368l-0.767,-0.366l-0.769,-0.363l-0.77,-0.361l-0.771,-0.359l-0.773,-0.356l-0.773,-0.355l-0.775,-0.352l-0.776,-0.35l-0.777,-0.348l-0.779,-0.345l-0.779,-0.344l-0.781,-0.341l-0.782,-0.339l-0.783,-0.336l-0.785,-0.335l-0.785,-0.332l-0.787,-0.33l-0.788,-0.328l-0.789,-0.325l-0.791,-0.323l-0.791,-0.321l-0.793,-0.319l-0.793,-0.316l-0.795,-0.314l-0.796,-0.312l-0.797,-0.309l-0.799,-0.307l-0.799,-0.305l-0.801,-0.303l-0.801,-0.3l-0.803,-0.298l-0.804,-0.296l-0.805,-0.293l-0.806,-0.291l-0.807,-0.289l-0.809,-0.286l-0.809,-0.284l-0.811,-0.282l-0.811,-0.279l-0.813,-0.277l-0.814,-0.275l-0.815,-0.272l-0.815,-0.27l-0.818,-0.268l-0.818,-0.265l-0.819,-0.263l-0.82,-0.26l-0.821,-0.258l-0.822,-0.256l-0.824,-0.253l-0.824,-0.251l-0.825,-0.249l-0.827,-0.246l-0.827,-0.244l-0.829,-0.241l-0.829,-0.239l-0.831,-0.237l-0.831,-0.234l-0.833,-0.231l-0.833,-0.23l-0.835,-0.227l-0.835,-0.224l-0.837,-0.222l-0.837,-0.219l-0.839,-0.218l-0.839,-0.214l-0.841,-0.212l-0.841,-0.21l-0.842,-0.207l-0.844,-0.205l-0.844,-0.203l-0.845,-0.199l-0.846,-0.198l-3.094,-0.712l0,-14.726l-59.968,0l0,0.023l-65.222,0l0,14.727l-3.094,0.712l-0.846,0.197l-0.846,0.2l-0.844,0.202l-0.843,0.205l-0.843,0.207l-0.841,0.21l-0.84,0.212l-0.84,0.215l-0.838,0.217l-0.838,0.22l-0.836,0.222l-0.836,0.224l-0.834,0.227l-0.834,0.229l-0.832,0.232l-0.832,0.234l-0.83,0.236l-0.83,0.239l-0.828,0.242l-0.828,0.244l-0.826,0.246l-0.826,0.248l-0.824,0.251l-0.823,0.254l-0.823,0.255l-0.821,0.258l-0.82,0.261l-0.819,0.263l-0.818,0.265l-0.817,0.268l-0.816,0.269l-0.815,0.273l-0.814,0.274l-0.812,0.277l-0.812,0.28l-0.811,0.281l-0.809,0.285l-0.808,0.286l-0.808,0.289l-0.806,0.291l-0.805,0.293l-0.804,0.296l-0.802,0.298l-0.802,0.3l-0.801,0.302l-0.799,0.305l-0.798,0.307l-0.798,0.31l-0.796,0.312l-0.794,0.314l-0.794,0.316l-0.793,0.319l-0.791,0.32l-0.79,0.323l-0.79,0.326l-0.787,0.328l-0.787,0.329l-0.786,0.333l-0.784,0.334l-0.783,0.337l-0.782,0.339l-0.781,0.341l-0.78,0.343l-0.778,0.346l-0.778,0.347l-0.776,0.35l-0.775,0.353l-0.773,0.354l-0.772,0.357l-0.772,0.359l-0.77,0.361l-0.768,0.363l-0.768,0.365l-0.766,0.368l-0.765,0.37l-0.764,0.372l-0.762,0.374l-0.761,0.376l-0.76,0.379l-0.759,0.38l-0.757,0.383l-0.757,0.385l-0.754,0.387l-0.754,0.39l-0.752,0.391l-0.751,0.394l-0.75,0.395l-0.749,0.398l-0.747,0.4l-0.745,0.402l-0.745,0.404l-0.743,0.407l-0.742,0.408l-0.741,0.41l-0.739,0.413l-0.738,0.415l-0.736,0.417l-0.736,0.419l-0.733,0.421l-0.733,0.423l-0.731,0.425l-0.73,0.427l-0.728,0.429l-0.728,0.432l-0.725,0.433l-0.725,0.436l-0.723,0.437l-0.721,0.44l-0.721,0.441l-0.719,0.444l-0.717,0.446l-0.716,0.447l-0.715,0.45l-0.713,0.452l-0.712,0.454l-0.71,0.456l-0.709,0.457l-0.708,0.46l-0.706,0.462l-0.705,0.464l-0.703,0.466l-0.702,0.468l-0.701,0.469l-0.699,0.472l-0.697,0.474l-0.697,0.476l-2.616,1.799l-10.387,-9.744l-81.46,86.834l10.441,9.795l-1.553,2.607l-0.36,0.608l-0.359,0.609l-0.357,0.609l-0.356,0.611l-0.354,0.611l-0.353,0.613l-0.351,0.613l-0.35,0.615l-0.349,0.615l-0.347,0.616l-0.346,0.617l-0.344,0.618l-0.342,0.619l-0.342,0.62l-0.339,0.621l-0.339,0.622l-0.336,0.623l-0.336,0.623l-0.333,0.625l-0.333,0.625l-0.33,0.626l-0.33,0.628l-0.328,0.628l-0.326,0.629l-0.325,0.63l-0.323,0.63l-0.322,0.632l-0.32,0.633l-0.319,0.633l-0.318,0.635l-0.315,0.635l-0.315,0.636l-0.313,0.637l-0.311,0.638l-0.31,0.639l-0.308,0.639l-0.307,0.641l-0.305,0.641l-0.303,0.642l-0.302,0.643l-0.301,0.644l-0.299,0.645l-0.298,0.646l-0.296,0.646l-0.294,0.648l-0.293,0.648l-0.291,0.649l-0.29,0.65l-0.288,0.65l-0.287,0.652l-0.285,0.652l-0.284,0.654l-0.282,0.654l-0.28,0.654l-0.279,0.656l-0.277,0.657l-0.276,0.657l-0.274,0.658l-0.273,0.659l-0.271,0.66l-0.269,0.661l-0.268,0.661l-0.266,0.662l-0.265,0.663l-0.263,0.664l-0.261,0.665l-0.26,0.665l-0.258,0.666l-0.257,0.667l-0.255,0.668l-0.254,0.669l-0.251,0.669l-0.251,0.67l-0.248,0.671l-0.247,0.672l-0.246,0.673l-0.243,0.673l-0.243,0.674l-0.24,0.675l-0.239,0.675l-0.237,0.677l-0.236,0.677l-0.234,0.678l-0.232,0.678l-0.231,0.68l-0.229,0.68l-0.228,0.681l-0.226,0.681l-0.224,0.683l-0.222,0.683l-0.221,0.684l-0.219,0.684l-0.218,0.686l-0.216,0.686l-0.214,0.686l-0.213,0.688l-0.211,0.688l-0.209,0.689l-0.207,0.69l-0.206,0.69l-0.204,0.692l-0.203,0.691l-0.201,0.693l-0.199,0.693l-0.198,0.694l-0.195,0.695l-0.194,0.695l-0.193,0.697l-0.191,0.696l-0.189,0.698l-0.187,0.698l-0.186,0.699l-0.184,0.7l-0.182,0.7l-0.18,0.701l-0.179,0.701l-0.177,0.703l-0.176,0.703l-0.173,0.703l-0.172,0.705l-0.17,0.705l-0.169,0.705l-0.167,0.707l-0.165,0.707l-0.163,0.707l-0.162,0.709l-0.669,2.967l-15.147,0l0,119.063l14.458,0l0.642,3.009l0.155,0.718l0.157,0.717l0.158,0.716l0.161,0.716l0.162,0.715l0.164,0.714l0.165,0.714l0.167,0.713l0.17,0.712l0.17,0.712l0.173,0.711l0.175,0.71l0.176,0.71l0.178,0.708l0.179,0.709l0.182,0.707l0.183,0.707l0.185,0.706l0.186,0.705l0.188,0.705l0.191,0.704l0.191,0.703l0.194,0.703l0.195,0.702l0.197,0.701l0.199,0.7l0.2,0.7l0.202,0.699l0.204,0.698l0.205,0.698l0.208,0.697l0.209,0.696l0.21,0.695l0.213,0.695l0.214,0.693l0.215,0.694l0.218,0.692l0.219,0.692l0.221,0.69l0.222,0.691l0.224,0.689l0.226,0.689l0.228,0.687l0.229,0.687l0.231,0.687l0.232,0.685l0.234,0.685l0.236,0.684l0.238,0.683l0.239,0.683l0.241,0.682l0.242,0.68l0.244,0.681l0.246,0.679l0.248,0.678l0.249,0.678l0.25,0.677l0.253,0.676l0.254,0.676l0.255,0.674l0.258,0.674l0.259,0.673l0.26,0.672l0.262,0.672l0.264,0.67l0.266,0.67l0.267,0.669l0.268,0.668l0.271,0.667l0.271,0.667l0.274,0.665l0.275,0.665l0.277,0.664l0.278,0.663l0.28,0.663l0.281,0.661l0.284,0.661l0.284,0.659l0.287,0.659l0.287,0.658l0.29,0.658l0.291,0.656l0.293,0.656l0.294,0.654l0.295,0.654l0.298,0.653l0.299,0.652l0.3,0.651l0.302,0.651l0.304,0.649l0.305,0.649l0.307,0.648l0.308,0.646l0.31,0.646l0.311,0.645l0.313,0.645l0.315,0.643l0.316,0.642l0.317,0.642l0.32,0.64l0.32,0.64l0.322,0.639l0.324,0.638l0.325,0.637l0.327,0.636l0.328,0.635l0.33,0.634l0.332,0.634l0.333,0.632l0.334,0.632l0.336,0.63l0.337,0.63l0.339,0.629l0.34,0.628l0.342,0.627l0.344,0.625l0.345,0.625l0.346,0.625l0.348,0.623l0.349,0.622l0.351,0.621l0.353,0.62l0.354,0.62l0.355,0.618l0.357,0.618l0.358,0.616l1.525,2.609l-10.177,9.547l81.46,86.834l9.392,-8.811l2.648,1.854l0.724,0.503Zm164.495,-259.851l-0.617,0.002l-0.617,0l-0.004,-5.781l0.613,0l0.612,-0.002l0.013,5.781Z"/></g><path id="Brain-Globe" serif:id="Brain Globe" d="M311.321,43.509c112.622,0.735 208.748,71.508 246.968,170.938c-32.031,23.85 -69.277,40.389 -107.446,51.615c-89.459,26.31 -190.083,26.411 -279.547,0.1c-38.169,-11.226 -75.415,-27.765 -107.446,-51.615l-0.024,-0.077c38.279,-99.584 134.645,-170.423 247.495,-170.94l0,-0.021" style="fill:#fff;stroke:#000;stroke-width:2.52px;"/><path d="M313.8,43.574l2.674,0.069l1.413,3.231c0,0 -6,12.5 3.5,10.5c0,0 -6.375,14.375 -1.875,13.875c0,0 3.5,2 2.25,6l2.75,4.25c0,0 -10.75,23.5 4,22.75c0,0 -16.75,17.25 -6.75,17.25c0,0 -6.5,8 -3.75,13.75l1.5,5.25l-0.25,8.25l-0.25,10l-0.75,8.5c0,0 -3.648,14.807 12.321,2.866l3.462,-2.758c-3.477,2.979 -18.358,16.118 -17.033,21.642c0,0 -3.5,7.75 -0.5,6.75l-0.75,9l1,7.75l2.5,7.5c0,0 2.75,9.5 0,16.25l-2.5,14.75c0,0 -2.75,6.25 -0.5,9.5c0,0 7.25,10.25 7,14.25l8.125,9.625c0,0 -3.151,-0.822 -6.79,-3.455l1.263,4.421c-5.469,0.191 -10.946,0.277 -16.446,0.277c-5.662,0 -11.29,-0.09 -16.883,-0.28l1.405,-4.918c-3.639,2.633 -6.79,3.455 -6.79,3.455l8.125,-9.625c-0.25,-4 7,-14.25 7,-14.25c2.25,-3.25 -0.5,-9.5 -0.5,-9.5l-2.5,-14.75c-2.75,-6.75 0,-16.25 0,-16.25l2.5,-7.5l1,-7.75l-0.75,-9c3,1 -0.5,-6.75 -0.5,-6.75c0.994,-4.143 -7.129,-12.569 -12.719,-17.78l-4.314,-3.862c19.934,16.741 15.783,-0.108 15.783,-0.108l-0.75,-8.5l-0.25,-10l-0.25,-8.25l1.5,-5.25c2.75,-5.75 -3.75,-13.75 -3.75,-13.75c10,0 -6.75,-17.25 -6.75,-17.25c14.75,0.75 4,-22.75 4,-22.75l2.75,-4.25c-1.25,-4 2.25,-6 2.25,-6c4.5,0.5 -1.875,-13.875 -1.875,-13.875c9.5,2 3.5,-10.5 3.5,-10.5l1.144,-2.615l3.02,-0.073l0.836,6.688l-0.5,6l1,7l0.5,9.5l-1,17l1.5,8.5l-3.5,5.5l0,7l0.5,11l-1.5,10l4,49.5l-3,5.5l2.5,6l-0.5,9c1.5,3.5 -2,22.5 -2,22.5l0,12.875c1.006,1.89 2.592,2.402 4.021,2.399l3.178,0.5c1.435,0.008 3.031,-0.5 4.042,-2.399l0,-12.875c0,0 -3.5,-19 -2,-22.5l-0.5,-9l2.5,-6l-3,-5.5l4,-49.5l-1.5,-10l0.5,-11l0,-7l-3.5,-5.5l1.5,-8.5l-1,-17l0.5,-9.5l1,-7l-0.5,-6l0.913,-7.3Z"/><path id="Left-Side-Folds" serif:id="Left Side Folds" d="M413.774,260.428c-5.261,2.669 -15.537,13.496 -15.537,13.496c-1.546,1.847 -3.143,3.448 -4.792,4.84l-5.413,0.906c3.919,-2.262 5.605,-4.346 5.605,-4.346c5.565,-6.787 13.157,-11.363 17.461,-13.603l2.676,-1.293c0.114,-0.059 0.226,-0.113 0.336,-0.163l-0.336,0.163Zm28.527,7.714c2.78,-9.993 3.561,-25.118 -12.064,-34.618c0,0 -11.2,-7.6 -24.4,-6.2l1.6,-2.6c0,0 16.4,0 26.6,7c0,0 22.4,-11 27.2,-3.2l-16.6,8.2l20.4,-6c0,0 2,3.4 -19.6,15.2c0,0 3.201,9.48 -1.435,21.76l-1.701,0.458Zm43.177,-14.281c1.241,-8.506 0.095,-19.567 -11.841,-25.137c0,0 18.967,2.389 13.263,24.592l-1.422,0.545Zm-90.409,-32.211c-2.335,-0.78 -3.832,-2.726 -3.832,-2.726c3.8,-6.2 7.2,-22.4 7.2,-22.4l-0.2,-3l-8.4,7.4l-3.45,6.95l0.019,0.067c6.01,21.538 -29.247,26.814 -33.585,27.379l22.616,-2.796c-3,5.6 -16.8,8.8 -16.8,8.8c20.4,-0.8 31.4,-17.8 31.4,-17.8c1.092,-2.184 5.332,-1.718 6.085,-1.616l-1.053,-0.258Zm120.389,18.899c0.627,-26.693 -16.221,-56.825 -16.221,-56.825c23.956,23.457 27.017,44.561 27.339,50.994l-0.048,0.028c-1.09,-20.61 -19.491,-38.822 -19.491,-38.822c8.532,19.014 10.528,34.315 10.764,43.401l-2.343,1.224Zm-23.821,-10.625c0,0 6.4,-30.4 -4.4,-41.4c0,0 4.8,-3.2 8.4,21.4c0,0 5.2,4.8 -0.8,8.4c0,0 -2.2,11.6 -3.2,11.6Zm-74.703,-149.278c0.141,2.278 0.253,10.378 -1.097,13.078c-1.8,3.6 7.2,-6.8 43.2,12c0,0 -42.8,-20 -53.4,-3c0,0 3,12.2 -0.4,19.6c0,0 14.8,-16 41,3.6c0,0 -34.8,-21 -32,7c0,0 18.8,26.8 11.6,33c0,0 29.8,10.4 44,30.6c2.857,4.064 -26.8,-33.2 -57,-19c0,0 -13.8,8 -14.8,11.4c0,0 -9.2,-4.6 -6.8,-11.2c0,0 0,-19.2 6.2,-11.2c0,0 5.2,-2.4 17.6,-0.6c0,0 25.6,0.4 -13.2,-39.6l-8.6,-8c0,0 6.8,3.2 5.6,-17.2c0,0 1.587,-1.731 0.839,-10.475l-0.476,-4.192c0.652,4.303 3.202,18.997 6.637,11.267c0,0 6.6,-2 7,-3.2c0.4,-1.2 4,-10 4,-13.8c0,-0.451 0.012,-0.662 0.031,-0.68l0.066,0.602Zm48.155,51.396c-7.689,-7.07 -20.052,-14.118 -20.052,-14.118c29.6,21.4 24.2,46.6 24.2,46.6c16.4,10.6 7.6,-20.4 7.6,-20.4c8.8,14.8 4.4,25.4 4.4,25.4c14,1.6 25.6,15.8 25.6,15.8c-19.2,-18.8 -28.4,-12 -28.4,-12c-0.4,-4.4 -11.6,-7.4 -11.6,-7.4l1,-5.2c-2.2,-31 -28.6,-44.6 -28.6,-44.6c-1.4,-2.2 -12.4,-13.2 3,-4c9.326,5.571 17.698,14.076 22.852,19.918c2.427,2.232 4.389,4.467 5.348,6.482c0,0 -1.991,-2.676 -5.348,-6.482Zm-101.936,-25.031c-0.181,-1.625 -0.316,-2.687 -0.316,-2.687c0.414,0.662 0.477,1.606 0.316,2.687c0.52,4.645 1.425,13.891 0.684,16.113c0,0 4.4,-2.6 23.4,10.2c0,0 -21.2,-11.6 -24.4,-7.4c0,0 -5.6,1.4 -4.2,-8.6c0,0 3.901,-6.166 4.516,-10.313Zm-12.457,-46.069c-10.618,2.538 -7.075,13.165 -7.075,13.165c-0.852,12.405 -4.809,19.574 -6.886,22.543l1.369,-1.485c14.448,-14.489 38.017,-2.558 38.017,-2.558c-12.834,-8.833 -26.167,-10 -26.167,-10c-0.167,-11.333 4.833,-13.333 4.833,-13.333c0.834,-4.667 20.834,-5 20.834,-5c-9.875,-3.167 -16.813,-4.135 -21.664,-3.807l-3.261,0.475Z"/><path id="Right-Side-Folds" serif:id="Right Side Folds" d="M209.817,260.964c5.26,2.669 15.537,13.496 15.537,13.496c1.546,1.847 3.143,3.448 4.792,4.84l5.413,0.906c-3.919,-2.262 -5.605,-4.346 -5.605,-4.346c-5.566,-6.787 -13.157,-11.363 -17.462,-13.603l-2.675,-1.293c-0.114,-0.059 -0.227,-0.113 -0.336,-0.163l0.336,0.163Zm-28.528,7.714c-2.779,-9.993 -3.56,-25.118 12.065,-34.618c0,0 11.2,-7.6 24.4,-6.2l-1.6,-2.6c0,0 -16.4,0 -26.6,7c0,0 -22.4,-11 -27.2,-3.2l16.6,8.2l-20.4,-6c0,0 -2,3.4 19.6,15.2c0,0 -3.202,9.48 1.435,21.76l1.7,0.458Zm-43.176,-14.281c-1.241,-8.506 -0.095,-19.567 11.841,-25.137c0,0 -18.967,2.389 -13.263,24.592l1.422,0.545Zm90.408,-32.211c2.336,-0.78 3.833,-2.726 3.833,-2.726c-3.8,-6.2 -7.2,-22.4 -7.2,-22.4l0.2,-3l8.4,7.4l3.45,6.95l-0.019,0.067c-6.011,21.538 29.247,26.814 33.584,27.379l-22.615,-2.796c3,5.6 16.8,8.8 16.8,8.8c-20.4,-0.8 -31.4,-17.8 -31.4,-17.8c-1.093,-2.184 -5.332,-1.718 -6.086,-1.616l1.053,-0.258Zm-120.388,18.899c-0.628,-26.693 16.221,-56.825 16.221,-56.825c-23.956,23.457 -27.017,44.561 -27.339,50.994l0.048,0.028c1.09,-20.61 19.491,-38.822 19.491,-38.822c-8.533,19.014 -10.528,34.315 -10.764,43.401l2.343,1.224Zm23.821,-10.625c0,0 -6.4,-30.4 4.4,-41.4c0,0 -4.8,-3.2 -8.4,21.4c0,0 -5.2,4.8 0.8,8.4c0,0 2.2,11.6 3.2,11.6Zm74.703,-149.278c-0.141,2.278 -0.253,10.378 1.097,13.078c1.8,3.6 -7.2,-6.8 -43.2,12c0,0 42.8,-20 53.4,-3c0,0 -3,12.2 0.4,19.6c0,0 -14.8,-16 -41,3.6c0,0 34.8,-21 32,7c0,0 -18.8,26.8 -11.6,33c0,0 -29.8,10.4 -44,30.6c-2.857,4.064 26.8,-33.2 57,-19c0,0 13.8,8 14.8,11.4c0,0 9.2,-4.6 6.8,-11.2c0,0 0,-19.2 -6.2,-11.2c0,0 -5.2,-2.4 -17.6,-0.6c0,0 -25.6,0.4 13.2,-39.6l8.6,-8c0,0 -6.8,3.2 -5.6,-17.2c0,0 -1.587,-1.731 -0.839,-10.475l0.476,-4.192c-0.652,4.303 -3.202,18.997 -6.637,11.267c0,0 -6.6,-2 -7,-3.2c-0.4,-1.2 -4,-10 -4,-13.8c0,-0.451 -0.012,-0.662 -0.031,-0.68l-0.066,0.602Zm-48.155,51.396c7.689,-7.07 20.052,-14.118 20.052,-14.118c-29.6,21.4 -24.2,46.6 -24.2,46.6c-16.4,10.6 -7.6,-20.4 -7.6,-20.4c-8.8,14.8 -4.4,25.4 -4.4,25.4c-14,1.6 -25.6,15.8 -25.6,15.8c19.2,-18.8 28.4,-12 28.4,-12c0.4,-4.4 11.6,-7.4 11.6,-7.4l-1,-5.2c2.2,-31 28.6,-44.6 28.6,-44.6c1.4,-2.2 12.4,-13.2 -3,-4c-9.326,5.571 -17.698,14.076 -22.852,19.918c-2.427,2.232 -4.389,4.467 -5.348,6.482c0,0 1.991,-2.676 5.348,-6.482Zm101.936,-25.031c0.181,-1.625 0.316,-2.687 0.316,-2.687c-0.414,0.662 -0.477,1.606 -0.316,2.687c-0.52,4.645 -1.425,13.891 -0.684,16.113c0,0 -4.4,-2.6 -23.4,10.2c0,0 21.2,-11.6 24.4,-7.4c0,0 5.6,1.4 4.2,-8.6c0,0 -3.901,-6.166 -4.516,-10.313Zm12.457,-46.069c10.618,2.538 7.075,13.165 7.075,13.165c0.852,12.405 4.809,19.574 6.886,22.543l-1.369,-1.485c-14.448,-14.489 -38.017,-2.558 -38.017,-2.558c12.834,-8.833 26.167,-10 26.167,-10c0.167,-11.333 -4.833,-13.333 -4.833,-13.333c-0.834,-4.667 -20.834,-5 -20.834,-5c9.875,-3.167 16.813,-4.135 21.664,-3.807l3.261,0.475Z"/><path d="M339.025,449.469c-9.058,0.53 -46.876,0.545 -55.934,0.015l-10.495,16.81l-32.035,-5.008l-1.76,-16.576c-17.59,-2.791 -34.513,-6.582 -50.595,-11.267l-12,12.364l-27.043,-11.077l-0.581,-15.337c-16.012,-6.79 -30.812,-14.558 -44.162,-23.161l-7.669,5.138l-9.983,-7.708l-1.52,9.012c0,0 -11.102,-0.489 -11.102,-0.25l-0.001,0.015c0,12.081 1.743,23.872 5.057,35.25l16.844,-2.347l9.034,21.631l-13.713,9.5c7.564,13.476 17.443,26.105 29.282,37.63l17.739,-6.726l19.98,18.712l-9.151,11.152c13.444,9.097 28.357,17.083 44.453,23.756l7.651,-11.995l35.502,11.22l-3.026,14.004c17.112,4.306 35.114,7.246 53.751,8.638l3.934,-17.6l40.869,-0.015l2.217,17.6c18.637,-1.392 36.638,-4.332 53.751,-8.638l-0.737,-16.373l28.633,-9.799l12.231,12.943c16.096,-6.673 31.008,-14.66 44.452,-23.756l-1.71,-13.047l17.691,-14.448l12.588,4.357c11.839,-11.525 21.718,-24.154 29.281,-37.63l-4.554,-10.447l5.027,-16.895l11.692,-1.442c3.314,-11.378 5.057,-23.169 5.057,-35.25l0,-0.015c-0.001,-0.239 -11.103,0.25 -11.103,0.25l-1.519,-9.012l-9.983,7.707l-7.669,-5.137c-13.351,8.603 -28.151,16.371 -44.163,23.161l2.282,17.705l-27.043,9.182l-14.863,-12.837c-16.082,4.685 -33.005,8.476 -50.594,11.266l-2.906,17.051l-30.889,5.008l-10.495,-17.284Z"/><g><circle cx="214.179" cy="350.611" r="58.926" style="fill:#11b100;"/><path d="M214.578,288.827l0.398,0.003l0.398,0.007l0.397,0.009l0.397,0.011l0.396,0.014l0.395,0.016l0.395,0.019l0.394,0.021l0.394,0.024l0.393,0.026l0.392,0.029l0.392,0.031l0.39,0.033l0.391,0.036l0.389,0.039l0.389,0.04l0.388,0.044l0.388,0.045l0.386,0.048l0.387,0.05l0.385,0.053l0.384,0.055l0.384,0.058l0.383,0.06l0.382,0.062l0.382,0.064l0.38,0.067l0.38,0.069l0.379,0.072l0.379,0.074l0.377,0.076l0.377,0.078l0.376,0.081l0.374,0.083l0.374,0.085l0.374,0.087l0.372,0.09l0.372,0.092l0.37,0.094l0.37,0.097l0.369,0.098l0.368,0.101l0.367,0.103l0.366,0.106l0.365,0.107l0.364,0.11l0.363,0.112l0.363,0.114l0.361,0.116l0.361,0.118l0.359,0.121l0.358,0.122l0.358,0.125l0.356,0.127l0.356,0.129l0.354,0.131l0.354,0.133l0.352,0.136l0.351,0.137l0.351,0.14l0.349,0.141l0.348,0.144l0.347,0.145l0.346,0.148l0.345,0.15l0.344,0.152l0.342,0.153l0.342,0.156l0.341,0.158l0.339,0.16l0.338,0.162l0.337,0.163l0.336,0.166l0.335,0.168l0.334,0.17l0.332,0.171l0.331,0.174l0.33,0.175l0.329,0.178l0.328,0.179l0.327,0.182l0.325,0.183l0.324,0.185l0.323,0.187l0.321,0.189l0.321,0.191l0.319,0.192l0.318,0.195l0.316,0.196l0.316,0.199l0.313,0.2l0.313,0.201l0.312,0.204l0.31,0.206l0.308,0.207l0.308,0.209l0.306,0.211l0.305,0.213l0.303,0.214l0.303,0.217l0.3,0.218l0.3,0.22l0.298,0.221l0.296,0.224l0.295,0.224l0.294,0.227l0.293,0.229l0.291,0.23l0.29,0.232l0.288,0.233l0.286,0.235l0.286,0.238l0.284,0.238l0.282,0.24l0.281,0.242l0.28,0.244l0.278,0.245l0.276,0.247l0.275,0.249l0.274,0.25l0.272,0.251l0.27,0.254l0.269,0.255l0.268,0.256l0.266,0.258l0.264,0.26l0.263,0.261l0.261,0.263l0.26,0.264l0.258,0.266l0.256,0.268l0.255,0.269l0.254,0.27l0.251,0.272l0.25,0.274l0.249,0.275l0.247,0.276l0.245,0.278l0.244,0.28l0.242,0.281l0.24,0.282l0.238,0.284l0.237,0.285l0.236,0.287l0.233,0.288l0.232,0.29l0.23,0.291l0.229,0.292l0.226,0.294l0.225,0.295l0.224,0.297l0.221,0.298l0.22,0.3l0.218,0.3l0.216,0.302l0.215,0.304l0.213,0.305l0.211,0.306l0.209,0.307l0.207,0.309l0.206,0.31l0.203,0.312l0.202,0.312l0.2,0.314l0.198,0.316l0.197,0.316l0.195,0.318l0.192,0.319l0.191,0.321l0.189,0.321l0.187,0.323l0.185,0.324l0.183,0.325l0.182,0.327l0.179,0.328l0.177,0.328l0.176,0.331l0.174,0.331l0.171,0.332l0.17,0.334l0.168,0.335l0.165,0.336l0.164,0.337l0.162,0.338l0.16,0.339l0.158,0.341l0.156,0.342l0.153,0.342l0.152,0.344l0.15,0.345l0.148,0.346l0.145,0.347l0.144,0.348l0.141,0.349l0.14,0.351l0.137,0.351l0.135,0.352l0.134,0.354l0.131,0.354l0.129,0.356l0.127,0.356l0.125,0.358l0.122,0.358l0.121,0.359l0.118,0.361l0.116,0.361l0.114,0.362l0.112,0.364l0.11,0.364l0.107,0.365l0.106,0.366l0.103,0.367l0.101,0.368l0.098,0.369l0.097,0.37l0.094,0.37l0.092,0.372l0.09,0.372l0.087,0.373l0.085,0.375l0.083,0.374l0.081,0.376l0.078,0.377l0.076,0.377l0.074,0.378l0.072,0.38l0.069,0.38l0.067,0.38l0.064,0.382l0.062,0.382l0.06,0.383l0.058,0.384l0.055,0.384l0.052,0.385l0.051,0.386l0.048,0.387l0.045,0.388l0.044,0.388l0.04,0.389l0.039,0.389l0.036,0.39l0.033,0.391l0.031,0.392l0.029,0.392l0.026,0.393l0.024,0.393l0.021,0.395l0.019,0.395l0.016,0.395l0.014,0.396l0.011,0.397l0.009,0.397l0.006,0.398l0.004,0.398l0.002,0.399l-0.002,0.399l-0.004,0.398l-0.006,0.398l-0.009,0.397l-0.011,0.397l-0.014,0.396l-0.016,0.396l-0.019,0.394l-0.021,0.395l-0.024,0.393l-0.026,0.393l-0.029,0.393l-0.031,0.391l-0.033,0.391l-0.036,0.39l-0.039,0.39l-0.04,0.389l-0.044,0.388l-0.045,0.387l-0.048,0.387l-0.051,0.386l-0.052,0.385l-0.055,0.385l-0.058,0.383l-0.06,0.383l-0.062,0.383l-0.064,0.381l-0.067,0.381l-0.069,0.38l-0.072,0.379l-0.074,0.378l-0.076,0.377l-0.078,0.377l-0.081,0.376l-0.083,0.375l-0.085,0.374l-0.087,0.373l-0.09,0.373l-0.092,0.371l-0.094,0.371l-0.097,0.369l-0.098,0.369l-0.101,0.368l-0.103,0.367l-0.106,0.366l-0.107,0.366l-0.11,0.364l-0.112,0.363l-0.114,0.362l-0.116,0.362l-0.118,0.36l-0.121,0.359l-0.122,0.359l-0.125,0.357l-0.127,0.357l-0.129,0.355l-0.131,0.354l-0.134,0.354l-0.135,0.352l-0.137,0.352l-0.14,0.35l-0.141,0.349l-0.144,0.348l-0.145,0.347l-0.148,0.346l-0.15,0.345l-0.152,0.344l-0.153,0.343l-0.156,0.341l-0.158,0.341l-0.16,0.339l-0.162,0.339l-0.164,0.337l-0.165,0.335l-0.168,0.335l-0.17,0.334l-0.171,0.332l-0.174,0.332l-0.176,0.33l-0.177,0.329l-0.179,0.327l-0.182,0.327l-0.183,0.325l-0.185,0.324l-0.187,0.323l-0.189,0.322l-0.191,0.32l-0.193,0.319l-0.194,0.318l-0.197,0.317l-0.198,0.315l-0.2,0.314l-0.202,0.313l-0.203,0.311l-0.206,0.31l-0.207,0.309l-0.209,0.307l-0.211,0.307l-0.213,0.304l-0.215,0.304l-0.216,0.302l-0.218,0.301l-0.22,0.299l-0.221,0.298l-0.224,0.297l-0.225,0.295l-0.226,0.294l-0.229,0.292l-0.23,0.291l-0.232,0.29l-0.233,0.288l-0.236,0.287l-0.237,0.285l-0.238,0.284l-0.24,0.282l-0.242,0.282l-0.244,0.279l-0.245,0.278l-0.247,0.277l-0.249,0.275l-0.25,0.273l-0.251,0.272l-0.254,0.271l-0.255,0.268l-0.256,0.268l-0.258,0.266l-0.26,0.264l-0.261,0.263l-0.263,0.261l-0.264,0.26l-0.266,0.258l-0.268,0.257l-0.269,0.255l-0.27,0.253l-0.272,0.252l-0.274,0.25l-0.275,0.248l-0.276,0.247l-0.278,0.245l-0.28,0.244l-0.281,0.242l-0.282,0.24l-0.284,0.239l-0.286,0.237l-0.286,0.235l-0.288,0.234l-0.29,0.231l-0.291,0.231l-0.293,0.228l-0.293,0.227l-0.296,0.225l-0.296,0.223l-0.298,0.222l-0.3,0.219l-0.3,0.219l-0.303,0.216l-0.303,0.214l-0.305,0.213l-0.306,0.211l-0.307,0.209l-0.309,0.208l-0.31,0.205l-0.312,0.204l-0.312,0.202l-0.314,0.2l-0.316,0.198l-0.316,0.196l-0.318,0.195l-0.319,0.192l-0.321,0.191l-0.321,0.189l-0.323,0.187l-0.324,0.185l-0.325,0.184l-0.327,0.181l-0.328,0.179l-0.329,0.178l-0.33,0.175l-0.331,0.174l-0.332,0.172l-0.334,0.169l-0.335,0.168l-0.336,0.166l-0.337,0.164l-0.338,0.161l-0.339,0.16l-0.341,0.158l-0.342,0.156l-0.342,0.154l-0.344,0.151l-0.345,0.15l-0.346,0.148l-0.347,0.146l-0.348,0.143l-0.35,0.142l-0.35,0.139l-0.351,0.138l-0.352,0.135l-0.354,0.133l-0.354,0.131l-0.356,0.129l-0.356,0.127l-0.357,0.125l-0.359,0.122l-0.359,0.121l-0.361,0.118l-0.361,0.117l-0.362,0.114l-0.364,0.111l-0.364,0.11l-0.365,0.108l-0.366,0.105l-0.367,0.103l-0.368,0.101l-0.369,0.099l-0.37,0.096l-0.37,0.094l-0.372,0.092l-0.372,0.09l-0.374,0.087l-0.374,0.086l-0.375,0.083l-0.375,0.08l-0.377,0.079l-0.377,0.076l-0.379,0.074l-0.379,0.071l-0.38,0.069l-0.38,0.067l-0.382,0.065l-0.382,0.062l-0.383,0.059l-0.384,0.058l-0.384,0.055l-0.386,0.053l-0.386,0.05l-0.386,0.048l-0.388,0.046l-0.388,0.043l-0.389,0.041l-0.389,0.038l-0.391,0.036l-0.39,0.034l-0.392,0.031l-0.392,0.028l-0.393,0.026l-0.394,0.024l-0.394,0.021l-0.395,0.019l-0.395,0.017l-0.396,0.013l-0.397,0.012l-0.397,0.009l-0.398,0.006l-0.398,0.004l-0.399,0.001l-0.399,-0.001l-0.399,-0.004l-0.397,-0.006l-0.398,-0.009l-0.396,-0.012l-0.396,-0.013l-0.396,-0.017l-0.395,-0.019l-0.394,-0.021l-0.393,-0.024l-0.393,-0.026l-0.392,-0.028l-0.392,-0.031l-0.391,-0.034l-0.39,-0.036l-0.39,-0.038l-0.389,-0.041l-0.388,-0.043l-0.387,-0.046l-0.387,-0.048l-0.386,-0.05l-0.385,-0.053l-0.385,-0.055l-0.384,-0.058l-0.382,-0.059l-0.383,-0.062l-0.381,-0.065l-0.381,-0.067l-0.38,-0.069l-0.379,-0.071l-0.378,-0.074l-0.378,-0.076l-0.376,-0.079l-0.376,-0.08l-0.375,-0.083l-0.374,-0.086l-0.373,-0.087l-0.373,-0.09l-0.371,-0.092l-0.371,-0.094l-0.369,-0.096l-0.369,-0.099l-0.368,-0.101l-0.367,-0.103l-0.366,-0.105l-0.365,-0.108l-0.365,-0.11l-0.363,-0.111l-0.362,-0.114l-0.362,-0.117l-0.36,-0.118l-0.359,-0.121l-0.359,-0.122l-0.357,-0.125l-0.357,-0.127l-0.355,-0.129l-0.355,-0.131l-0.353,-0.133l-0.352,-0.135l-0.352,-0.138l-0.35,-0.139l-0.349,-0.142l-0.348,-0.143l-0.347,-0.146l-0.346,-0.148l-0.345,-0.15l-0.344,-0.151l-0.343,-0.154l-0.341,-0.156l-0.341,-0.158l-0.339,-0.16l-0.339,-0.161l-0.337,-0.164l-0.336,-0.166l-0.334,-0.168l-0.334,-0.169l-0.333,-0.172l-0.331,-0.174l-0.33,-0.175l-0.329,-0.178l-0.328,-0.179l-0.326,-0.181l-0.325,-0.184l-0.324,-0.185l-0.323,-0.187l-0.322,-0.189l-0.32,-0.19l-0.319,-0.193l-0.318,-0.195l-0.317,-0.196l-0.315,-0.198l-0.314,-0.2l-0.313,-0.202l-0.311,-0.204l-0.31,-0.205l-0.309,-0.208l-0.308,-0.209l-0.306,-0.211l-0.304,-0.213l-0.304,-0.214l-0.302,-0.216l-0.301,-0.219l-0.299,-0.219l-0.298,-0.222l-0.297,-0.223l-0.295,-0.225l-0.294,-0.227l-0.292,-0.228l-0.292,-0.231l-0.289,-0.231l-0.288,-0.234l-0.287,-0.235l-0.285,-0.237l-0.284,-0.239l-0.283,-0.24l-0.281,-0.242l-0.279,-0.244l-0.278,-0.245l-0.277,-0.247l-0.275,-0.248l-0.273,-0.25l-0.272,-0.252l-0.271,-0.253l-0.269,-0.255l-0.267,-0.257l-0.266,-0.258l-0.264,-0.26l-0.263,-0.261l-0.261,-0.263l-0.26,-0.264l-0.258,-0.266l-0.257,-0.267l-0.255,-0.269l-0.253,-0.271l-0.252,-0.272l-0.25,-0.273l-0.248,-0.275l-0.247,-0.277l-0.245,-0.278l-0.244,-0.28l-0.242,-0.281l-0.24,-0.282l-0.239,-0.284l-0.237,-0.285l-0.235,-0.287l-0.234,-0.288l-0.232,-0.29l-0.23,-0.291l-0.228,-0.292l-0.227,-0.294l-0.225,-0.295l-0.223,-0.297l-0.222,-0.298l-0.22,-0.299l-0.218,-0.301l-0.216,-0.302l-0.214,-0.304l-0.213,-0.304l-0.211,-0.307l-0.209,-0.307l-0.208,-0.309l-0.205,-0.31l-0.204,-0.311l-0.202,-0.313l-0.2,-0.314l-0.198,-0.315l-0.196,-0.317l-0.195,-0.318l-0.193,-0.319l-0.19,-0.32l-0.189,-0.322l-0.187,-0.323l-0.185,-0.324l-0.184,-0.325l-0.181,-0.326l-0.179,-0.328l-0.178,-0.329l-0.175,-0.33l-0.174,-0.332l-0.172,-0.332l-0.169,-0.334l-0.168,-0.334l-0.166,-0.336l-0.164,-0.338l-0.162,-0.338l-0.159,-0.339l-0.158,-0.341l-0.156,-0.341l-0.154,-0.343l-0.152,-0.344l-0.149,-0.345l-0.148,-0.346l-0.146,-0.347l-0.143,-0.348l-0.142,-0.349l-0.139,-0.35l-0.138,-0.352l-0.135,-0.352l-0.133,-0.354l-0.131,-0.354l-0.129,-0.355l-0.127,-0.357l-0.125,-0.357l-0.123,-0.359l-0.12,-0.359l-0.118,-0.36l-0.117,-0.362l-0.114,-0.362l-0.112,-0.364l-0.109,-0.364l-0.108,-0.365l-0.105,-0.366l-0.103,-0.367l-0.101,-0.368l-0.099,-0.369l-0.096,-0.369l-0.094,-0.371l-0.092,-0.371l-0.09,-0.373l-0.088,-0.373l-0.085,-0.374l-0.083,-0.375l-0.08,-0.376l-0.079,-0.377l-0.076,-0.377l-0.074,-0.378l-0.071,-0.379l-0.069,-0.38l-0.067,-0.381l-0.065,-0.381l-0.062,-0.383l-0.06,-0.383l-0.057,-0.383l-0.055,-0.385l-0.053,-0.385l-0.05,-0.386l-0.048,-0.387l-0.046,-0.387l-0.043,-0.388l-0.041,-0.389l-0.038,-0.39l-0.036,-0.39l-0.034,-0.391l-0.031,-0.392l-0.028,-0.392l-0.027,-0.393l-0.023,-0.393l-0.022,-0.395l-0.018,-0.394l-0.017,-0.396l-0.013,-0.396l-0.012,-0.396l-0.009,-0.398l-0.006,-0.398l-0.004,-0.398l-0.001,-0.399l0.001,-0.399l0.004,-0.398l0.006,-0.398l0.009,-0.397l0.012,-0.397l0.013,-0.396l0.017,-0.395l0.018,-0.395l0.022,-0.395l0.023,-0.393l0.027,-0.393l0.028,-0.392l0.031,-0.392l0.034,-0.391l0.036,-0.39l0.038,-0.389l0.041,-0.389l0.043,-0.389l0.046,-0.387l0.048,-0.387l0.05,-0.386l0.053,-0.385l0.055,-0.384l0.057,-0.384l0.06,-0.383l0.062,-0.382l0.065,-0.382l0.067,-0.38l0.069,-0.38l0.071,-0.38l0.074,-0.378l0.076,-0.377l0.079,-0.377l0.08,-0.376l0.083,-0.375l0.085,-0.374l0.088,-0.373l0.09,-0.372l0.092,-0.372l0.094,-0.37l0.096,-0.37l0.099,-0.369l0.101,-0.368l0.103,-0.367l0.105,-0.366l0.108,-0.365l0.109,-0.364l0.112,-0.364l0.114,-0.362l0.117,-0.361l0.118,-0.361l0.12,-0.359l0.123,-0.358l0.125,-0.358l0.127,-0.356l0.129,-0.356l0.131,-0.354l0.133,-0.354l0.135,-0.352l0.138,-0.351l0.139,-0.351l0.142,-0.349l0.143,-0.348l0.146,-0.347l0.148,-0.346l0.149,-0.345l0.152,-0.344l0.154,-0.342l0.156,-0.342l0.158,-0.341l0.159,-0.339l0.162,-0.338l0.164,-0.337l0.166,-0.336l0.168,-0.335l0.169,-0.334l0.172,-0.332l0.174,-0.331l0.175,-0.331l0.178,-0.328l0.179,-0.328l0.181,-0.327l0.184,-0.325l0.185,-0.324l0.187,-0.323l0.189,-0.321l0.19,-0.321l0.193,-0.319l0.195,-0.318l0.196,-0.316l0.198,-0.316l0.2,-0.314l0.202,-0.312l0.204,-0.312l0.205,-0.31l0.208,-0.309l0.209,-0.307l0.211,-0.306l0.213,-0.305l0.214,-0.304l0.216,-0.302l0.218,-0.301l0.22,-0.299l0.222,-0.298l0.223,-0.297l0.225,-0.295l0.227,-0.294l0.228,-0.292l0.231,-0.291l0.231,-0.29l0.234,-0.288l0.235,-0.287l0.237,-0.285l0.239,-0.284l0.24,-0.282l0.242,-0.281l0.244,-0.28l0.245,-0.278l0.247,-0.276l0.248,-0.275l0.25,-0.274l0.252,-0.272l0.253,-0.27l0.255,-0.269l0.257,-0.268l0.258,-0.266l0.26,-0.264l0.261,-0.263l0.263,-0.261l0.264,-0.26l0.266,-0.258l0.267,-0.256l0.269,-0.255l0.271,-0.254l0.272,-0.251l0.273,-0.25l0.275,-0.249l0.277,-0.247l0.278,-0.245l0.279,-0.244l0.281,-0.242l0.283,-0.24l0.284,-0.238l0.285,-0.237l0.287,-0.236l0.288,-0.233l0.29,-0.232l0.291,-0.23l0.292,-0.229l0.294,-0.227l0.295,-0.225l0.297,-0.223l0.298,-0.221l0.299,-0.22l0.301,-0.218l0.302,-0.217l0.304,-0.214l0.304,-0.213l0.307,-0.211l0.307,-0.209l0.309,-0.207l0.31,-0.206l0.311,-0.204l0.313,-0.201l0.314,-0.2l0.315,-0.199l0.317,-0.196l0.318,-0.195l0.319,-0.192l0.32,-0.191l0.322,-0.189l0.323,-0.187l0.324,-0.185l0.325,-0.183l0.327,-0.182l0.327,-0.179l0.329,-0.178l0.33,-0.175l0.331,-0.174l0.333,-0.171l0.334,-0.17l0.334,-0.168l0.336,-0.166l0.337,-0.163l0.339,-0.162l0.339,-0.16l0.341,-0.158l0.341,-0.156l0.343,-0.153l0.344,-0.152l0.345,-0.15l0.346,-0.148l0.347,-0.145l0.348,-0.144l0.349,-0.141l0.35,-0.14l0.352,-0.137l0.352,-0.136l0.353,-0.133l0.355,-0.131l0.355,-0.129l0.357,-0.127l0.357,-0.125l0.359,-0.122l0.359,-0.121l0.36,-0.118l0.362,-0.116l0.362,-0.114l0.363,-0.112l0.364,-0.11l0.366,-0.107l0.366,-0.106l0.367,-0.103l0.368,-0.101l0.369,-0.098l0.369,-0.097l0.371,-0.094l0.371,-0.092l0.373,-0.09l0.373,-0.087l0.374,-0.085l0.375,-0.083l0.376,-0.081l0.377,-0.078l0.377,-0.076l0.378,-0.074l0.379,-0.072l0.38,-0.069l0.381,-0.067l0.381,-0.064l0.382,-0.062l0.384,-0.06l0.383,-0.058l0.385,-0.055l0.385,-0.053l0.386,-0.05l0.387,-0.048l0.387,-0.045l0.388,-0.044l0.389,-0.04l0.39,-0.039l0.39,-0.036l0.391,-0.033l0.391,-0.031l0.393,-0.029l0.393,-0.026l0.393,-0.024l0.394,-0.021l0.395,-0.019l0.396,-0.016l0.396,-0.014l0.396,-0.011l0.397,-0.009l0.398,-0.007l0.399,-0.003l0.399,-0.002l0.399,0.002Zm-0.78,2.859l-0.38,0.004l-0.38,0.006l-0.379,0.008l-0.379,0.011l-0.378,0.013l-0.377,0.016l-0.377,0.018l-0.376,0.02l-0.375,0.022l-0.375,0.025l-0.374,0.028l-0.374,0.029l-0.373,0.032l-0.372,0.035l-0.372,0.036l-0.37,0.039l-0.371,0.041l-0.369,0.044l-0.369,0.046l-0.368,0.048l-0.367,0.05l-0.367,0.052l-0.366,0.055l-0.365,0.057l-0.365,0.06l-0.364,0.061l-0.363,0.064l-0.362,0.066l-0.361,0.068l-0.361,0.07l-0.36,0.073l-0.359,0.075l-0.358,0.077l-0.358,0.079l-0.356,0.081l-0.356,0.083l-0.355,0.086l-0.354,0.087l-0.354,0.09l-0.352,0.092l-0.352,0.094l-0.35,0.097l-0.35,0.098l-0.349,0.1l-0.348,0.103l-0.348,0.104l-0.346,0.107l-0.345,0.109l-0.345,0.11l-0.344,0.113l-0.342,0.115l-0.342,0.117l-0.341,0.119l-0.34,0.121l-0.338,0.123l-0.338,0.125l-0.337,0.127l-0.336,0.129l-0.335,0.131l-0.334,0.133l-0.333,0.135l-0.332,0.137l-0.331,0.139l-0.33,0.14l-0.329,0.143l-0.327,0.145l-0.327,0.147l-0.326,0.148l-0.325,0.151l-0.323,0.152l-0.323,0.154l-0.321,0.156l-0.321,0.159l-0.319,0.16l-0.318,0.161l-0.317,0.164l-0.316,0.166l-0.315,0.167l-0.313,0.169l-0.313,0.171l-0.311,0.173l-0.31,0.175l-0.31,0.177l-0.307,0.178l-0.307,0.18l-0.306,0.182l-0.304,0.184l-0.303,0.185l-0.302,0.188l-0.301,0.189l-0.299,0.191l-0.299,0.192l-0.297,0.194l-0.295,0.196l-0.295,0.198l-0.293,0.2l-0.292,0.201l-0.291,0.203l-0.289,0.204l-0.289,0.207l-0.287,0.208l-0.285,0.209l-0.284,0.212l-0.283,0.213l-0.282,0.214l-0.28,0.217l-0.279,0.218l-0.278,0.219l-0.276,0.221l-0.275,0.223l-0.274,0.225l-0.272,0.226l-0.271,0.227l-0.269,0.23l-0.268,0.23l-0.267,0.233l-0.265,0.234l-0.264,0.235l-0.262,0.237l-0.261,0.239l-0.26,0.24l-0.258,0.242l-0.256,0.243l-0.256,0.245l-0.253,0.246l-0.253,0.248l-0.25,0.249l-0.25,0.251l-0.247,0.252l-0.247,0.254l-0.244,0.255l-0.243,0.257l-0.242,0.258l-0.24,0.259l-0.239,0.261l-0.237,0.262l-0.236,0.264l-0.234,0.265l-0.232,0.267l-0.231,0.268l-0.229,0.27l-0.228,0.27l-0.226,0.273l-0.224,0.273l-0.223,0.275l-0.221,0.276l-0.22,0.278l-0.218,0.279l-0.216,0.28l-0.215,0.282l-0.213,0.283l-0.211,0.284l-0.21,0.286l-0.208,0.287l-0.206,0.288l-0.205,0.289l-0.202,0.291l-0.202,0.292l-0.199,0.293l-0.198,0.295l-0.196,0.296l-0.194,0.297l-0.193,0.298l-0.191,0.3l-0.189,0.3l-0.187,0.302l-0.186,0.303l-0.183,0.305l-0.182,0.305l-0.18,0.307l-0.179,0.308l-0.176,0.309l-0.175,0.31l-0.173,0.311l-0.171,0.313l-0.169,0.314l-0.168,0.314l-0.165,0.316l-0.164,0.317l-0.162,0.319l-0.16,0.319l-0.158,0.32l-0.156,0.322l-0.154,0.322l-0.153,0.324l-0.15,0.324l-0.149,0.326l-0.146,0.327l-0.145,0.328l-0.143,0.329l-0.141,0.33l-0.139,0.33l-0.137,0.332l-0.135,0.333l-0.132,0.334l-0.131,0.335l-0.129,0.336l-0.127,0.337l-0.125,0.338l-0.123,0.339l-0.121,0.34l-0.119,0.34l-0.117,0.342l-0.115,0.343l-0.113,0.343l-0.111,0.345l-0.108,0.345l-0.107,0.347l-0.105,0.347l-0.102,0.348l-0.101,0.349l-0.098,0.35l-0.096,0.351l-0.094,0.351l-0.092,0.353l-0.09,0.353l-0.088,0.354l-0.085,0.355l-0.084,0.356l-0.081,0.357l-0.079,0.357l-0.077,0.359l-0.075,0.359l-0.072,0.36l-0.07,0.36l-0.069,0.362l-0.066,0.362l-0.063,0.363l-0.062,0.364l-0.059,0.364l-0.057,0.365l-0.055,0.366l-0.052,0.367l-0.051,0.367l-0.048,0.368l-0.046,0.369l-0.043,0.37l-0.041,0.37l-0.039,0.371l-0.037,0.371l-0.034,0.373l-0.032,0.373l-0.03,0.373l-0.027,0.374l-0.025,0.375l-0.023,0.376l-0.02,0.376l-0.018,0.376l-0.015,0.378l-0.014,0.378l-0.01,0.378l-0.009,0.379l-0.006,0.38l-0.003,0.38l-0.002,0.381l0.002,0.381l0.003,0.38l0.006,0.38l0.009,0.379l0.01,0.379l0.014,0.378l0.015,0.377l0.018,0.377l0.02,0.376l0.023,0.375l0.025,0.375l0.027,0.374l0.03,0.374l0.032,0.373l0.034,0.372l0.037,0.371l0.039,0.371l0.041,0.371l0.043,0.369l0.046,0.369l0.048,0.368l0.051,0.367l0.052,0.367l0.055,0.366l0.057,0.365l0.059,0.365l0.062,0.363l0.063,0.363l0.066,0.363l0.069,0.361l0.07,0.361l0.072,0.36l0.075,0.359l0.077,0.358l0.079,0.357l0.081,0.357l0.084,0.356l0.085,0.355l0.088,0.354l0.09,0.353l0.092,0.353l0.094,0.352l0.096,0.35l0.098,0.35l0.101,0.349l0.102,0.348l0.105,0.348l0.107,0.346l0.108,0.345l0.111,0.345l0.113,0.343l0.115,0.343l0.117,0.342l0.119,0.341l0.121,0.339l0.123,0.339l0.125,0.338l0.127,0.337l0.129,0.336l0.131,0.335l0.132,0.334l0.135,0.333l0.137,0.332l0.139,0.331l0.141,0.33l0.143,0.329l0.145,0.327l0.146,0.327l0.149,0.326l0.15,0.325l0.153,0.323l0.154,0.323l0.156,0.321l0.158,0.32l0.16,0.32l0.162,0.318l0.164,0.317l0.165,0.316l0.168,0.315l0.169,0.313l0.171,0.313l0.173,0.311l0.175,0.31l0.176,0.309l0.179,0.308l0.18,0.307l0.182,0.306l0.183,0.304l0.186,0.303l0.187,0.302l0.189,0.301l0.191,0.299l0.193,0.298l0.194,0.298l0.196,0.295l0.198,0.295l0.199,0.293l0.202,0.292l0.202,0.291l0.205,0.289l0.206,0.289l0.208,0.286l0.21,0.286l0.211,0.284l0.213,0.283l0.215,0.282l0.216,0.28l0.218,0.279l0.22,0.278l0.221,0.276l0.223,0.275l0.224,0.274l0.226,0.272l0.228,0.271l0.229,0.269l0.231,0.268l0.232,0.267l0.234,0.265l0.236,0.264l0.237,0.262l0.239,0.261l0.24,0.26l0.242,0.258l0.243,0.256l0.244,0.256l0.247,0.253l0.247,0.252l0.25,0.251l0.25,0.249l0.253,0.248l0.253,0.246l0.256,0.245l0.256,0.243l0.258,0.242l0.26,0.24l0.261,0.239l0.262,0.237l0.264,0.235l0.265,0.234l0.267,0.233l0.268,0.231l0.269,0.229l0.271,0.227l0.272,0.227l0.274,0.224l0.275,0.223l0.276,0.221l0.278,0.22l0.279,0.218l0.28,0.216l0.282,0.214l0.283,0.213l0.284,0.212l0.285,0.21l0.287,0.207l0.289,0.207l0.289,0.204l0.291,0.203l0.292,0.202l0.293,0.199l0.295,0.198l0.295,0.196l0.297,0.194l0.299,0.193l0.299,0.191l0.301,0.189l0.302,0.187l0.303,0.185l0.304,0.184l0.306,0.182l0.307,0.18l0.307,0.179l0.31,0.176l0.31,0.175l0.311,0.173l0.313,0.171l0.313,0.169l0.315,0.168l0.316,0.165l0.317,0.164l0.318,0.162l0.319,0.16l0.321,0.158l0.321,0.156l0.323,0.154l0.323,0.153l0.325,0.15l0.326,0.149l0.327,0.146l0.327,0.145l0.329,0.143l0.33,0.141l0.331,0.139l0.332,0.136l0.333,0.135l0.334,0.133l0.335,0.131l0.336,0.129l0.337,0.127l0.338,0.125l0.338,0.123l0.34,0.121l0.341,0.119l0.342,0.117l0.342,0.115l0.344,0.113l0.345,0.111l0.345,0.108l0.346,0.107l0.348,0.105l0.348,0.102l0.349,0.1l0.35,0.099l0.35,0.096l0.352,0.094l0.352,0.092l0.354,0.09l0.354,0.087l0.355,0.086l0.356,0.083l0.356,0.082l0.358,0.079l0.358,0.077l0.359,0.074l0.36,0.073l0.361,0.07l0.361,0.068l0.362,0.066l0.363,0.064l0.364,0.062l0.365,0.059l0.365,0.057l0.366,0.055l0.367,0.052l0.367,0.051l0.368,0.048l0.369,0.045l0.369,0.044l0.371,0.041l0.37,0.039l0.372,0.037l0.372,0.034l0.373,0.032l0.374,0.03l0.374,0.027l0.375,0.025l0.375,0.022l0.376,0.021l0.377,0.018l0.377,0.015l0.378,0.013l0.379,0.011l0.379,0.009l0.38,0.006l0.38,0.003l0.381,0.001l0.381,-0.001l0.38,-0.003l0.38,-0.006l0.379,-0.009l0.378,-0.011l0.378,-0.013l0.377,-0.015l0.377,-0.018l0.376,-0.021l0.376,-0.022l0.375,-0.025l0.374,-0.027l0.373,-0.03l0.373,-0.032l0.372,-0.034l0.372,-0.037l0.371,-0.039l0.37,-0.041l0.37,-0.044l0.368,-0.045l0.369,-0.048l0.367,-0.051l0.367,-0.052l0.366,-0.055l0.365,-0.057l0.364,-0.059l0.364,-0.062l0.363,-0.064l0.362,-0.066l0.362,-0.068l0.36,-0.07l0.36,-0.073l0.359,-0.074l0.359,-0.077l0.357,-0.079l0.357,-0.082l0.356,-0.083l0.355,-0.086l0.354,-0.087l0.353,-0.09l0.353,-0.092l0.351,-0.094l0.351,-0.096l0.35,-0.099l0.349,-0.1l0.348,-0.102l0.347,-0.105l0.347,-0.107l0.345,-0.108l0.344,-0.111l0.344,-0.113l0.343,-0.115l0.341,-0.117l0.341,-0.119l0.34,-0.121l0.339,-0.123l0.338,-0.125l0.337,-0.127l0.336,-0.129l0.335,-0.131l0.334,-0.133l0.332,-0.135l0.332,-0.136l0.331,-0.139l0.33,-0.141l0.329,-0.143l0.328,-0.145l0.327,-0.146l0.325,-0.149l0.325,-0.15l0.324,-0.153l0.322,-0.154l0.322,-0.156l0.32,-0.158l0.319,-0.16l0.318,-0.162l0.318,-0.164l0.315,-0.165l0.315,-0.168l0.314,-0.169l0.312,-0.171l0.312,-0.173l0.31,-0.175l0.309,-0.176l0.308,-0.179l0.307,-0.18l0.305,-0.182l0.305,-0.184l0.303,-0.185l0.302,-0.187l0.3,-0.189l0.3,-0.191l0.298,-0.193l0.297,-0.194l0.296,-0.196l0.294,-0.198l0.294,-0.199l0.292,-0.202l0.291,-0.203l0.289,-0.204l0.288,-0.207l0.287,-0.207l0.286,-0.21l0.284,-0.212l0.283,-0.213l0.282,-0.214l0.28,-0.216l0.279,-0.218l0.278,-0.22l0.276,-0.221l0.275,-0.223l0.273,-0.224l0.273,-0.227l0.27,-0.227l0.27,-0.229l0.268,-0.231l0.266,-0.233l0.266,-0.234l0.263,-0.235l0.263,-0.237l0.261,-0.239l0.259,-0.24l0.258,-0.242l0.257,-0.243l0.255,-0.245l0.254,-0.246l0.252,-0.248l0.251,-0.249l0.249,-0.251l0.248,-0.252l0.246,-0.253l0.245,-0.256l0.243,-0.256l0.242,-0.258l0.24,-0.26l0.238,-0.261l0.238,-0.262l0.235,-0.264l0.234,-0.265l0.232,-0.267l0.231,-0.268l0.229,-0.269l0.228,-0.271l0.226,-0.272l0.225,-0.274l0.222,-0.275l0.222,-0.276l0.219,-0.278l0.218,-0.279l0.216,-0.28l0.215,-0.282l0.213,-0.283l0.211,-0.284l0.21,-0.286l0.208,-0.286l0.206,-0.289l0.205,-0.289l0.203,-0.291l0.201,-0.292l0.2,-0.293l0.197,-0.295l0.196,-0.295l0.195,-0.298l0.192,-0.298l0.191,-0.299l0.189,-0.301l0.188,-0.302l0.185,-0.303l0.184,-0.304l0.182,-0.306l0.18,-0.307l0.178,-0.308l0.177,-0.309l0.175,-0.31l0.173,-0.311l0.171,-0.313l0.169,-0.313l0.167,-0.315l0.166,-0.316l0.164,-0.317l0.161,-0.318l0.16,-0.32l0.158,-0.32l0.157,-0.321l0.154,-0.323l0.152,-0.323l0.151,-0.325l0.148,-0.326l0.147,-0.327l0.145,-0.327l0.142,-0.329l0.141,-0.33l0.139,-0.331l0.137,-0.332l0.135,-0.333l0.133,-0.334l0.131,-0.335l0.129,-0.336l0.127,-0.337l0.125,-0.338l0.123,-0.339l0.121,-0.339l0.119,-0.341l0.117,-0.342l0.115,-0.343l0.113,-0.343l0.11,-0.345l0.109,-0.345l0.107,-0.346l0.104,-0.348l0.103,-0.348l0.1,-0.349l0.098,-0.35l0.097,-0.35l0.094,-0.352l0.092,-0.353l0.089,-0.353l0.088,-0.354l0.086,-0.355l0.083,-0.356l0.081,-0.357l0.079,-0.357l0.077,-0.358l0.075,-0.359l0.073,-0.36l0.07,-0.361l0.068,-0.361l0.066,-0.363l0.064,-0.363l0.061,-0.363l0.06,-0.365l0.057,-0.365l0.054,-0.366l0.053,-0.367l0.05,-0.367l0.048,-0.368l0.046,-0.369l0.044,-0.369l0.041,-0.371l0.039,-0.371l0.036,-0.371l0.035,-0.372l0.031,-0.373l0.03,-0.374l0.027,-0.374l0.025,-0.375l0.023,-0.375l0.02,-0.376l0.018,-0.377l0.016,-0.377l0.013,-0.378l0.011,-0.379l0.008,-0.379l0.006,-0.38l0.004,-0.38l0.001,-0.381l-0.001,-0.381l-0.004,-0.38l-0.006,-0.38l-0.008,-0.379l-0.011,-0.378l-0.013,-0.378l-0.016,-0.378l-0.018,-0.376l-0.02,-0.376l-0.023,-0.376l-0.025,-0.375l-0.027,-0.374l-0.03,-0.373l-0.031,-0.373l-0.035,-0.373l-0.036,-0.371l-0.039,-0.371l-0.041,-0.37l-0.044,-0.37l-0.046,-0.369l-0.048,-0.368l-0.05,-0.367l-0.053,-0.367l-0.054,-0.366l-0.057,-0.365l-0.06,-0.364l-0.061,-0.364l-0.064,-0.363l-0.066,-0.362l-0.068,-0.362l-0.07,-0.36l-0.073,-0.36l-0.075,-0.359l-0.077,-0.359l-0.079,-0.357l-0.081,-0.357l-0.083,-0.356l-0.086,-0.355l-0.088,-0.354l-0.089,-0.353l-0.092,-0.353l-0.094,-0.351l-0.097,-0.351l-0.098,-0.35l-0.1,-0.349l-0.103,-0.348l-0.104,-0.347l-0.107,-0.347l-0.109,-0.345l-0.11,-0.345l-0.113,-0.343l-0.115,-0.343l-0.117,-0.342l-0.119,-0.34l-0.121,-0.34l-0.123,-0.339l-0.125,-0.338l-0.127,-0.337l-0.129,-0.336l-0.131,-0.335l-0.133,-0.334l-0.135,-0.333l-0.137,-0.332l-0.139,-0.33l-0.141,-0.33l-0.142,-0.329l-0.145,-0.328l-0.147,-0.327l-0.148,-0.326l-0.151,-0.324l-0.152,-0.324l-0.154,-0.322l-0.157,-0.322l-0.158,-0.32l-0.16,-0.319l-0.161,-0.319l-0.164,-0.317l-0.166,-0.316l-0.167,-0.314l-0.169,-0.314l-0.171,-0.313l-0.173,-0.311l-0.175,-0.31l-0.177,-0.309l-0.178,-0.308l-0.18,-0.307l-0.182,-0.305l-0.184,-0.305l-0.185,-0.303l-0.188,-0.302l-0.189,-0.3l-0.191,-0.3l-0.192,-0.298l-0.195,-0.297l-0.196,-0.296l-0.197,-0.295l-0.2,-0.293l-0.201,-0.292l-0.203,-0.291l-0.205,-0.289l-0.206,-0.288l-0.208,-0.287l-0.21,-0.286l-0.211,-0.284l-0.213,-0.283l-0.215,-0.282l-0.216,-0.28l-0.218,-0.279l-0.219,-0.278l-0.222,-0.276l-0.222,-0.275l-0.225,-0.273l-0.226,-0.273l-0.228,-0.27l-0.229,-0.27l-0.231,-0.268l-0.232,-0.267l-0.234,-0.265l-0.235,-0.264l-0.238,-0.262l-0.238,-0.261l-0.24,-0.259l-0.242,-0.258l-0.243,-0.257l-0.245,-0.255l-0.246,-0.254l-0.248,-0.252l-0.249,-0.251l-0.251,-0.249l-0.252,-0.248l-0.254,-0.246l-0.255,-0.245l-0.257,-0.243l-0.258,-0.242l-0.259,-0.24l-0.261,-0.239l-0.263,-0.237l-0.263,-0.235l-0.266,-0.234l-0.266,-0.233l-0.268,-0.23l-0.27,-0.23l-0.27,-0.227l-0.273,-0.226l-0.273,-0.225l-0.275,-0.223l-0.276,-0.221l-0.278,-0.219l-0.279,-0.218l-0.28,-0.217l-0.282,-0.214l-0.283,-0.213l-0.284,-0.212l-0.286,-0.209l-0.287,-0.208l-0.288,-0.207l-0.289,-0.204l-0.291,-0.203l-0.292,-0.201l-0.294,-0.2l-0.294,-0.198l-0.296,-0.196l-0.297,-0.194l-0.298,-0.192l-0.3,-0.191l-0.3,-0.189l-0.302,-0.188l-0.303,-0.185l-0.305,-0.184l-0.305,-0.182l-0.307,-0.18l-0.308,-0.178l-0.309,-0.177l-0.31,-0.175l-0.312,-0.173l-0.312,-0.171l-0.314,-0.169l-0.315,-0.167l-0.315,-0.166l-0.318,-0.164l-0.318,-0.161l-0.319,-0.16l-0.32,-0.159l-0.322,-0.156l-0.322,-0.154l-0.324,-0.152l-0.325,-0.151l-0.325,-0.148l-0.327,-0.147l-0.328,-0.145l-0.329,-0.143l-0.33,-0.14l-0.331,-0.139l-0.332,-0.137l-0.332,-0.135l-0.334,-0.133l-0.335,-0.131l-0.336,-0.129l-0.337,-0.127l-0.338,-0.125l-0.339,-0.123l-0.34,-0.121l-0.341,-0.119l-0.341,-0.117l-0.343,-0.115l-0.344,-0.113l-0.344,-0.11l-0.345,-0.109l-0.347,-0.107l-0.347,-0.104l-0.348,-0.103l-0.349,-0.1l-0.35,-0.098l-0.351,-0.097l-0.351,-0.094l-0.353,-0.092l-0.353,-0.09l-0.354,-0.087l-0.355,-0.086l-0.356,-0.083l-0.357,-0.081l-0.357,-0.079l-0.359,-0.077l-0.359,-0.075l-0.36,-0.073l-0.36,-0.07l-0.362,-0.068l-0.362,-0.066l-0.363,-0.064l-0.364,-0.061l-0.364,-0.06l-0.365,-0.057l-0.366,-0.055l-0.367,-0.052l-0.367,-0.05l-0.369,-0.048l-0.368,-0.046l-0.37,-0.044l-0.37,-0.041l-0.371,-0.039l-0.372,-0.036l-0.372,-0.035l-0.373,-0.032l-0.373,-0.029l-0.374,-0.028l-0.375,-0.025l-0.376,-0.022l-0.376,-0.02l-0.377,-0.018l-0.377,-0.016l-0.378,-0.013l-0.378,-0.011l-0.379,-0.008l-0.38,-0.006l-0.38,-0.004l-0.381,-0.001l-0.381,0.001Z"/><circle cx="407.937" cy="350.611" r="58.926" style="fill:#11b100;"/><path d="M408.336,288.827l0.398,0.003l0.398,0.007l0.397,0.009l0.397,0.011l0.396,0.014l0.395,0.016l0.395,0.019l0.394,0.021l0.394,0.024l0.393,0.026l0.392,0.029l0.391,0.031l0.391,0.033l0.391,0.036l0.389,0.039l0.389,0.04l0.388,0.044l0.388,0.045l0.386,0.048l0.386,0.05l0.386,0.053l0.384,0.055l0.384,0.058l0.383,0.06l0.382,0.062l0.382,0.064l0.38,0.067l0.38,0.069l0.379,0.072l0.378,0.074l0.378,0.076l0.376,0.078l0.376,0.081l0.375,0.083l0.374,0.085l0.374,0.087l0.372,0.09l0.371,0.092l0.371,0.094l0.37,0.097l0.369,0.098l0.368,0.101l0.366,0.103l0.367,0.106l0.365,0.107l0.364,0.11l0.363,0.112l0.363,0.114l0.361,0.116l0.36,0.118l0.36,0.121l0.358,0.122l0.358,0.125l0.356,0.127l0.356,0.129l0.354,0.131l0.353,0.133l0.353,0.136l0.351,0.137l0.35,0.14l0.35,0.141l0.348,0.144l0.347,0.145l0.346,0.148l0.345,0.15l0.343,0.152l0.343,0.153l0.342,0.156l0.34,0.158l0.34,0.16l0.338,0.162l0.337,0.163l0.336,0.166l0.335,0.168l0.333,0.17l0.333,0.171l0.331,0.174l0.33,0.176l0.329,0.177l0.328,0.179l0.326,0.182l0.326,0.183l0.324,0.185l0.323,0.187l0.321,0.189l0.321,0.191l0.319,0.192l0.318,0.195l0.316,0.196l0.315,0.199l0.314,0.2l0.313,0.201l0.312,0.204l0.31,0.206l0.308,0.207l0.308,0.209l0.306,0.211l0.305,0.213l0.303,0.214l0.302,0.217l0.301,0.218l0.3,0.22l0.298,0.221l0.296,0.223l0.295,0.225l0.294,0.227l0.293,0.229l0.291,0.23l0.289,0.232l0.289,0.233l0.286,0.236l0.286,0.236l0.284,0.239l0.282,0.24l0.281,0.242l0.279,0.244l0.278,0.245l0.277,0.247l0.275,0.249l0.273,0.25l0.273,0.251l0.27,0.254l0.269,0.255l0.267,0.256l0.266,0.258l0.265,0.26l0.262,0.261l0.262,0.263l0.259,0.264l0.259,0.266l0.256,0.268l0.255,0.269l0.253,0.27l0.252,0.272l0.25,0.274l0.249,0.275l0.246,0.276l0.246,0.278l0.243,0.28l0.242,0.281l0.241,0.282l0.238,0.284l0.237,0.285l0.236,0.287l0.233,0.288l0.232,0.29l0.23,0.291l0.228,0.292l0.227,0.294l0.225,0.296l0.224,0.296l0.221,0.298l0.22,0.299l0.218,0.301l0.216,0.302l0.215,0.304l0.212,0.305l0.211,0.306l0.21,0.307l0.207,0.309l0.206,0.31l0.203,0.312l0.202,0.312l0.2,0.314l0.198,0.316l0.197,0.316l0.194,0.318l0.193,0.319l0.191,0.321l0.189,0.321l0.187,0.323l0.185,0.324l0.183,0.325l0.181,0.327l0.18,0.328l0.177,0.328l0.176,0.331l0.173,0.331l0.172,0.332l0.17,0.334l0.167,0.335l0.166,0.336l0.164,0.337l0.162,0.338l0.16,0.339l0.158,0.341l0.155,0.341l0.154,0.343l0.152,0.344l0.15,0.345l0.147,0.346l0.146,0.347l0.144,0.348l0.141,0.35l0.14,0.35l0.137,0.351l0.135,0.352l0.134,0.354l0.131,0.354l0.129,0.356l0.127,0.356l0.124,0.357l0.123,0.359l0.12,0.359l0.119,0.361l0.116,0.361l0.114,0.362l0.112,0.364l0.11,0.364l0.107,0.365l0.105,0.366l0.103,0.367l0.101,0.368l0.099,0.369l0.096,0.37l0.095,0.37l0.092,0.372l0.089,0.372l0.088,0.373l0.085,0.374l0.083,0.375l0.081,0.376l0.078,0.377l0.076,0.377l0.074,0.379l0.071,0.379l0.07,0.38l0.066,0.38l0.065,0.382l0.062,0.382l0.06,0.383l0.057,0.384l0.055,0.384l0.053,0.385l0.051,0.386l0.048,0.387l0.045,0.387l0.043,0.389l0.041,0.389l0.039,0.389l0.035,0.39l0.034,0.391l0.031,0.392l0.029,0.392l0.026,0.393l0.024,0.394l0.021,0.394l0.019,0.394l0.016,0.396l0.014,0.396l0.011,0.397l0.009,0.397l0.006,0.398l0.004,0.398l0.001,0.399l-0.001,0.399l-0.004,0.398l-0.006,0.398l-0.009,0.398l-0.011,0.396l-0.014,0.396l-0.016,0.396l-0.019,0.394l-0.021,0.395l-0.024,0.393l-0.026,0.393l-0.029,0.392l-0.031,0.392l-0.034,0.391l-0.035,0.39l-0.039,0.39l-0.041,0.388l-0.043,0.389l-0.045,0.387l-0.048,0.387l-0.051,0.386l-0.053,0.385l-0.055,0.385l-0.057,0.383l-0.06,0.383l-0.062,0.383l-0.065,0.381l-0.066,0.381l-0.07,0.38l-0.071,0.379l-0.074,0.378l-0.076,0.378l-0.078,0.376l-0.081,0.376l-0.083,0.375l-0.085,0.374l-0.088,0.373l-0.089,0.373l-0.092,0.371l-0.095,0.371l-0.096,0.369l-0.099,0.369l-0.101,0.368l-0.103,0.367l-0.105,0.366l-0.107,0.365l-0.11,0.365l-0.112,0.363l-0.114,0.362l-0.116,0.362l-0.119,0.36l-0.12,0.359l-0.123,0.359l-0.124,0.357l-0.127,0.357l-0.129,0.355l-0.131,0.354l-0.134,0.354l-0.135,0.352l-0.137,0.352l-0.14,0.35l-0.141,0.349l-0.144,0.348l-0.146,0.347l-0.147,0.346l-0.15,0.345l-0.152,0.344l-0.154,0.343l-0.155,0.341l-0.158,0.341l-0.16,0.339l-0.162,0.338l-0.164,0.338l-0.166,0.336l-0.167,0.334l-0.17,0.334l-0.172,0.332l-0.173,0.332l-0.176,0.33l-0.177,0.329l-0.18,0.328l-0.181,0.326l-0.183,0.325l-0.185,0.324l-0.187,0.323l-0.189,0.322l-0.191,0.32l-0.193,0.319l-0.194,0.318l-0.197,0.317l-0.198,0.315l-0.2,0.314l-0.202,0.313l-0.204,0.311l-0.205,0.31l-0.207,0.309l-0.21,0.307l-0.211,0.307l-0.212,0.304l-0.215,0.304l-0.216,0.302l-0.218,0.301l-0.22,0.299l-0.221,0.298l-0.224,0.297l-0.225,0.295l-0.227,0.294l-0.228,0.292l-0.23,0.291l-0.232,0.29l-0.233,0.288l-0.236,0.287l-0.237,0.285l-0.238,0.284l-0.241,0.283l-0.242,0.281l-0.243,0.279l-0.245,0.278l-0.247,0.276l-0.249,0.276l-0.25,0.273l-0.252,0.272l-0.253,0.271l-0.255,0.268l-0.256,0.268l-0.259,0.266l-0.259,0.264l-0.262,0.263l-0.262,0.261l-0.265,0.26l-0.266,0.258l-0.267,0.257l-0.269,0.255l-0.271,0.253l-0.272,0.252l-0.273,0.25l-0.275,0.248l-0.277,0.247l-0.278,0.245l-0.279,0.244l-0.281,0.242l-0.282,0.24l-0.284,0.239l-0.286,0.237l-0.286,0.235l-0.289,0.234l-0.289,0.231l-0.291,0.231l-0.293,0.228l-0.293,0.227l-0.296,0.225l-0.297,0.223l-0.297,0.222l-0.3,0.219l-0.301,0.219l-0.302,0.216l-0.303,0.214l-0.305,0.213l-0.306,0.211l-0.308,0.209l-0.308,0.208l-0.311,0.205l-0.311,0.204l-0.313,0.202l-0.314,0.2l-0.315,0.198l-0.317,0.196l-0.317,0.195l-0.319,0.193l-0.321,0.19l-0.321,0.189l-0.323,0.187l-0.324,0.185l-0.326,0.184l-0.326,0.181l-0.328,0.179l-0.329,0.178l-0.33,0.175l-0.331,0.174l-0.333,0.172l-0.333,0.169l-0.335,0.168l-0.336,0.166l-0.337,0.164l-0.338,0.161l-0.34,0.16l-0.34,0.158l-0.342,0.156l-0.343,0.154l-0.343,0.151l-0.345,0.15l-0.346,0.148l-0.347,0.146l-0.349,0.143l-0.349,0.142l-0.35,0.139l-0.351,0.138l-0.353,0.135l-0.353,0.133l-0.354,0.131l-0.356,0.129l-0.356,0.127l-0.358,0.125l-0.358,0.122l-0.36,0.121l-0.36,0.118l-0.361,0.117l-0.363,0.114l-0.363,0.111l-0.364,0.11l-0.365,0.108l-0.366,0.105l-0.368,0.103l-0.367,0.101l-0.369,0.099l-0.37,0.096l-0.371,0.094l-0.371,0.092l-0.372,0.09l-0.374,0.087l-0.374,0.086l-0.375,0.083l-0.376,0.08l-0.376,0.079l-0.378,0.076l-0.378,0.074l-0.379,0.071l-0.38,0.069l-0.38,0.067l-0.382,0.065l-0.382,0.062l-0.383,0.059l-0.384,0.058l-0.384,0.055l-0.386,0.053l-0.386,0.05l-0.386,0.048l-0.388,0.046l-0.388,0.043l-0.389,0.041l-0.39,0.038l-0.39,0.036l-0.391,0.034l-0.391,0.031l-0.392,0.028l-0.393,0.026l-0.394,0.024l-0.394,0.021l-0.395,0.019l-0.395,0.017l-0.396,0.013l-0.397,0.012l-0.397,0.009l-0.398,0.006l-0.398,0.004l-0.399,0.001l-0.399,-0.001l-0.399,-0.004l-0.398,-0.006l-0.397,-0.009l-0.397,-0.012l-0.395,-0.013l-0.396,-0.017l-0.395,-0.019l-0.394,-0.021l-0.394,-0.024l-0.392,-0.026l-0.393,-0.028l-0.391,-0.031l-0.391,-0.034l-0.39,-0.036l-0.39,-0.038l-0.389,-0.041l-0.388,-0.043l-0.388,-0.046l-0.386,-0.048l-0.386,-0.05l-0.385,-0.053l-0.385,-0.055l-0.384,-0.058l-0.383,-0.059l-0.382,-0.062l-0.381,-0.065l-0.381,-0.067l-0.38,-0.069l-0.379,-0.071l-0.378,-0.074l-0.378,-0.076l-0.376,-0.079l-0.376,-0.08l-0.375,-0.083l-0.374,-0.086l-0.373,-0.087l-0.373,-0.09l-0.371,-0.092l-0.371,-0.094l-0.37,-0.096l-0.369,-0.099l-0.367,-0.101l-0.367,-0.103l-0.367,-0.105l-0.365,-0.108l-0.364,-0.11l-0.363,-0.111l-0.362,-0.114l-0.362,-0.117l-0.36,-0.118l-0.36,-0.121l-0.358,-0.122l-0.357,-0.125l-0.357,-0.127l-0.355,-0.129l-0.355,-0.131l-0.353,-0.133l-0.353,-0.135l-0.351,-0.138l-0.35,-0.139l-0.349,-0.142l-0.349,-0.143l-0.347,-0.146l-0.346,-0.148l-0.345,-0.15l-0.343,-0.151l-0.343,-0.154l-0.342,-0.156l-0.34,-0.158l-0.34,-0.16l-0.338,-0.161l-0.337,-0.164l-0.336,-0.166l-0.335,-0.168l-0.333,-0.169l-0.333,-0.172l-0.331,-0.174l-0.33,-0.175l-0.329,-0.178l-0.328,-0.179l-0.326,-0.181l-0.326,-0.184l-0.324,-0.185l-0.322,-0.187l-0.322,-0.189l-0.32,-0.191l-0.32,-0.192l-0.317,-0.195l-0.317,-0.196l-0.315,-0.198l-0.314,-0.2l-0.313,-0.202l-0.311,-0.204l-0.31,-0.205l-0.309,-0.208l-0.308,-0.209l-0.306,-0.211l-0.305,-0.213l-0.303,-0.214l-0.302,-0.216l-0.301,-0.219l-0.3,-0.219l-0.297,-0.222l-0.297,-0.223l-0.295,-0.225l-0.294,-0.227l-0.293,-0.228l-0.291,-0.231l-0.289,-0.231l-0.288,-0.234l-0.287,-0.235l-0.286,-0.237l-0.283,-0.239l-0.283,-0.24l-0.281,-0.242l-0.279,-0.244l-0.278,-0.245l-0.277,-0.247l-0.275,-0.248l-0.273,-0.25l-0.272,-0.252l-0.271,-0.253l-0.269,-0.255l-0.267,-0.257l-0.266,-0.258l-0.265,-0.26l-0.262,-0.261l-0.262,-0.263l-0.259,-0.264l-0.258,-0.266l-0.257,-0.268l-0.255,-0.268l-0.253,-0.271l-0.252,-0.272l-0.25,-0.273l-0.249,-0.275l-0.246,-0.277l-0.246,-0.278l-0.243,-0.279l-0.242,-0.282l-0.24,-0.282l-0.239,-0.284l-0.237,-0.285l-0.235,-0.287l-0.234,-0.288l-0.232,-0.29l-0.23,-0.291l-0.228,-0.292l-0.227,-0.294l-0.225,-0.295l-0.223,-0.297l-0.222,-0.298l-0.22,-0.299l-0.218,-0.301l-0.216,-0.302l-0.215,-0.304l-0.212,-0.304l-0.211,-0.307l-0.209,-0.307l-0.208,-0.309l-0.205,-0.31l-0.204,-0.311l-0.202,-0.313l-0.2,-0.314l-0.198,-0.315l-0.197,-0.317l-0.194,-0.318l-0.193,-0.319l-0.191,-0.32l-0.188,-0.322l-0.188,-0.323l-0.185,-0.324l-0.183,-0.325l-0.181,-0.327l-0.18,-0.327l-0.177,-0.329l-0.176,-0.33l-0.173,-0.331l-0.172,-0.333l-0.17,-0.334l-0.167,-0.335l-0.166,-0.336l-0.164,-0.336l-0.162,-0.339l-0.16,-0.339l-0.157,-0.341l-0.156,-0.341l-0.154,-0.343l-0.152,-0.344l-0.149,-0.345l-0.148,-0.346l-0.146,-0.347l-0.143,-0.348l-0.142,-0.349l-0.14,-0.351l-0.137,-0.351l-0.135,-0.352l-0.133,-0.354l-0.131,-0.354l-0.13,-0.355l-0.126,-0.357l-0.125,-0.357l-0.123,-0.359l-0.12,-0.359l-0.119,-0.36l-0.116,-0.362l-0.114,-0.362l-0.112,-0.363l-0.109,-0.364l-0.108,-0.366l-0.105,-0.366l-0.103,-0.367l-0.101,-0.368l-0.099,-0.369l-0.096,-0.369l-0.095,-0.371l-0.092,-0.371l-0.089,-0.373l-0.088,-0.373l-0.085,-0.374l-0.083,-0.375l-0.081,-0.376l-0.078,-0.377l-0.076,-0.377l-0.074,-0.378l-0.071,-0.379l-0.069,-0.38l-0.067,-0.381l-0.065,-0.381l-0.062,-0.383l-0.06,-0.383l-0.057,-0.383l-0.055,-0.385l-0.053,-0.385l-0.05,-0.386l-0.048,-0.387l-0.046,-0.387l-0.043,-0.388l-0.041,-0.389l-0.038,-0.39l-0.036,-0.39l-0.034,-0.391l-0.031,-0.391l-0.029,-0.393l-0.026,-0.393l-0.023,-0.393l-0.022,-0.395l-0.019,-0.394l-0.016,-0.396l-0.014,-0.396l-0.011,-0.397l-0.009,-0.397l-0.006,-0.397l-0.004,-0.399l-0.001,-0.399l0.001,-0.399l0.004,-0.398l0.006,-0.398l0.009,-0.397l0.011,-0.397l0.014,-0.396l0.016,-0.395l0.019,-0.395l0.022,-0.394l0.023,-0.394l0.026,-0.393l0.029,-0.392l0.031,-0.392l0.034,-0.391l0.036,-0.39l0.038,-0.389l0.041,-0.389l0.043,-0.388l0.046,-0.388l0.048,-0.387l0.05,-0.386l0.053,-0.385l0.055,-0.384l0.057,-0.384l0.06,-0.383l0.062,-0.382l0.065,-0.382l0.067,-0.38l0.069,-0.38l0.071,-0.38l0.074,-0.378l0.076,-0.377l0.078,-0.377l0.081,-0.376l0.083,-0.374l0.085,-0.375l0.088,-0.373l0.089,-0.372l0.092,-0.372l0.095,-0.37l0.096,-0.37l0.099,-0.369l0.101,-0.368l0.103,-0.367l0.105,-0.366l0.108,-0.365l0.109,-0.364l0.112,-0.363l0.114,-0.363l0.116,-0.361l0.119,-0.361l0.12,-0.359l0.123,-0.358l0.125,-0.358l0.126,-0.356l0.129,-0.356l0.132,-0.354l0.133,-0.354l0.135,-0.352l0.137,-0.351l0.14,-0.351l0.142,-0.349l0.143,-0.348l0.146,-0.347l0.148,-0.346l0.149,-0.345l0.152,-0.344l0.154,-0.343l0.156,-0.341l0.157,-0.341l0.16,-0.339l0.162,-0.338l0.164,-0.337l0.166,-0.336l0.167,-0.335l0.17,-0.334l0.172,-0.332l0.173,-0.331l0.176,-0.331l0.177,-0.328l0.18,-0.328l0.181,-0.327l0.183,-0.325l0.186,-0.324l0.187,-0.323l0.188,-0.321l0.191,-0.321l0.193,-0.319l0.194,-0.318l0.197,-0.316l0.198,-0.316l0.2,-0.314l0.202,-0.312l0.204,-0.312l0.205,-0.31l0.208,-0.309l0.209,-0.307l0.211,-0.306l0.212,-0.305l0.215,-0.304l0.216,-0.302l0.218,-0.3l0.22,-0.3l0.222,-0.298l0.223,-0.297l0.225,-0.295l0.227,-0.294l0.228,-0.292l0.23,-0.291l0.232,-0.29l0.234,-0.288l0.235,-0.287l0.237,-0.285l0.239,-0.284l0.24,-0.282l0.242,-0.281l0.243,-0.28l0.246,-0.278l0.246,-0.276l0.249,-0.275l0.25,-0.274l0.252,-0.272l0.253,-0.27l0.255,-0.269l0.257,-0.268l0.258,-0.266l0.259,-0.264l0.262,-0.263l0.262,-0.261l0.265,-0.26l0.266,-0.258l0.267,-0.256l0.269,-0.255l0.271,-0.254l0.272,-0.251l0.273,-0.25l0.275,-0.249l0.277,-0.247l0.278,-0.245l0.279,-0.244l0.281,-0.242l0.283,-0.24l0.283,-0.238l0.286,-0.237l0.286,-0.236l0.289,-0.233l0.289,-0.232l0.291,-0.23l0.293,-0.229l0.294,-0.227l0.295,-0.225l0.297,-0.223l0.298,-0.221l0.299,-0.22l0.301,-0.218l0.302,-0.217l0.303,-0.214l0.305,-0.213l0.306,-0.211l0.308,-0.209l0.308,-0.207l0.311,-0.206l0.311,-0.204l0.313,-0.201l0.314,-0.2l0.315,-0.199l0.317,-0.196l0.318,-0.195l0.319,-0.192l0.32,-0.191l0.322,-0.189l0.322,-0.187l0.324,-0.185l0.326,-0.183l0.326,-0.182l0.328,-0.179l0.329,-0.177l0.33,-0.176l0.331,-0.174l0.333,-0.171l0.333,-0.17l0.335,-0.168l0.336,-0.166l0.337,-0.163l0.338,-0.162l0.34,-0.16l0.34,-0.158l0.342,-0.156l0.343,-0.153l0.344,-0.152l0.344,-0.15l0.346,-0.148l0.347,-0.145l0.349,-0.144l0.349,-0.141l0.35,-0.14l0.351,-0.137l0.353,-0.136l0.353,-0.133l0.355,-0.131l0.355,-0.129l0.356,-0.127l0.358,-0.125l0.358,-0.122l0.36,-0.121l0.36,-0.118l0.361,-0.116l0.363,-0.114l0.363,-0.112l0.364,-0.11l0.366,-0.107l0.366,-0.106l0.366,-0.103l0.368,-0.101l0.369,-0.098l0.37,-0.097l0.371,-0.094l0.371,-0.092l0.373,-0.09l0.373,-0.087l0.374,-0.085l0.375,-0.083l0.376,-0.081l0.376,-0.078l0.378,-0.076l0.378,-0.074l0.379,-0.072l0.38,-0.069l0.381,-0.067l0.381,-0.064l0.382,-0.062l0.383,-0.06l0.384,-0.058l0.384,-0.055l0.386,-0.053l0.386,-0.05l0.387,-0.048l0.387,-0.045l0.388,-0.044l0.389,-0.04l0.39,-0.039l0.39,-0.036l0.391,-0.033l0.391,-0.031l0.393,-0.029l0.393,-0.026l0.393,-0.024l0.394,-0.021l0.395,-0.019l0.395,-0.016l0.396,-0.014l0.397,-0.011l0.397,-0.009l0.398,-0.007l0.399,-0.003l0.399,-0.002l0.399,0.002Zm-0.78,2.859l-0.381,0.004l-0.379,0.006l-0.379,0.008l-0.379,0.011l-0.378,0.013l-0.377,0.016l-0.377,0.018l-0.376,0.02l-0.375,0.022l-0.375,0.025l-0.374,0.028l-0.374,0.029l-0.373,0.032l-0.372,0.035l-0.372,0.036l-0.371,0.039l-0.37,0.041l-0.369,0.044l-0.369,0.046l-0.368,0.048l-0.368,0.05l-0.366,0.052l-0.366,0.055l-0.366,0.057l-0.364,0.06l-0.364,0.061l-0.363,0.064l-0.362,0.066l-0.361,0.068l-0.361,0.07l-0.36,0.073l-0.359,0.075l-0.358,0.077l-0.358,0.079l-0.356,0.081l-0.356,0.083l-0.355,0.086l-0.354,0.087l-0.354,0.09l-0.352,0.092l-0.352,0.094l-0.351,0.097l-0.35,0.098l-0.349,0.1l-0.348,0.103l-0.347,0.104l-0.346,0.107l-0.346,0.109l-0.344,0.11l-0.344,0.113l-0.342,0.115l-0.342,0.117l-0.341,0.119l-0.34,0.121l-0.339,0.123l-0.337,0.125l-0.337,0.127l-0.336,0.129l-0.335,0.131l-0.334,0.133l-0.333,0.135l-0.332,0.137l-0.331,0.139l-0.33,0.14l-0.329,0.143l-0.328,0.145l-0.326,0.147l-0.326,0.148l-0.325,0.151l-0.323,0.152l-0.323,0.154l-0.321,0.156l-0.321,0.159l-0.319,0.16l-0.318,0.161l-0.317,0.164l-0.316,0.166l-0.315,0.167l-0.314,0.169l-0.312,0.171l-0.311,0.173l-0.311,0.175l-0.309,0.177l-0.308,0.178l-0.306,0.18l-0.306,0.182l-0.304,0.184l-0.303,0.185l-0.302,0.188l-0.301,0.189l-0.299,0.191l-0.299,0.192l-0.297,0.194l-0.296,0.196l-0.294,0.198l-0.293,0.2l-0.292,0.201l-0.291,0.203l-0.29,0.204l-0.288,0.207l-0.287,0.208l-0.285,0.209l-0.285,0.212l-0.283,0.213l-0.281,0.214l-0.281,0.217l-0.279,0.218l-0.277,0.219l-0.277,0.221l-0.274,0.223l-0.274,0.225l-0.272,0.226l-0.271,0.227l-0.269,0.23l-0.268,0.23l-0.267,0.233l-0.265,0.234l-0.264,0.235l-0.263,0.237l-0.26,0.239l-0.26,0.24l-0.258,0.242l-0.257,0.243l-0.255,0.245l-0.254,0.246l-0.252,0.248l-0.25,0.249l-0.25,0.251l-0.247,0.252l-0.247,0.254l-0.244,0.255l-0.244,0.257l-0.241,0.258l-0.241,0.259l-0.238,0.261l-0.237,0.262l-0.236,0.264l-0.234,0.265l-0.232,0.267l-0.231,0.268l-0.229,0.27l-0.228,0.27l-0.226,0.273l-0.224,0.273l-0.223,0.275l-0.221,0.276l-0.22,0.278l-0.218,0.279l-0.216,0.28l-0.215,0.282l-0.213,0.283l-0.211,0.284l-0.21,0.286l-0.208,0.287l-0.206,0.288l-0.205,0.289l-0.203,0.291l-0.201,0.292l-0.199,0.293l-0.198,0.295l-0.196,0.296l-0.194,0.297l-0.193,0.298l-0.191,0.3l-0.189,0.3l-0.187,0.302l-0.186,0.303l-0.183,0.305l-0.182,0.305l-0.181,0.307l-0.178,0.308l-0.177,0.309l-0.174,0.31l-0.173,0.311l-0.171,0.313l-0.17,0.314l-0.167,0.314l-0.166,0.316l-0.163,0.317l-0.162,0.319l-0.16,0.319l-0.158,0.32l-0.156,0.322l-0.155,0.322l-0.152,0.324l-0.15,0.324l-0.149,0.326l-0.147,0.327l-0.144,0.328l-0.143,0.329l-0.141,0.33l-0.139,0.33l-0.137,0.332l-0.135,0.333l-0.133,0.334l-0.131,0.335l-0.129,0.336l-0.127,0.337l-0.125,0.338l-0.123,0.339l-0.121,0.34l-0.119,0.34l-0.117,0.342l-0.114,0.343l-0.113,0.343l-0.111,0.345l-0.109,0.345l-0.106,0.347l-0.105,0.347l-0.102,0.348l-0.101,0.349l-0.098,0.35l-0.096,0.351l-0.094,0.351l-0.092,0.353l-0.09,0.353l-0.088,0.354l-0.085,0.355l-0.084,0.356l-0.081,0.357l-0.079,0.357l-0.077,0.359l-0.075,0.359l-0.072,0.36l-0.071,0.36l-0.068,0.362l-0.066,0.362l-0.063,0.363l-0.062,0.364l-0.059,0.364l-0.057,0.365l-0.055,0.366l-0.053,0.367l-0.05,0.367l-0.048,0.368l-0.046,0.369l-0.043,0.37l-0.041,0.37l-0.039,0.371l-0.037,0.371l-0.034,0.373l-0.032,0.373l-0.03,0.373l-0.027,0.374l-0.025,0.375l-0.023,0.376l-0.02,0.376l-0.018,0.376l-0.016,0.378l-0.013,0.378l-0.011,0.378l-0.008,0.379l-0.006,0.38l-0.004,0.38l-0.001,0.381l0.001,0.381l0.004,0.38l0.006,0.38l0.008,0.379l0.011,0.379l0.013,0.378l0.016,0.377l0.018,0.377l0.02,0.376l0.023,0.375l0.025,0.375l0.027,0.374l0.03,0.374l0.032,0.373l0.034,0.372l0.037,0.371l0.039,0.371l0.041,0.371l0.043,0.369l0.046,0.369l0.048,0.368l0.05,0.367l0.053,0.367l0.055,0.366l0.057,0.365l0.059,0.365l0.062,0.363l0.063,0.363l0.066,0.363l0.068,0.361l0.071,0.361l0.072,0.36l0.075,0.359l0.077,0.358l0.079,0.357l0.081,0.357l0.084,0.356l0.085,0.355l0.088,0.354l0.09,0.353l0.092,0.353l0.094,0.352l0.096,0.35l0.098,0.35l0.101,0.349l0.102,0.348l0.105,0.348l0.106,0.346l0.109,0.345l0.111,0.345l0.113,0.343l0.114,0.343l0.117,0.342l0.119,0.341l0.121,0.339l0.123,0.339l0.125,0.338l0.127,0.337l0.129,0.336l0.131,0.335l0.133,0.334l0.135,0.333l0.137,0.332l0.139,0.331l0.141,0.33l0.143,0.329l0.144,0.327l0.147,0.327l0.149,0.326l0.15,0.325l0.152,0.323l0.155,0.323l0.156,0.321l0.158,0.32l0.16,0.32l0.162,0.318l0.163,0.317l0.166,0.316l0.167,0.315l0.17,0.313l0.171,0.313l0.173,0.311l0.174,0.31l0.177,0.309l0.178,0.308l0.181,0.307l0.182,0.306l0.183,0.304l0.186,0.303l0.187,0.302l0.189,0.301l0.191,0.299l0.193,0.298l0.194,0.298l0.196,0.295l0.198,0.295l0.199,0.293l0.201,0.292l0.203,0.291l0.205,0.289l0.206,0.289l0.208,0.286l0.21,0.286l0.211,0.284l0.213,0.283l0.215,0.282l0.216,0.28l0.218,0.279l0.22,0.278l0.221,0.276l0.223,0.275l0.224,0.274l0.226,0.272l0.228,0.271l0.229,0.269l0.231,0.268l0.232,0.267l0.234,0.265l0.236,0.264l0.237,0.262l0.238,0.261l0.241,0.26l0.241,0.258l0.244,0.256l0.244,0.256l0.247,0.253l0.247,0.252l0.25,0.251l0.25,0.249l0.252,0.248l0.254,0.246l0.255,0.245l0.257,0.243l0.258,0.242l0.26,0.24l0.26,0.239l0.263,0.237l0.264,0.235l0.265,0.234l0.267,0.233l0.268,0.231l0.269,0.229l0.271,0.227l0.272,0.227l0.274,0.224l0.274,0.223l0.277,0.221l0.277,0.22l0.279,0.218l0.281,0.216l0.281,0.214l0.283,0.213l0.285,0.212l0.285,0.21l0.287,0.207l0.288,0.207l0.29,0.204l0.291,0.203l0.292,0.202l0.293,0.199l0.294,0.198l0.296,0.196l0.297,0.194l0.299,0.193l0.299,0.191l0.301,0.189l0.302,0.187l0.303,0.185l0.304,0.184l0.306,0.182l0.306,0.18l0.308,0.179l0.309,0.176l0.311,0.175l0.311,0.173l0.312,0.171l0.314,0.169l0.315,0.168l0.316,0.165l0.317,0.164l0.318,0.162l0.319,0.16l0.321,0.158l0.321,0.156l0.323,0.154l0.323,0.153l0.325,0.15l0.326,0.149l0.326,0.146l0.328,0.145l0.329,0.143l0.33,0.141l0.331,0.139l0.332,0.136l0.333,0.135l0.334,0.133l0.335,0.131l0.336,0.129l0.337,0.127l0.337,0.125l0.339,0.123l0.34,0.121l0.341,0.119l0.342,0.117l0.342,0.115l0.344,0.113l0.344,0.111l0.346,0.108l0.346,0.107l0.347,0.105l0.348,0.102l0.349,0.1l0.35,0.099l0.351,0.096l0.352,0.094l0.352,0.092l0.354,0.09l0.354,0.087l0.355,0.086l0.356,0.083l0.356,0.082l0.358,0.079l0.358,0.077l0.359,0.074l0.36,0.073l0.361,0.07l0.361,0.068l0.362,0.066l0.363,0.064l0.364,0.062l0.364,0.059l0.366,0.057l0.366,0.055l0.366,0.052l0.368,0.051l0.368,0.048l0.369,0.045l0.369,0.044l0.37,0.041l0.371,0.039l0.372,0.037l0.372,0.034l0.373,0.032l0.374,0.03l0.374,0.027l0.375,0.025l0.375,0.022l0.376,0.021l0.377,0.018l0.377,0.015l0.378,0.013l0.379,0.011l0.379,0.009l0.379,0.006l0.381,0.003l0.381,0.001l0.38,-0.001l0.381,-0.003l0.379,-0.006l0.379,-0.009l0.379,-0.011l0.378,-0.013l0.377,-0.015l0.377,-0.018l0.376,-0.021l0.376,-0.022l0.374,-0.025l0.375,-0.027l0.373,-0.03l0.373,-0.032l0.372,-0.034l0.372,-0.037l0.371,-0.039l0.37,-0.041l0.369,-0.044l0.369,-0.045l0.368,-0.048l0.368,-0.051l0.366,-0.052l0.366,-0.055l0.366,-0.057l0.364,-0.059l0.364,-0.062l0.363,-0.064l0.362,-0.066l0.361,-0.068l0.361,-0.07l0.36,-0.073l0.359,-0.074l0.358,-0.077l0.358,-0.079l0.357,-0.082l0.355,-0.083l0.355,-0.086l0.355,-0.087l0.353,-0.09l0.352,-0.092l0.352,-0.094l0.351,-0.096l0.35,-0.099l0.349,-0.1l0.348,-0.102l0.347,-0.105l0.346,-0.107l0.346,-0.108l0.344,-0.111l0.344,-0.113l0.343,-0.115l0.341,-0.117l0.341,-0.119l0.34,-0.121l0.339,-0.123l0.338,-0.125l0.337,-0.127l0.335,-0.129l0.335,-0.131l0.334,-0.133l0.333,-0.135l0.332,-0.136l0.331,-0.139l0.33,-0.141l0.329,-0.143l0.328,-0.145l0.327,-0.146l0.325,-0.149l0.325,-0.15l0.324,-0.153l0.322,-0.154l0.322,-0.156l0.32,-0.158l0.319,-0.16l0.318,-0.162l0.317,-0.164l0.316,-0.165l0.315,-0.168l0.314,-0.169l0.312,-0.171l0.312,-0.173l0.31,-0.175l0.309,-0.176l0.308,-0.179l0.306,-0.18l0.306,-0.182l0.304,-0.184l0.303,-0.185l0.302,-0.187l0.301,-0.189l0.3,-0.191l0.298,-0.193l0.297,-0.194l0.296,-0.196l0.294,-0.198l0.294,-0.199l0.292,-0.202l0.29,-0.203l0.29,-0.204l0.288,-0.207l0.287,-0.207l0.285,-0.21l0.285,-0.212l0.283,-0.213l0.281,-0.214l0.281,-0.216l0.279,-0.218l0.277,-0.22l0.277,-0.221l0.275,-0.223l0.273,-0.224l0.272,-0.227l0.271,-0.227l0.27,-0.229l0.268,-0.231l0.266,-0.233l0.265,-0.234l0.264,-0.235l0.263,-0.237l0.261,-0.239l0.259,-0.24l0.258,-0.242l0.257,-0.243l0.255,-0.245l0.254,-0.246l0.252,-0.248l0.251,-0.249l0.249,-0.251l0.248,-0.252l0.246,-0.253l0.245,-0.256l0.243,-0.256l0.242,-0.258l0.24,-0.26l0.238,-0.261l0.237,-0.262l0.236,-0.264l0.234,-0.265l0.232,-0.267l0.231,-0.268l0.229,-0.269l0.228,-0.271l0.226,-0.272l0.224,-0.274l0.223,-0.275l0.221,-0.276l0.22,-0.278l0.218,-0.279l0.216,-0.28l0.215,-0.282l0.213,-0.283l0.211,-0.284l0.21,-0.286l0.208,-0.286l0.206,-0.289l0.205,-0.289l0.203,-0.291l0.201,-0.292l0.199,-0.293l0.198,-0.295l0.196,-0.295l0.195,-0.298l0.192,-0.298l0.191,-0.299l0.189,-0.301l0.187,-0.302l0.186,-0.303l0.184,-0.304l0.182,-0.306l0.18,-0.307l0.178,-0.308l0.177,-0.309l0.174,-0.31l0.173,-0.311l0.171,-0.313l0.17,-0.313l0.167,-0.315l0.166,-0.316l0.163,-0.317l0.162,-0.318l0.16,-0.32l0.158,-0.32l0.156,-0.321l0.155,-0.323l0.152,-0.323l0.151,-0.325l0.148,-0.326l0.147,-0.327l0.145,-0.327l0.142,-0.329l0.141,-0.33l0.139,-0.331l0.137,-0.332l0.135,-0.333l0.133,-0.334l0.131,-0.335l0.129,-0.336l0.127,-0.337l0.125,-0.338l0.123,-0.339l0.121,-0.339l0.119,-0.341l0.117,-0.342l0.115,-0.343l0.112,-0.343l0.111,-0.345l0.109,-0.345l0.106,-0.346l0.105,-0.348l0.103,-0.348l0.1,-0.349l0.098,-0.35l0.096,-0.35l0.094,-0.352l0.092,-0.353l0.09,-0.353l0.088,-0.354l0.085,-0.355l0.084,-0.356l0.081,-0.357l0.079,-0.357l0.077,-0.358l0.075,-0.359l0.072,-0.36l0.071,-0.361l0.068,-0.361l0.066,-0.363l0.064,-0.363l0.061,-0.363l0.059,-0.365l0.057,-0.365l0.055,-0.366l0.053,-0.367l0.05,-0.367l0.048,-0.368l0.046,-0.369l0.043,-0.369l0.042,-0.371l0.038,-0.371l0.037,-0.371l0.034,-0.372l0.032,-0.373l0.03,-0.374l0.027,-0.374l0.025,-0.375l0.023,-0.375l0.02,-0.376l0.018,-0.377l0.016,-0.377l0.013,-0.378l0.011,-0.379l0.008,-0.379l0.006,-0.38l0.004,-0.38l0.001,-0.381l-0.001,-0.381l-0.004,-0.38l-0.006,-0.38l-0.008,-0.379l-0.011,-0.378l-0.013,-0.378l-0.016,-0.378l-0.018,-0.376l-0.02,-0.376l-0.023,-0.376l-0.025,-0.375l-0.027,-0.374l-0.03,-0.373l-0.032,-0.373l-0.034,-0.373l-0.037,-0.371l-0.038,-0.371l-0.042,-0.37l-0.043,-0.37l-0.046,-0.369l-0.048,-0.368l-0.05,-0.367l-0.053,-0.367l-0.055,-0.366l-0.057,-0.365l-0.059,-0.364l-0.061,-0.364l-0.064,-0.363l-0.066,-0.362l-0.068,-0.362l-0.071,-0.36l-0.072,-0.36l-0.075,-0.359l-0.077,-0.359l-0.079,-0.357l-0.081,-0.357l-0.084,-0.356l-0.085,-0.355l-0.088,-0.354l-0.09,-0.353l-0.092,-0.353l-0.094,-0.351l-0.096,-0.351l-0.098,-0.35l-0.1,-0.349l-0.103,-0.348l-0.105,-0.347l-0.106,-0.347l-0.109,-0.345l-0.111,-0.345l-0.112,-0.343l-0.115,-0.343l-0.117,-0.342l-0.119,-0.34l-0.121,-0.34l-0.123,-0.339l-0.125,-0.338l-0.127,-0.337l-0.129,-0.336l-0.131,-0.335l-0.133,-0.334l-0.135,-0.333l-0.137,-0.332l-0.139,-0.33l-0.141,-0.33l-0.142,-0.329l-0.145,-0.328l-0.147,-0.327l-0.148,-0.326l-0.151,-0.324l-0.152,-0.324l-0.155,-0.322l-0.156,-0.322l-0.158,-0.32l-0.16,-0.319l-0.162,-0.319l-0.163,-0.317l-0.166,-0.316l-0.167,-0.314l-0.17,-0.314l-0.171,-0.313l-0.173,-0.311l-0.174,-0.31l-0.177,-0.309l-0.178,-0.308l-0.18,-0.307l-0.182,-0.305l-0.184,-0.305l-0.186,-0.303l-0.187,-0.302l-0.189,-0.3l-0.191,-0.3l-0.192,-0.298l-0.195,-0.297l-0.196,-0.296l-0.198,-0.295l-0.199,-0.293l-0.201,-0.292l-0.203,-0.291l-0.205,-0.289l-0.206,-0.288l-0.208,-0.287l-0.21,-0.286l-0.211,-0.284l-0.213,-0.283l-0.215,-0.282l-0.216,-0.28l-0.218,-0.279l-0.22,-0.278l-0.221,-0.276l-0.223,-0.275l-0.224,-0.273l-0.226,-0.273l-0.228,-0.27l-0.229,-0.27l-0.231,-0.268l-0.232,-0.267l-0.234,-0.265l-0.236,-0.264l-0.237,-0.262l-0.238,-0.261l-0.24,-0.259l-0.242,-0.258l-0.243,-0.257l-0.245,-0.255l-0.246,-0.254l-0.248,-0.252l-0.249,-0.251l-0.251,-0.249l-0.252,-0.248l-0.254,-0.246l-0.255,-0.245l-0.257,-0.243l-0.258,-0.242l-0.259,-0.24l-0.261,-0.239l-0.263,-0.237l-0.264,-0.235l-0.265,-0.234l-0.266,-0.233l-0.268,-0.23l-0.27,-0.23l-0.271,-0.227l-0.272,-0.226l-0.273,-0.225l-0.275,-0.223l-0.277,-0.221l-0.277,-0.219l-0.279,-0.218l-0.281,-0.217l-0.281,-0.214l-0.283,-0.213l-0.285,-0.212l-0.285,-0.209l-0.287,-0.208l-0.288,-0.207l-0.29,-0.204l-0.29,-0.203l-0.292,-0.201l-0.294,-0.2l-0.294,-0.198l-0.296,-0.196l-0.297,-0.194l-0.298,-0.192l-0.3,-0.191l-0.301,-0.189l-0.302,-0.188l-0.303,-0.185l-0.304,-0.184l-0.306,-0.182l-0.306,-0.18l-0.308,-0.178l-0.309,-0.177l-0.31,-0.175l-0.312,-0.173l-0.312,-0.171l-0.314,-0.169l-0.315,-0.167l-0.316,-0.166l-0.317,-0.164l-0.318,-0.161l-0.319,-0.16l-0.32,-0.159l-0.322,-0.156l-0.322,-0.154l-0.324,-0.152l-0.325,-0.151l-0.325,-0.148l-0.327,-0.147l-0.328,-0.145l-0.329,-0.143l-0.33,-0.14l-0.331,-0.139l-0.332,-0.137l-0.333,-0.135l-0.334,-0.133l-0.335,-0.131l-0.335,-0.129l-0.337,-0.127l-0.338,-0.125l-0.339,-0.123l-0.34,-0.121l-0.341,-0.119l-0.341,-0.117l-0.343,-0.115l-0.344,-0.113l-0.344,-0.11l-0.346,-0.109l-0.346,-0.107l-0.347,-0.104l-0.348,-0.103l-0.349,-0.1l-0.35,-0.098l-0.351,-0.097l-0.352,-0.094l-0.352,-0.092l-0.353,-0.09l-0.355,-0.087l-0.355,-0.086l-0.355,-0.083l-0.357,-0.081l-0.358,-0.079l-0.358,-0.077l-0.359,-0.075l-0.36,-0.073l-0.361,-0.07l-0.361,-0.068l-0.362,-0.066l-0.363,-0.064l-0.364,-0.061l-0.364,-0.06l-0.366,-0.057l-0.366,-0.055l-0.366,-0.052l-0.368,-0.05l-0.368,-0.048l-0.369,-0.046l-0.369,-0.044l-0.37,-0.041l-0.371,-0.039l-0.372,-0.036l-0.372,-0.035l-0.373,-0.032l-0.373,-0.029l-0.375,-0.028l-0.374,-0.025l-0.376,-0.022l-0.376,-0.02l-0.377,-0.018l-0.377,-0.016l-0.378,-0.013l-0.379,-0.011l-0.379,-0.008l-0.379,-0.006l-0.381,-0.004l-0.38,-0.001l-0.381,0.001Z"/></g><path d="M48.498,335.432c0,0 -11,-60 8,-106.5c0,0 48.5,30 118.5,59.5c0,0 -59,29 -24,108.5c0,0 -56,-18.5 -102.5,-61.5"/><path d="M572.831,334.432c0,0 11,-60 -8,-106.5c0,0 -48.5,30 -118.5,59.5c0,0 59,29 24,108.5c0,0 56,-18.5 102.5,-61.5"/></svg>