<svg viewBox="0 0 623 621" xmlns="http://www.w3.org/2000/svg" fill-rule="evenodd" clip-rule="evenodd" stroke-linejoin="round" stroke-miterlimit="1.414"><path d="M376.543 10.013v15.316c36.529 8.346 70.46 23.548 100.363 44.178l10.798-10.13 85.415 91.051-10.854 10.182c15.612 26.128 27.26 54.893 34.11 85.462h15.727v124.844h-15.01a290.22 290.22 0 0 1-33.577 86.638l10.604 9.948-85.415 91.05-9.788-9.182c-31.066 21.818-66.568 37.74-104.873 46.137v15.409h-62.722v.023h-63.249V595.53c-38.305-8.396-73.806-24.319-104.873-46.136l-9.787 9.181-85.416-91.05 10.604-9.948a290.236 290.236 0 0 1-33.577-86.638h-15.01V246.096H25.74a290.32 290.32 0 0 1 34.11-85.462l-10.854-10.183 85.416-91.05 10.797 10.129c29.904-20.629 63.834-35.831 100.363-44.177V10.037h65.223v-.024h65.748zm-66.978 275.284l1.23-.002" fill="#fff"/><path d="M599.425 373.807l-.141.635-.163.73-.166.73-.167.729-.169.728-.171.727-.172.726-.174.727-.177.725-.177.724-.18.724-.182.723-.183.723-.185.722-.187.721-.188.72-.191.719-.192.719-.194.719-.195.717-.198.717-.199.716-.201.715-.202.714-.205.714-.206.713-.208.713-.21.711-.211.711-.213.71-.215.71-.217.708-.218.708-.22.707-.222.706-.223.706-.226.705-.227.704-.228.703-.231.703-.232.701-.233.701-.236.7-.237.7-.239.698-.241.698-.242.697-.244.696-.246.696-.247.694-.249.694-.251.693-.252.693-.255.691-.255.691-.258.689-.259.689-.261.688-.262.688-.264.686-.266.686-.268.685-.269.684-.27.683-.273.683-.274.681-.276.681-.277.68-.279.679-.281.678-.282.677-.284.677-.285.675-.287.675-.289.674-.291.673-.292.672-.293.671-.296.671-.297.67-.298.668-.3.668-.302.667-.303.666-.305.665-.307.665-.308.663-.309.663-.312.661-.313.661-.314.66-.316.659-.318.658-.319.657-.321.656-.322.655-.324.655-.326.653-.327.653-.328.651-.331.651-.331.65-.334.649-.335.648-.336.646-.338.647-.34.645-.341.644-.342.643-.344.643-.346.641-.347.64-.349.64-.35.638-.352.638-.354.636-.355.636-.356.634-.358.634-.359.633-.361.632-.299.519 11.036 10.353-89.371 95.267-10.188-9.558-.282.195-.741.509-.742.506-.745.505-.746.502-.747.5-.749.498-.751.495-.752.493-.754.491-.755.489-.757.487-.759.484-.76.482-.762.48-.763.477-.765.475-.766.473-.768.471-.77.469-.771.466-.773.464-.774.461-.775.459-.777.457-.779.455-.78.452-.782.451-.783.447-.785.446-.786.443-.788.44-.789.439-.79.436-.792.434-.794.431-.795.429-.796.427-.798.424-.799.422-.801.419-.803.417-.803.415-.805.412-.807.41-.808.408-.809.405-.811.403-.812.4-.814.398-.815.395-.816.393-.818.391-.819.388-.82.386-.822.383-.823.381-.825.378-.826.376-.827.374-.829.371-.83.368-.831.366-.833.364-.834.361-.835.358-.837.356-.838.354-.839.351-.841.348-.842.346-.843.344-.845.341-.845.338-.847.336-.849.333-.849.331-.851.328-.852.326-.854.323-.854.321-.856.317-.858.316-.858.313-.86.31-.861.308-.862.305-.863.302-.864.3-.866.297-.867.295-.868.292-.87.289-.87.287-.872.284-.873.281-.874.279-.875.276-.877.274-.877.271-.879.268-.88.265-.881.263-.882.26-.883.258-.885.255-.886.252-.886.249-.888.247-.889.244-.89.242-.891.238-.893.236-.893.233-.895.231-.895.227-.897.225-.898.223-.899.219-.899.217-.901.214-.902.211-.903.209-.444.101v15.984h-62.723v.023h-69.03v-15.984l-.443-.101-.903-.208-.903-.212-.9-.214-.9-.216-.899-.22-.898-.222-.897-.225-.895-.228-.895-.23-.893-.234-.892-.235-.891-.239-.891-.241-.888-.244-.888-.247-.887-.25-.886-.252-.884-.255-.884-.257-.882-.26-.881-.263-.88-.266-.878-.268-.878-.271-.877-.273-.875-.277-.874-.278-.873-.282-.871-.284-.871-.287-.87-.289-.868-.292-.867-.295-.865-.297-.865-.3-.863-.302-.862-.305-.861-.308-.86-.31-.858-.313-.857-.315-.856-.318-.855-.321-.853-.323-.852-.325-.851-.329-.85-.33-.848-.334-.847-.335-.846-.339-.845-.341-.843-.343-.842-.346-.84-.349-.84-.351-.838-.353-.836-.356-.836-.359-.834-.361-.832-.363-.832-.366-.83-.369-.828-.371-.828-.373-.826-.376-.824-.379-.823-.38-.822-.384-.821-.385-.819-.389-.818-.39-.816-.393-.815-.396-.814-.398-.812-.4-.811-.403-.809-.405-.808-.407-.806-.41-.806-.413-.803-.414-.802-.417-.801-.42-.8-.422-.797-.424-.797-.427-.795-.429-.793-.431-.792-.434-.791-.436-.789-.438-.788-.441-.786-.443-.785-.445-.783-.448-.782-.45-.78-.452-.778-.455-.777-.457-.776-.459-.774-.462-.773-.464-.771-.466-.769-.468-.768-.471-.767-.473-.764-.475-.764-.478-.761-.48-.761-.482-.758-.484-.757-.487-.756-.488-.754-.491-.752-.494-.75-.495-.75-.498-.747-.5-.746-.502-.744-.504-.743-.507-.741-.508-.282-.195-10.188 9.557-89.371-95.266 11.036-10.353-.299-.52-.36-.632-.36-.632-.358-.634-.356-.635-.355-.635-.353-.637-.352-.637-.351-.639-.348-.639-.348-.641-.345-.641-.344-.642-.343-.644-.341-.644-.34-.645-.338-.646-.336-.647-.335-.648-.333-.649-.332-.65-.33-.65-.329-.652-.327-.652-.326-.654-.323-.654-.323-.656-.321-.656-.319-.657-.318-.658-.316-.659-.314-.66-.313-.66-.311-.662-.31-.663-.308-.663-.307-.664-.305-.665-.303-.667-.302-.666-.3-.668-.298-.669-.297-.67-.295-.67-.294-.671-.292-.672-.29-.674-.289-.673-.287-.675-.286-.676-.284-.676-.282-.678-.281-.678-.279-.679-.277-.68-.276-.68-.274-.682-.272-.682-.271-.684-.269-.684-.268-.684-.265-.686-.265-.687-.262-.687-.261-.688-.259-.689-.257-.69-.256-.691-.254-.691-.253-.692-.25-.693-.25-.694-.247-.695-.246-.695-.244-.696-.242-.697-.241-.698-.238-.699-.238-.699-.235-.7-.234-.701-.232-.702-.23-.702-.229-.704-.227-.704-.225-.705-.224-.705-.222-.706-.22-.708-.218-.707-.217-.709-.214-.709-.214-.71-.211-.711-.21-.712-.208-.712-.206-.713-.204-.714-.203-.715-.201-.715-.199-.716-.197-.717-.196-.717-.194-.718-.192-.719-.19-.72-.189-.72-.187-.721-.185-.722-.183-.722-.182-.723-.179-.724-.178-.725-.176-.725-.175-.726-.172-.727-.171-.727-.169-.728-.167-.729-.165-.729-.164-.73-.14-.636H7.123V243.205h16.312l.147-.631.17-.72.172-.72.174-.719.175-.719.177-.718.179-.717.181-.716.182-.716.184-.715.186-.715.188-.713.189-.713.191-.712.193-.712.195-.711.196-.71.198-.709.2-.709.202-.708.203-.707.205-.707.206-.706.209-.705.21-.704.211-.704.214-.703.215-.702.217-.701.218-.701.221-.7.222-.699.223-.698.226-.698.227-.697.228-.696.231-.695.232-.695.233-.694.236-.693.237-.692.239-.692.24-.69.242-.69.244-.69.245-.688.247-.688.249-.686.25-.686.252-.686.254-.684.255-.684.257-.683.259-.682.26-.681.262-.68.263-.68.265-.679.267-.678.268-.677.27-.677.272-.675.273-.675.275-.674.276-.673.278-.672.28-.671.281-.671.283-.67.285-.669.286-.668.287-.667.29-.666.291-.666.292-.664.294-.664.296-.663.297-.662.299-.661.3-.661.302-.659.303-.659.305-.658.307-.656.308-.656.31-.656.311-.654.313-.653.314-.653.316-.651.318-.651.319-.65.321-.649.322-.647.323-.648.326-.646.326-.645.329-.644.33-.644.331-.642.333-.642.334-.641.336-.639.338-.639.339-.638.34-.637.342-.636.344-.636.345-.634.346-.633.348-.632.35-.632.351-.63.352-.63.354-.628.356-.628.357-.627.358-.625.36-.625.362-.624.362-.622.28-.477-11.272-10.575 89.371-95.266 11.213 10.519.204-.139.713-.481.714-.479.716-.477.718-.476.718-.473.721-.471.721-.469.724-.467.724-.465.726-.463.728-.46.729-.459.73-.457.732-.454.733-.453.735-.45.736-.449.737-.446.739-.444.74-.442.742-.44.743-.438.745-.436.745-.433.748-.432.748-.429.75-.428.751-.425.753-.423.754-.421.755-.418.757-.417.758-.414.76-.413.76-.41.763-.408.763-.406.765-.403.766-.402.767-.399.769-.397.77-.395.771-.393.773-.39.774-.388.775-.386.776-.384.778-.382.779-.379.781-.378.781-.375.783-.372.784-.371.786-.368.786-.366.788-.364.789-.362.791-.359.791-.357.793-.355.794-.352.795-.351.797-.348.798-.345.799-.344.8-.341.801-.339.803-.336.804-.335.805-.331.806-.33.807-.327.809-.325.809-.323.811-.32.812-.318.813-.316.815-.313.815-.311.817-.309.818-.306.819-.304.82-.302.821-.299.823-.297.823-.295.825-.292.825-.29.827-.287.828-.285.829-.282.831-.281.831-.277.832-.276.834-.273.834-.27.836-.269.836-.265.838-.264.839-.26.84-.259.841-.256.842-.254.843-.251.844-.248.845-.247.847-.243.847-.242.848-.238.849-.237.851-.234.851-.231.852-.229.854-.227.854-.224.855-.221.857-.219.857-.216.859-.214.859-.212.86-.209.862-.206.342-.081V7.146h65.223v-.023h71.53v15.911l.343.081.861.207.86.209.86.211.858.214.858.217.856.219.855.221.855.224.853.226.852.229.852.232.85.234.849.236.849.239.847.241.846.244.845.246.844.249.843.251.842.254.841.256.84.258.839.261.838.263.837.266.835.268.835.271.833.273.833.275.831.278.83.28.829.283.828.285.827.287.826.29.824.292.824.294.822.297.821.3.82.301.819.304.818.306.817.309.815.311.815.313.813.316.812.318.811.32.81.323.808.325.808.327.806.33.805.332.803.334.803.337.801.339.801.341.799.343.797.346.797.348.795.35.794.353.793.354.792.357.79.36.789.361.788.364.787.366.785.369.784.37.783.373.782.375.78.377.779.38.778.381.776.384.776.386.774.388.772.391.772.393.769.395.769.397.768.399.766.401.764.404.764.406.762.408.761.41.759.412.758.414.757.417.755.419.754.421.753.423.751.425.75.427.749.43.747.431.746.434.744.435.743.438.742.44.74.442.739.445.737.446.737.448.734.451.733.452.732.455.731.456.728.459.728.461.726.463.725.465.723.467.722.469.72.471.719.473.717.475.716.477.714.479.713.482.204.138 11.213-10.518 89.371 95.266-11.271 10.574.279.477.363.623.361.624.36.624.359.626.357.627.355.627.354.629.353.629.351.631.349.631.348.633.347.633.345.634.343.635.342.636.341.637.339.638.337.639.336.64.334.641.333.641.332.643.33.643.328.645.327.645.325.646.324.647.322.648.32.649.319.65.318.65.316.652.314.652.313.654.311.654.31.655.308.656.307.657.305.658.304.658.302.66.3.66.299.661.297.662.295.663.294.664.293.665.291.665.289.667.288.667.286.668.284.669.283.67.281.67.28.671.278.673.276.673.275.674.273.674.272.676.27.676.268.678.267.678.265.678.264.68.261.681.261.681.258.682.257.683.255.683.254.685.252.685.25.686.249.687.247.688.246.688.243.689.242.69.241.691.238.691.238.693.235.693.234.694.232.694.23.696.229.696.227.697.225.697.224.699.222.699.22.7.219.7.216.702.216.702.213.703.212.704.21.704.208.705.207.706.205.706.203.707.201.709.2.708.198.71.196.71.195.711.193.711.191.712.189.713.188.714.186.714.184.715.182.716.181.717.179.717.177.718.175.718.174.719.172.72.17.721.147.63h16.313v130.626h-15.568zM146.306 548.036l.725.501.726.499.728.497.73.494.731.493.733.49.734.488.737.486.737.483.739.482.741.479.742.477.744.475.745.472.747.471.748.468.75.466.752.463.753.462.754.459.756.457.757.455.759.453.761.45.762.448.763.446.765.443.766.441.768.439.769.437.771.434.772.432.774.43.775.428.776.425.778.423.78.42.78.419.783.415.783.414.785.411.787.409.788.407.789.404.791.402.792.4.793.397.795.395.796.392.798.39.799.388.8.385.802.383.803.381.804.378.806.375.807.374.808.371.81.368.811.366.812.364.814.361.815.359.816.356.818.354.819.352.82.349.821.346.823.344.824.342.825.339.827.337.828.334.829.332.83.329.832.327.833.324.834.322.835.319.837.316.837.315.839.311.841.31.841.306.843.304.844.302.845.299.846.296.848.294.848.291.85.289.851.287.852.283.853.281.855.279.856.276.856.273.859.271.859.268.86.265.861.263.863.26.863.258.865.255.866.253.867.249.868.248.869.244.871.242.871.239.873.237.873.234.875.231.876.229.876.225.878.224.879.22.88.218.881.215.883.213.883.21.884.207.885.204.886.202.888.199 3.16.697v14.841h57.467v-.024h62.723v-14.84l3.16-.698.887-.199.886-.202.885-.204.885-.207.883-.21.882-.212.881-.215.88-.218.879-.221.878-.223.877-.226.875-.228.875-.232.874-.234.872-.236.872-.239.87-.242.869-.245.868-.247.867-.25.866-.252.865-.255.864-.258.862-.26.861-.263.861-.266.859-.268.858-.271.857-.273.855-.276.855-.278.853-.281.852-.284.851-.286.85-.289.849-.291.847-.294.847-.297.845-.299.843-.301.843-.304.842-.307.84-.309.839-.312.838-.314.836-.317.836-.319.834-.322.832-.324.832-.327.83-.329.83-.332.827-.334.827-.336.825-.34.824-.341.823-.344.821-.347.821-.349.819-.351.817-.354.816-.357.815-.358.814-.362.812-.363.811-.366.81-.369.808-.371.808-.373.805-.376.805-.378.803-.381.801-.382.801-.386.799-.387.797-.39.796-.393.795-.395.794-.397.792-.399.79-.402.79-.405.787-.406.787-.409.785-.411.784-.414.782-.416.781-.418.779-.421.778-.423.776-.425.775-.427.774-.43.772-.432.771-.434.769-.437.768-.439.767-.441.764-.444.764-.446.762-.448.76-.45.759-.452.757-.455.756-.457.755-.459.753-.462.751-.464.75-.466.748-.468.747-.47.746-.473.743-.475.742-.477.741-.479.739-.481.738-.484.736-.486.734-.488.733-.49.731-.492.73-.495.728-.496.727-.499.725-.501.723-.503 2.649-1.854 9.391 8.81 81.461-86.834-10.177-9.547 1.524-2.608.359-.617.356-.617.356-.619.354-.619.352-.62.351-.622.349-.622.348-.623.347-.624.345-.625.343-.626.342-.627.34-.628.339-.628.338-.63.335-.631.335-.631.333-.633.331-.633.33-.634.328-.635.327-.637.325-.637.324-.637.322-.639.321-.64.319-.641.317-.641.317-.643.314-.643.313-.644.311-.645.31-.646.309-.647.306-.648.305-.648.304-.65.302-.65.301-.651.299-.652.297-.653.296-.654.294-.655.292-.655.291-.657.29-.657.288-.658.286-.659.285-.66.283-.66.281-.662.28-.662.279-.663.276-.664.275-.665.274-.666.272-.666.27-.667.269-.669.267-.669.265-.669.264-.671.262-.671.261-.672.259-.673.257-.674.255-.675.255-.675.252-.676.251-.677.249-.678.247-.679.246-.679.244-.68.243-.681.24-.682.24-.682.237-.683.236-.684.234-.685.233-.686.231-.686.229-.687.227-.688.226-.688.224-.69.223-.69.221-.691.219-.692.217-.692.216-.693.214-.694.212-.694.211-.696.209-.696.207-.697.205-.697.204-.698.202-.699.201-.7.198-.7.197-.702.196-.702.193-.702.192-.703.19-.704.188-.705.187-.705.185-.707.183-.706.181-.708.18-.708.178-.709.176-.709.174-.711.173-.711.171-.711.169-.712.167-.714.166-.713.164-.714.162-.715.16-.716.159-.716.156-.717.155-.718.642-3.01h14.458V248.963h-15.147l-.669-2.968-.162-.708-.163-.708-.165-.707-.167-.706-.168-.706-.171-.705-.172-.704-.173-.704-.175-.703-.178-.702-.178-.702-.181-.701-.182-.7-.184-.7-.186-.698-.187-.699-.189-.697-.191-.697-.192-.696-.194-.695-.196-.695-.198-.694-.199-.693-.201-.693-.202-.692-.204-.691-.206-.691-.208-.689-.209-.689-.211-.688-.213-.688-.214-.687-.216-.686-.217-.685-.22-.685-.22-.684-.223-.683-.224-.682-.226-.682-.227-.681-.23-.68-.23-.679-.233-.679-.234-.678-.235-.677-.238-.676-.238-.676-.241-.674-.242-.675-.244-.673-.245-.672-.247-.672-.249-.671-.25-.67-.252-.67-.254-.668-.255-.668-.256-.667-.259-.666-.26-.666-.261-.664-.263-.664-.265-.663-.266-.662-.268-.662-.269-.66-.271-.66-.273-.659-.274-.658-.276-.658-.277-.656-.279-.656-.28-.655-.282-.654-.284-.653-.285-.653-.286-.651-.289-.651-.289-.65-.292-.649-.293-.648-.294-.647-.296-.647-.298-.645-.299-.645-.3-.644-.302-.643-.304-.642-.305-.642-.307-.64-.308-.64-.31-.639-.311-.638-.313-.636-.314-.637-.316-.635-.317-.634-.319-.634-.321-.632-.321-.632-.324-.631-.325-.63-.326-.629-.328-.628-.329-.627-.331-.626-.332-.626-.334-.624-.335-.624-.337-.623-.338-.621-.34-.621-.341-.62-.343-.619-.344-.618-.346-.617-.347-.617-.348-.615-.35-.614-.352-.614-.353-.612-.354-.612-.356-.61-.357-.61-.359-.609-.36-.607-1.553-2.607 10.442-9.796-81.461-86.834-10.387 9.745-2.616-1.8-.696-.475-.698-.474-.699-.472-.7-.47-.702-.468-.704-.466-.704-.463-.707-.462-.707-.46-.709-.458-.711-.456-.712-.454-.713-.451-.715-.45-.716-.448-.717-.446-.719-.443-.72-.442-.722-.439-.723-.438-.724-.435-.726-.434-.727-.431-.729-.429-.73-.428-.731-.425-.732-.423-.734-.421-.735-.419-.737-.417-.738-.414-.739-.413-.741-.41-.742-.409-.743-.406-.744-.404-.746-.402-.747-.4-.749-.398-.749-.396-.751-.393-.753-.392-.753-.389-.755-.387-.756-.385-.758-.383-.758-.381-.76-.378-.762-.377-.762-.374-.764-.372-.765-.369-.766-.368-.767-.366-.769-.363-.77-.361-.771-.359-.773-.356-.773-.355-.775-.352-.776-.35-.777-.348-.779-.345-.779-.344-.781-.341-.782-.339-.783-.336-.785-.335-.785-.332-.787-.33-.788-.328-.789-.325-.791-.323-.791-.321-.793-.319-.793-.316-.795-.314-.796-.312-.797-.309-.799-.307-.799-.305-.801-.303-.801-.3-.803-.298-.804-.296-.805-.293-.806-.291-.807-.289-.809-.286-.809-.284-.811-.282-.811-.279-.813-.277-.814-.275-.815-.272-.815-.27-.818-.268-.818-.265-.819-.263-.82-.26-.821-.258-.822-.256-.824-.253-.824-.251-.825-.249-.827-.246-.827-.244-.829-.241-.829-.239-.831-.237-.831-.234-.833-.231-.833-.23-.835-.227-.835-.224-.837-.222-.837-.219-.839-.218-.839-.214-.841-.212-.841-.21-.842-.207-.844-.205-.844-.203-.845-.199-.846-.198-3.094-.712V12.904h-59.968v.023h-65.222v14.727l-3.094.712-.846.197-.846.2-.844.202-.843.205-.843.207-.841.21-.84.212-.84.215-.838.217-.838.22-.836.222-.836.224-.834.227-.834.229-.832.232-.832.234-.83.236-.83.239-.828.242-.828.244-.826.246-.826.248-.824.251-.823.254-.823.255-.821.258-.82.261-.819.263-.818.265-.817.268-.816.269-.815.273-.814.274-.812.277-.812.28-.811.281-.809.285-.808.286-.808.289-.806.291-.805.293-.804.296-.802.298-.802.3-.801.302-.799.305-.798.307-.798.31-.796.312-.794.314-.794.316-.793.319-.791.32-.79.323-.79.326-.787.328-.787.329-.786.333-.784.334-.783.337-.782.339-.781.341-.78.343-.778.346-.778.347-.776.35-.775.353-.773.354-.772.357-.772.359-.77.361-.768.363-.768.365-.766.368-.765.37-.764.372-.762.374-.761.376-.76.379-.759.38-.757.383-.757.385-.754.387-.754.39-.752.391-.751.394-.75.395-.749.398-.747.4-.745.402-.745.404-.743.407-.742.408-.741.41-.739.413-.738.415-.736.417-.736.419-.733.421-.733.423-.731.425-.73.427-.728.429-.728.432-.725.433-.725.436-.723.437-.721.44-.721.441-.719.444-.717.446-.716.447-.715.45-.713.452-.712.454-.71.456-.709.457-.708.46-.706.462-.705.464-.703.466-.702.468-.701.469-.699.472-.697.474-.697.476-2.616 1.799-10.387-9.744-81.46 86.834 10.441 9.795-1.553 2.607-.36.608-.359.609-.357.609-.356.611-.354.611-.353.613-.351.613-.35.615-.349.615-.347.616-.346.617-.344.618-.342.619-.342.62-.339.621-.339.622-.336.623-.336.623-.333.625-.333.625-.33.626-.33.628-.328.628-.326.629-.325.63-.323.63-.322.632-.32.633-.319.633-.318.635-.315.635-.315.636-.313.637-.311.638-.31.639-.308.639-.307.641-.305.641-.303.642-.302.643-.301.644-.299.645-.298.646-.296.646-.294.648-.293.648-.291.649-.29.65-.288.65-.287.652-.285.652-.284.654-.282.654-.28.654-.279.656-.277.657-.276.657-.274.658-.273.659-.271.66-.269.661-.268.661-.266.662-.265.663-.263.664-.261.665-.26.665-.258.666-.257.667-.255.668-.254.669-.251.669-.251.67-.248.671-.247.672-.246.673-.243.673-.243.674-.24.675-.239.675-.237.677-.236.677-.234.678-.232.678-.231.68-.229.68-.228.681-.226.681-.224.683-.222.683-.221.684-.219.684-.218.686-.216.686-.214.686-.213.688-.211.688-.209.689-.207.69-.206.69-.204.692-.203.691-.201.693-.199.693-.198.694-.195.695-.194.695-.193.697-.191.696-.189.698-.187.698-.186.699-.184.7-.182.7-.18.701-.179.701-.177.703-.176.703-.173.703-.172.705-.17.705-.169.705-.167.707-.165.707-.163.707-.162.709-.669 2.967H12.904v119.063h14.458l.642 3.009.155.718.157.717.158.716.161.716.162.715.164.714.165.714.167.713.17.712.17.712.173.711.175.71.176.71.178.708.179.709.182.707.183.707.185.706.186.705.188.705.191.704.191.703.194.703.195.702.197.701.199.7.2.7.202.699.204.698.205.698.208.697.209.696.21.695.213.695.214.693.215.694.218.692.219.692.221.69.222.691.224.689.226.689.228.687.229.687.231.687.232.685.234.685.236.684.238.683.239.683.241.682.242.68.244.681.246.679.248.678.249.678.25.677.253.676.254.676.255.674.258.674.259.673.26.672.262.672.264.67.266.67.267.669.268.668.271.667.271.667.274.665.275.665.277.664.278.663.28.663.281.661.284.661.284.659.287.659.287.658.29.658.291.656.293.656.294.654.295.654.298.653.299.652.3.651.302.651.304.649.305.649.307.648.308.646.31.646.311.645.313.645.315.643.316.642.317.642.32.64.32.64.322.639.324.638.325.637.327.636.328.635.33.634.332.634.333.632.334.632.336.63.337.63.339.629.34.628.342.627.344.625.345.625.346.625.348.623.349.622.351.621.353.62.354.62.355.618.357.618.358.616 1.525 2.609-10.177 9.547 81.46 86.834 9.392-8.811 2.648 1.854.724.503zm164.495-259.851l-.617.002h-.617l-.004-5.781h.613l.612-.002.013 5.781z"/><path d="M311.321 43.509c112.622.735 208.748 71.508 246.968 170.938-32.031 23.85-69.277 40.389-107.446 51.615-89.459 26.31-190.083 26.411-279.547.1-38.169-11.226-75.415-27.765-107.446-51.615l-.024-.077c38.279-99.584 134.645-170.423 247.495-170.94v-.021" fill="#fff" stroke="#000" stroke-width="2.52"/><path d="M313.8 43.574l2.674.069 1.413 3.231s-6 12.5 3.5 10.5c0 0-6.375 14.375-1.875 13.875 0 0 3.5 2 2.25 6l2.75 4.25s-10.75 23.5 4 22.75c0 0-16.75 17.25-6.75 17.25 0 0-6.5 8-3.75 13.75l1.5 5.25-.25 8.25-.25 10-.75 8.5s-3.648 14.807 12.321 2.866l3.462-2.758c-3.477 2.979-18.358 16.118-17.033 21.642 0 0-3.5 7.75-.5 6.75l-.75 9 1 7.75 2.5 7.5s2.75 9.5 0 16.25l-2.5 14.75s-2.75 6.25-.5 9.5c0 0 7.25 10.25 7 14.25l8.125 9.625s-3.151-.822-6.79-3.455l1.263 4.421c-5.469.191-10.946.277-16.446.277-5.662 0-11.29-.09-16.883-.28l1.405-4.918c-3.639 2.633-6.79 3.455-6.79 3.455l8.125-9.625c-.25-4 7-14.25 7-14.25 2.25-3.25-.5-9.5-.5-9.5l-2.5-14.75c-2.75-6.75 0-16.25 0-16.25l2.5-7.5 1-7.75-.75-9c3 1-.5-6.75-.5-6.75.994-4.143-7.129-12.569-12.719-17.78l-4.314-3.862c19.934 16.741 15.783-.108 15.783-.108l-.75-8.5-.25-10-.25-8.25 1.5-5.25c2.75-5.75-3.75-13.75-3.75-13.75 10 0-6.75-17.25-6.75-17.25 14.75.75 4-22.75 4-22.75l2.75-4.25c-1.25-4 2.25-6 2.25-6 4.5.5-1.875-13.875-1.875-13.875 9.5 2 3.5-10.5 3.5-10.5l1.144-2.615 3.02-.073.836 6.688-.5 6 1 7 .5 9.5-1 17 1.5 8.5-3.5 5.5v7l.5 11-1.5 10 4 49.5-3 5.5 2.5 6-.5 9c1.5 3.5-2 22.5-2 22.5v12.875c1.006 1.89 2.592 2.402 4.021 2.399l3.178.5c1.435.008 3.031-.5 4.042-2.399v-12.875s-3.5-19-2-22.5l-.5-9 2.5-6-3-5.5 4-49.5-1.5-10 .5-11v-7l-3.5-5.5 1.5-8.5-1-17 .5-9.5 1-7-.5-6 .913-7.3zm99.974 216.854c-5.261 2.669-15.537 13.496-15.537 13.496a39.358 39.358 0 0 1-4.792 4.84l-5.413.906c3.919-2.262 5.605-4.346 5.605-4.346 5.565-6.787 13.157-11.363 17.461-13.603l2.676-1.293c.114-.059.226-.113.336-.163l-.336.163zm28.527 7.714c2.78-9.993 3.561-25.118-12.064-34.618 0 0-11.2-7.6-24.4-6.2l1.6-2.6s16.4 0 26.6 7c0 0 22.4-11 27.2-3.2l-16.6 8.2 20.4-6s2 3.4-19.6 15.2c0 0 3.201 9.48-1.435 21.76l-1.701.458zm43.177-14.281c1.241-8.506.095-19.567-11.841-25.137 0 0 18.967 2.389 13.263 24.592l-1.422.545zm-90.409-32.211c-2.335-.78-3.832-2.726-3.832-2.726 3.8-6.2 7.2-22.4 7.2-22.4l-.2-3-8.4 7.4-3.45 6.95.019.067c6.01 21.538-29.247 26.814-33.585 27.379l22.616-2.796c-3 5.6-16.8 8.8-16.8 8.8 20.4-.8 31.4-17.8 31.4-17.8 1.092-2.184 5.332-1.718 6.085-1.616l-1.053-.258zm120.389 18.899c.627-26.693-16.221-56.825-16.221-56.825 23.956 23.457 27.017 44.561 27.339 50.994l-.048.028c-1.09-20.61-19.491-38.822-19.491-38.822 8.532 19.014 10.528 34.315 10.764 43.401l-2.343 1.224zm-23.821-10.625s6.4-30.4-4.4-41.4c0 0 4.8-3.2 8.4 21.4 0 0 5.2 4.8-.8 8.4 0 0-2.2 11.6-3.2 11.6zM416.934 80.646c.141 2.278.253 10.378-1.097 13.078-1.8 3.6 7.2-6.8 43.2 12 0 0-42.8-20-53.4-3 0 0 3 12.2-.4 19.6 0 0 14.8-16 41 3.6 0 0-34.8-21-32 7 0 0 18.8 26.8 11.6 33 0 0 29.8 10.4 44 30.6 2.857 4.064-26.8-33.2-57-19 0 0-13.8 8-14.8 11.4 0 0-9.2-4.6-6.8-11.2 0 0 0-19.2 6.2-11.2 0 0 5.2-2.4 17.6-.6 0 0 25.6.4-13.2-39.6l-8.6-8s6.8 3.2 5.6-17.2c0 0 1.587-1.731.839-10.475l-.476-4.192c.652 4.303 3.202 18.997 6.637 11.267 0 0 6.6-2 7-3.2.4-1.2 4-10 4-13.8 0-.451.012-.662.031-.68l.066.602zm48.155 51.396c-7.689-7.07-20.052-14.118-20.052-14.118 29.6 21.4 24.2 46.6 24.2 46.6 16.4 10.6 7.6-20.4 7.6-20.4 8.8 14.8 4.4 25.4 4.4 25.4 14 1.6 25.6 15.8 25.6 15.8-19.2-18.8-28.4-12-28.4-12-.4-4.4-11.6-7.4-11.6-7.4l1-5.2c-2.2-31-28.6-44.6-28.6-44.6-1.4-2.2-12.4-13.2 3-4 9.326 5.571 17.698 14.076 22.852 19.918 2.427 2.232 4.389 4.467 5.348 6.482 0 0-1.991-2.676-5.348-6.482zm-101.936-25.031a193.174 193.174 0 0 0-.316-2.687c.414.662.477 1.606.316 2.687.52 4.645 1.425 13.891.684 16.113 0 0 4.4-2.6 23.4 10.2 0 0-21.2-11.6-24.4-7.4 0 0-5.6 1.4-4.2-8.6 0 0 3.901-6.166 4.516-10.313zm-12.457-46.069c-10.618 2.538-7.075 13.165-7.075 13.165-.852 12.405-4.809 19.574-6.886 22.543l1.369-1.485c14.448-14.489 38.017-2.558 38.017-2.558-12.834-8.833-26.167-10-26.167-10-.167-11.333 4.833-13.333 4.833-13.333.834-4.667 20.834-5 20.834-5-9.875-3.167-16.813-4.135-21.664-3.807l-3.261.475zM209.817 260.964c5.26 2.669 15.537 13.496 15.537 13.496a39.358 39.358 0 0 0 4.792 4.84l5.413.906c-3.919-2.262-5.605-4.346-5.605-4.346-5.566-6.787-13.157-11.363-17.462-13.603l-2.675-1.293a7.858 7.858 0 0 0-.336-.163l.336.163zm-28.528 7.714c-2.779-9.993-3.56-25.118 12.065-34.618 0 0 11.2-7.6 24.4-6.2l-1.6-2.6s-16.4 0-26.6 7c0 0-22.4-11-27.2-3.2l16.6 8.2-20.4-6s-2 3.4 19.6 15.2c0 0-3.202 9.48 1.435 21.76l1.7.458zm-43.176-14.281c-1.241-8.506-.095-19.567 11.841-25.137 0 0-18.967 2.389-13.263 24.592l1.422.545zm90.408-32.211c2.336-.78 3.833-2.726 3.833-2.726-3.8-6.2-7.2-22.4-7.2-22.4l.2-3 8.4 7.4 3.45 6.95-.019.067c-6.011 21.538 29.247 26.814 33.584 27.379l-22.615-2.796c3 5.6 16.8 8.8 16.8 8.8-20.4-.8-31.4-17.8-31.4-17.8-1.093-2.184-5.332-1.718-6.086-1.616l1.053-.258zm-120.388 18.899c-.628-26.693 16.221-56.825 16.221-56.825-23.956 23.457-27.017 44.561-27.339 50.994l.048.028c1.09-20.61 19.491-38.822 19.491-38.822-8.533 19.014-10.528 34.315-10.764 43.401l2.343 1.224zm23.821-10.625s-6.4-30.4 4.4-41.4c0 0-4.8-3.2-8.4 21.4 0 0-5.2 4.8.8 8.4 0 0 2.2 11.6 3.2 11.6zm74.703-149.278c-.141 2.278-.253 10.378 1.097 13.078 1.8 3.6-7.2-6.8-43.2 12 0 0 42.8-20 53.4-3 0 0-3 12.2.4 19.6 0 0-14.8-16-41 3.6 0 0 34.8-21 32 7 0 0-18.8 26.8-11.6 33 0 0-29.8 10.4-44 30.6-2.857 4.064 26.8-33.2 57-19 0 0 13.8 8 14.8 11.4 0 0 9.2-4.6 6.8-11.2 0 0 0-19.2-6.2-11.2 0 0-5.2-2.4-17.6-.6 0 0-25.6.4 13.2-39.6l8.6-8s-6.8 3.2-5.6-17.2c0 0-1.587-1.731-.839-10.475l.476-4.192c-.652 4.303-3.202 18.997-6.637 11.267 0 0-6.6-2-7-3.2-.4-1.2-4-10-4-13.8 0-.451-.012-.662-.031-.68l-.066.602zm-48.155 51.396c7.689-7.07 20.052-14.118 20.052-14.118-29.6 21.4-24.2 46.6-24.2 46.6-16.4 10.6-7.6-20.4-7.6-20.4-8.8 14.8-4.4 25.4-4.4 25.4-14 1.6-25.6 15.8-25.6 15.8 19.2-18.8 28.4-12 28.4-12 .4-4.4 11.6-7.4 11.6-7.4l-1-5.2c2.2-31 28.6-44.6 28.6-44.6 1.4-2.2 12.4-13.2-3-4-9.326 5.571-17.698 14.076-22.852 19.918-2.427 2.232-4.389 4.467-5.348 6.482 0 0 1.991-2.676 5.348-6.482zm101.936-25.031c.181-1.625.316-2.687.316-2.687-.414.662-.477 1.606-.316 2.687-.52 4.645-1.425 13.891-.684 16.113 0 0-4.4-2.6-23.4 10.2 0 0 21.2-11.6 24.4-7.4 0 0 5.6 1.4 4.2-8.6 0 0-3.901-6.166-4.516-10.313zm12.457-46.069c10.618 2.538 7.075 13.165 7.075 13.165.852 12.405 4.809 19.574 6.886 22.543l-1.369-1.485c-14.448-14.489-38.017-2.558-38.017-2.558 12.834-8.833 26.167-10 26.167-10 .167-11.333-4.833-13.333-4.833-13.333-.834-4.667-20.834-5-20.834-5 9.875-3.167 16.813-4.135 21.664-3.807l3.261.475zm66.13 387.991c-9.058.53-46.876.545-55.934.015l-10.495 16.81-32.035-5.008-1.76-16.576c-17.59-2.791-34.513-6.582-50.595-11.267l-12 12.364-27.043-11.077-.581-15.337c-16.012-6.79-30.812-14.558-44.162-23.161l-7.669 5.138-9.983-7.708-1.52 9.012s-11.102-.489-11.102-.25l-.001.015c0 12.081 1.743 23.872 5.057 35.25l16.844-2.347 9.034 21.631-13.713 9.5c7.564 13.476 17.443 26.105 29.282 37.63l17.739-6.726 19.98 18.712-9.151 11.152c13.444 9.097 28.357 17.083 44.453 23.756l7.651-11.995 35.502 11.22-3.026 14.004c17.112 4.306 35.114 7.246 53.751 8.638l3.934-17.6 40.869-.015 2.217 17.6c18.637-1.392 36.638-4.332 53.751-8.638l-.737-16.373 28.633-9.799 12.231 12.943c16.096-6.673 31.008-14.66 44.452-23.756l-1.71-13.047 17.691-14.448 12.588 4.357c11.839-11.525 21.718-24.154 29.281-37.63l-4.554-10.447 5.027-16.895 11.692-1.442c3.314-11.378 5.057-23.169 5.057-35.25v-.015c-.001-.239-11.103.25-11.103.25l-1.519-9.012-9.983 7.707-7.669-5.137c-13.351 8.603-28.151 16.371-44.163 23.161l2.282 17.705-27.043 9.182-14.863-12.837c-16.082 4.685-33.005 8.476-50.594 11.266l-2.906 17.051-30.889 5.008-10.495-17.284z"/><circle cx="214.179" cy="350.611" r="58.926" fill="#11b100"/><path d="M214.578 288.827l.398.003.398.007.397.009.397.011.396.014.395.016.395.019.394.021.394.024.393.026.392.029.392.031.39.033.391.036.389.039.389.04.388.044.388.045.386.048.387.05.385.053.384.055.384.058.383.06.382.062.382.064.38.067.38.069.379.072.379.074.377.076.377.078.376.081.374.083.374.085.374.087.372.09.372.092.37.094.37.097.369.098.368.101.367.103.366.106.365.107.364.11.363.112.363.114.361.116.361.118.359.121.358.122.358.125.356.127.356.129.354.131.354.133.352.136.351.137.351.14.349.141.348.144.347.145.346.148.345.15.344.152.342.153.342.156.341.158.339.16.338.162.337.163.336.166.335.168.334.17.332.171.331.174.33.175.329.178.328.179.327.182.325.183.324.185.323.187.321.189.321.191.319.192.318.195.316.196.316.199.313.2.313.201.312.204.31.206.308.207.308.209.306.211.305.213.303.214.303.217.3.218.3.22.298.221.296.224.295.224.294.227.293.229.291.23.29.232.288.233.286.235.286.238.284.238.282.24.281.242.28.244.278.245.276.247.275.249.274.25.272.251.27.254.269.255.268.256.266.258.264.26.263.261.261.263.26.264.258.266.256.268.255.269.254.27.251.272.25.274.249.275.247.276.245.278.244.28.242.281.24.282.238.284.237.285.236.287.233.288.232.29.23.291.229.292.226.294.225.295.224.297.221.298.22.3.218.3.216.302.215.304.213.305.211.306.209.307.207.309.206.31.203.312.202.312.2.314.198.316.197.316.195.318.192.319.191.321.189.321.187.323.185.324.183.325.182.327.179.328.177.328.176.331.174.331.171.332.17.334.168.335.165.336.164.337.162.338.16.339.158.341.156.342.153.342.152.344.15.345.148.346.145.347.144.348.141.349.14.351.137.351.135.352.134.354.131.354.129.356.127.356.125.358.122.358.121.359.118.361.116.361.114.362.112.364.11.364.107.365.106.366.103.367.101.368.098.369.097.37.094.37.092.372.09.372.087.373.085.375.083.374.081.376.078.377.076.377.074.378.072.38.069.38.067.38.064.382.062.382.06.383.058.384.055.384.052.385.051.386.048.387.045.388.044.388.04.389.039.389.036.39.033.391.031.392.029.392.026.393.024.393.021.395.019.395.016.395.014.396.011.397.009.397.006.398.004.398.002.399-.002.399-.004.398-.006.398-.009.397-.011.397-.014.396-.016.396-.019.394-.021.395-.024.393-.026.393-.029.393-.031.391-.033.391-.036.39-.039.39-.04.389-.044.388-.045.387-.048.387-.051.386-.052.385-.055.385-.058.383-.06.383-.062.383-.064.381-.067.381-.069.38-.072.379-.074.378-.076.377-.078.377-.081.376-.083.375-.085.374-.087.373-.09.373-.092.371-.094.371-.097.369-.098.369-.101.368-.103.367-.106.366-.107.366-.11.364-.112.363-.114.362-.116.362-.118.36-.121.359-.122.359-.125.357-.127.357-.129.355-.131.354-.134.354-.135.352-.137.352-.14.35-.141.349-.144.348-.145.347-.148.346-.15.345-.152.344-.153.343-.156.341-.158.341-.16.339-.162.339-.164.337-.165.335-.168.335-.17.334-.171.332-.174.332-.176.33-.177.329-.179.327-.182.327-.183.325-.185.324-.187.323-.189.322-.191.32-.193.319-.194.318-.197.317-.198.315-.2.314-.202.313-.203.311-.206.31-.207.309-.209.307-.211.307-.213.304-.215.304-.216.302-.218.301-.22.299-.221.298-.224.297-.225.295-.226.294-.229.292-.23.291-.232.29-.233.288-.236.287-.237.285-.238.284-.24.282-.242.282-.244.279-.245.278-.247.277-.249.275-.25.273-.251.272-.254.271-.255.268-.256.268-.258.266-.26.264-.261.263-.263.261-.264.26-.266.258-.268.257-.269.255-.27.253-.272.252-.274.25-.275.248-.276.247-.278.245-.28.244-.281.242-.282.24-.284.239-.286.237-.286.235-.288.234-.29.231-.291.231-.293.228-.293.227-.296.225-.296.223-.298.222-.3.219-.3.219-.303.216-.303.214-.305.213-.306.211-.307.209-.309.208-.31.205-.312.204-.312.202-.314.2-.316.198-.316.196-.318.195-.319.192-.321.191-.321.189-.323.187-.324.185-.325.184-.327.181-.328.179-.329.178-.33.175-.331.174-.332.172-.334.169-.335.168-.336.166-.337.164-.338.161-.339.16-.341.158-.342.156-.342.154-.344.151-.345.15-.346.148-.347.146-.348.143-.35.142-.35.139-.351.138-.352.135-.354.133-.354.131-.356.129-.356.127-.357.125-.359.122-.359.121-.361.118-.361.117-.362.114-.364.111-.364.11-.365.108-.366.105-.367.103-.368.101-.369.099-.37.096-.37.094-.372.092-.372.09-.374.087-.374.086-.375.083-.375.08-.377.079-.377.076-.379.074-.379.071-.38.069-.38.067-.382.065-.382.062-.383.059-.384.058-.384.055-.386.053-.386.05-.386.048-.388.046-.388.043-.389.041-.389.038-.391.036-.39.034-.392.031-.392.028-.393.026-.394.024-.394.021-.395.019-.395.017-.396.013-.397.012-.397.009-.398.006-.398.004-.399.001-.399-.001-.399-.004-.397-.006-.398-.009-.396-.012-.396-.013-.396-.017-.395-.019-.394-.021-.393-.024-.393-.026-.392-.028-.392-.031-.391-.034-.39-.036-.39-.038-.389-.041-.388-.043-.387-.046-.387-.048-.386-.05-.385-.053-.385-.055-.384-.058-.382-.059-.383-.062-.381-.065-.381-.067-.38-.069-.379-.071-.378-.074-.378-.076-.376-.079-.376-.08-.375-.083-.374-.086-.373-.087-.373-.09-.371-.092-.371-.094-.369-.096-.369-.099-.368-.101-.367-.103-.366-.105-.365-.108-.365-.11-.363-.111-.362-.114-.362-.117-.36-.118-.359-.121-.359-.122-.357-.125-.357-.127-.355-.129-.355-.131-.353-.133-.352-.135-.352-.138-.35-.139-.349-.142-.348-.143-.347-.146-.346-.148-.345-.15-.344-.151-.343-.154-.341-.156-.341-.158-.339-.16-.339-.161-.337-.164-.336-.166-.334-.168-.334-.169-.333-.172-.331-.174-.33-.175-.329-.178-.328-.179-.326-.181-.325-.184-.324-.185-.323-.187-.322-.189-.32-.19-.319-.193-.318-.195-.317-.196-.315-.198-.314-.2-.313-.202-.311-.204-.31-.205-.309-.208-.308-.209-.306-.211-.304-.213-.304-.214-.302-.216-.301-.219-.299-.219-.298-.222-.297-.223-.295-.225-.294-.227-.292-.228-.292-.231-.289-.231-.288-.234-.287-.235-.285-.237-.284-.239-.283-.24-.281-.242-.279-.244-.278-.245-.277-.247-.275-.248-.273-.25-.272-.252-.271-.253-.269-.255-.267-.257-.266-.258-.264-.26-.263-.261-.261-.263-.26-.264-.258-.266-.257-.267-.255-.269-.253-.271-.252-.272-.25-.273-.248-.275-.247-.277-.245-.278-.244-.28-.242-.281-.24-.282-.239-.284-.237-.285-.235-.287-.234-.288-.232-.29-.23-.291-.228-.292-.227-.294-.225-.295-.223-.297-.222-.298-.22-.299-.218-.301-.216-.302-.214-.304-.213-.304-.211-.307-.209-.307-.208-.309-.205-.31-.204-.311-.202-.313-.2-.314-.198-.315-.196-.317-.195-.318-.193-.319-.19-.32-.189-.322-.187-.323-.185-.324-.184-.325-.181-.326-.179-.328-.178-.329-.175-.33-.174-.332-.172-.332-.169-.334-.168-.334-.166-.336-.164-.338-.162-.338-.159-.339-.158-.341-.156-.341-.154-.343-.152-.344-.149-.345-.148-.346-.146-.347-.143-.348-.142-.349-.139-.35-.138-.352-.135-.352-.133-.354-.131-.354-.129-.355-.127-.357-.125-.357-.123-.359-.12-.359-.118-.36-.117-.362-.114-.362-.112-.364-.109-.364-.108-.365-.105-.366-.103-.367-.101-.368-.099-.369-.096-.369-.094-.371-.092-.371-.09-.373-.088-.373-.085-.374-.083-.375-.08-.376-.079-.377-.076-.377-.074-.378-.071-.379-.069-.38-.067-.381-.065-.381-.062-.383-.06-.383-.057-.383-.055-.385-.053-.385-.05-.386-.048-.387-.046-.387-.043-.388-.041-.389-.038-.39-.036-.39-.034-.391-.031-.392-.028-.392-.027-.393-.023-.393-.022-.395-.018-.394-.017-.396-.013-.396-.012-.396-.009-.398-.006-.398-.004-.398-.001-.399.001-.399.004-.398.006-.398.009-.397.012-.397.013-.396.017-.395.018-.395.022-.395.023-.393.027-.393.028-.392.031-.392.034-.391.036-.39.038-.389.041-.389.043-.389.046-.387.048-.387.05-.386.053-.385.055-.384.057-.384.06-.383.062-.382.065-.382.067-.38.069-.38.071-.38.074-.378.076-.377.079-.377.08-.376.083-.375.085-.374.088-.373.09-.372.092-.372.094-.37.096-.37.099-.369.101-.368.103-.367.105-.366.108-.365.109-.364.112-.364.114-.362.117-.361.118-.361.12-.359.123-.358.125-.358.127-.356.129-.356.131-.354.133-.354.135-.352.138-.351.139-.351.142-.349.143-.348.146-.347.148-.346.149-.345.152-.344.154-.342.156-.342.158-.341.159-.339.162-.338.164-.337.166-.336.168-.335.169-.334.172-.332.174-.331.175-.331.178-.328.179-.328.181-.327.184-.325.185-.324.187-.323.189-.321.19-.321.193-.319.195-.318.196-.316.198-.316.2-.314.202-.312.204-.312.205-.31.208-.309.209-.307.211-.306.213-.305.214-.304.216-.302.218-.301.22-.299.222-.298.223-.297.225-.295.227-.294.228-.292.231-.291.231-.29.234-.288.235-.287.237-.285.239-.284.24-.282.242-.281.244-.28.245-.278.247-.276.248-.275.25-.274.252-.272.253-.27.255-.269.257-.268.258-.266.26-.264.261-.263.263-.261.264-.26.266-.258.267-.256.269-.255.271-.254.272-.251.273-.25.275-.249.277-.247.278-.245.279-.244.281-.242.283-.24.284-.238.285-.237.287-.236.288-.233.29-.232.291-.23.292-.229.294-.227.295-.225.297-.223.298-.221.299-.22.301-.218.302-.217.304-.214.304-.213.307-.211.307-.209.309-.207.31-.206.311-.204.313-.201.314-.2.315-.199.317-.196.318-.195.319-.192.32-.191.322-.189.323-.187.324-.185.325-.183.327-.182.327-.179.329-.178.33-.175.331-.174.333-.171.334-.17.334-.168.336-.166.337-.163.339-.162.339-.16.341-.158.341-.156.343-.153.344-.152.345-.15.346-.148.347-.145.348-.144.349-.141.35-.14.352-.137.352-.136.353-.133.355-.131.355-.129.357-.127.357-.125.359-.122.359-.121.36-.118.362-.116.362-.114.363-.112.364-.11.366-.107.366-.106.367-.103.368-.101.369-.098.369-.097.371-.094.371-.092.373-.09.373-.087.374-.085.375-.083.376-.081.377-.078.377-.076.378-.074.379-.072.38-.069.381-.067.381-.064.382-.062.384-.06.383-.058.385-.055.385-.053.386-.05.387-.048.387-.045.388-.044.389-.04.39-.039.39-.036.391-.033.391-.031.393-.029.393-.026.393-.024.394-.021.395-.019.396-.016.396-.014.396-.011.397-.009.398-.007.399-.003.399-.002.399.002zm-.78 2.859l-.38.004-.38.006-.379.008-.379.011-.378.013-.377.016-.377.018-.376.02-.375.022-.375.025-.374.028-.374.029-.373.032-.372.035-.372.036-.37.039-.371.041-.369.044-.369.046-.368.048-.367.05-.367.052-.366.055-.365.057-.365.06-.364.061-.363.064-.362.066-.361.068-.361.07-.36.073-.359.075-.358.077-.358.079-.356.081-.356.083-.355.086-.354.087-.354.09-.352.092-.352.094-.35.097-.35.098-.349.1-.348.103-.348.104-.346.107-.345.109-.345.11-.344.113-.342.115-.342.117-.341.119-.34.121-.338.123-.338.125-.337.127-.336.129-.335.131-.334.133-.333.135-.332.137-.331.139-.33.14-.329.143-.327.145-.327.147-.326.148-.325.151-.323.152-.323.154-.321.156-.321.159-.319.16-.318.161-.317.164-.316.166-.315.167-.313.169-.313.171-.311.173-.31.175-.31.177-.307.178-.307.18-.306.182-.304.184-.303.185-.302.188-.301.189-.299.191-.299.192-.297.194-.295.196-.295.198-.293.2-.292.201-.291.203-.289.204-.289.207-.287.208-.285.209-.284.212-.283.213-.282.214-.28.217-.279.218-.278.219-.276.221-.275.223-.274.225-.272.226-.271.227-.269.23-.268.23-.267.233-.265.234-.264.235-.262.237-.261.239-.26.24-.258.242-.256.243-.256.245-.253.246-.253.248-.25.249-.25.251-.247.252-.247.254-.244.255-.243.257-.242.258-.24.259-.239.261-.237.262-.236.264-.234.265-.232.267-.231.268-.229.27-.228.27-.226.273-.224.273-.223.275-.221.276-.22.278-.218.279-.216.28-.215.282-.213.283-.211.284-.21.286-.208.287-.206.288-.205.289-.202.291-.202.292-.199.293-.198.295-.196.296-.194.297-.193.298-.191.3-.189.3-.187.302-.186.303-.183.305-.182.305-.18.307-.179.308-.176.309-.175.31-.173.311-.171.313-.169.314-.168.314-.165.316-.164.317-.162.319-.16.319-.158.32-.156.322-.154.322-.153.324-.15.324-.149.326-.146.327-.145.328-.143.329-.141.33-.139.33-.137.332-.135.333-.132.334-.131.335-.129.336-.127.337-.125.338-.123.339-.121.34-.119.34-.117.342-.115.343-.113.343-.111.345-.108.345-.107.347-.105.347-.102.348-.101.349-.098.35-.096.351-.094.351-.092.353-.09.353-.088.354-.085.355-.084.356-.081.357-.079.357-.077.359-.075.359-.072.36-.07.36-.069.362-.066.362-.063.363-.062.364-.059.364-.057.365-.055.366-.052.367-.051.367-.048.368-.046.369-.043.37-.041.37-.039.371-.037.371-.034.373-.032.373-.03.373-.027.374-.025.375-.023.376-.02.376-.018.376-.015.378-.014.378-.01.378-.009.379-.006.38-.003.38-.002.381.002.381.003.38.006.38.009.379.01.379.014.378.015.377.018.377.02.376.023.375.025.375.027.374.03.374.032.373.034.372.037.371.039.371.041.371.043.369.046.369.048.368.051.367.052.367.055.366.057.365.059.365.062.363.063.363.066.363.069.361.07.361.072.36.075.359.077.358.079.357.081.357.084.356.085.355.088.354.09.353.092.353.094.352.096.35.098.35.101.349.102.348.105.348.107.346.108.345.111.345.113.343.115.343.117.342.119.341.121.339.123.339.125.338.127.337.129.336.131.335.132.334.135.333.137.332.139.331.141.33.143.329.145.327.146.327.149.326.15.325.153.323.154.323.156.321.158.32.16.32.162.318.164.317.165.316.168.315.169.313.171.313.173.311.175.31.176.309.179.308.18.307.182.306.183.304.186.303.187.302.189.301.191.299.193.298.194.298.196.295.198.295.199.293.202.292.202.291.205.289.206.289.208.286.21.286.211.284.213.283.215.282.216.28.218.279.22.278.221.276.223.275.224.274.226.272.228.271.229.269.231.268.232.267.234.265.236.264.237.262.239.261.24.26.242.258.243.256.244.256.247.253.247.252.25.251.25.249.253.248.253.246.256.245.256.243.258.242.26.24.261.239.262.237.264.235.265.234.267.233.268.231.269.229.271.227.272.227.274.224.275.223.276.221.278.22.279.218.28.216.282.214.283.213.284.212.285.21.287.207.289.207.289.204.291.203.292.202.293.199.295.198.295.196.297.194.299.193.299.191.301.189.302.187.303.185.304.184.306.182.307.18.307.179.31.176.31.175.311.173.313.171.313.169.315.168.316.165.317.164.318.162.319.16.321.158.321.156.323.154.323.153.325.15.326.149.327.146.327.145.329.143.33.141.331.139.332.136.333.135.334.133.335.131.336.129.337.127.338.125.338.123.34.121.341.119.342.117.342.115.344.113.345.111.345.108.346.107.348.105.348.102.349.1.35.099.35.096.352.094.352.092.354.09.354.087.355.086.356.083.356.082.358.079.358.077.359.074.36.073.361.07.361.068.362.066.363.064.364.062.365.059.365.057.366.055.367.052.367.051.368.048.369.045.369.044.371.041.37.039.372.037.372.034.373.032.374.03.374.027.375.025.375.022.376.021.377.018.377.015.378.013.379.011.379.009.38.006.38.003.381.001.381-.001.38-.003.38-.006.379-.009.378-.011.378-.013.377-.015.377-.018.376-.021.376-.022.375-.025.374-.027.373-.03.373-.032.372-.034.372-.037.371-.039.37-.041.37-.044.368-.045.369-.048.367-.051.367-.052.366-.055.365-.057.364-.059.364-.062.363-.064.362-.066.362-.068.36-.07.36-.073.359-.074.359-.077.357-.079.357-.082.356-.083.355-.086.354-.087.353-.09.353-.092.351-.094.351-.096.35-.099.349-.1.348-.102.347-.105.347-.107.345-.108.344-.111.344-.113.343-.115.341-.117.341-.119.34-.121.339-.123.338-.125.337-.127.336-.129.335-.131.334-.133.332-.135.332-.136.331-.139.33-.141.329-.143.328-.145.327-.146.325-.149.325-.15.324-.153.322-.154.322-.156.32-.158.319-.16.318-.162.318-.164.315-.165.315-.168.314-.169.312-.171.312-.173.31-.175.309-.176.308-.179.307-.18.305-.182.305-.184.303-.185.302-.187.3-.189.3-.191.298-.193.297-.194.296-.196.294-.198.294-.199.292-.202.291-.203.289-.204.288-.207.287-.207.286-.21.284-.212.283-.213.282-.214.28-.216.279-.218.278-.22.276-.221.275-.223.273-.224.273-.227.27-.227.27-.229.268-.231.266-.233.266-.234.263-.235.263-.237.261-.239.259-.24.258-.242.257-.243.255-.245.254-.246.252-.248.251-.249.249-.251.248-.252.246-.253.245-.256.243-.256.242-.258.24-.26.238-.261.238-.262.235-.264.234-.265.232-.267.231-.268.229-.269.228-.271.226-.272.225-.274.222-.275.222-.276.219-.278.218-.279.216-.28.215-.282.213-.283.211-.284.21-.286.208-.286.206-.289.205-.289.203-.291.201-.292.2-.293.197-.295.196-.295.195-.298.192-.298.191-.299.189-.301.188-.302.185-.303.184-.304.182-.306.18-.307.178-.308.177-.309.175-.31.173-.311.171-.313.169-.313.167-.315.166-.316.164-.317.161-.318.16-.32.158-.32.157-.321.154-.323.152-.323.151-.325.148-.326.147-.327.145-.327.142-.329.141-.33.139-.331.137-.332.135-.333.133-.334.131-.335.129-.336.127-.337.125-.338.123-.339.121-.339.119-.341.117-.342.115-.343.113-.343.11-.345.109-.345.107-.346.104-.348.103-.348.1-.349.098-.35.097-.35.094-.352.092-.353.089-.353.088-.354.086-.355.083-.356.081-.357.079-.357.077-.358.075-.359.073-.36.07-.361.068-.361.066-.363.064-.363.061-.363.06-.365.057-.365.054-.366.053-.367.05-.367.048-.368.046-.369.044-.369.041-.371.039-.371.036-.371.035-.372.031-.373.03-.374.027-.374.025-.375.023-.375.02-.376.018-.377.016-.377.013-.378.011-.379.008-.379.006-.38.004-.38.001-.381-.001-.381-.004-.38-.006-.38-.008-.379-.011-.378-.013-.378-.016-.378-.018-.376-.02-.376-.023-.376-.025-.375-.027-.374-.03-.373-.031-.373-.035-.373-.036-.371-.039-.371-.041-.37-.044-.37-.046-.369-.048-.368-.05-.367-.053-.367-.054-.366-.057-.365-.06-.364-.061-.364-.064-.363-.066-.362-.068-.362-.07-.36-.073-.36-.075-.359-.077-.359-.079-.357-.081-.357-.083-.356-.086-.355-.088-.354-.089-.353-.092-.353-.094-.351-.097-.351-.098-.35-.1-.349-.103-.348-.104-.347-.107-.347-.109-.345-.11-.345-.113-.343-.115-.343-.117-.342-.119-.34-.121-.34-.123-.339-.125-.338-.127-.337-.129-.336-.131-.335-.133-.334-.135-.333-.137-.332-.139-.33-.141-.33-.142-.329-.145-.328-.147-.327-.148-.326-.151-.324-.152-.324-.154-.322-.157-.322-.158-.32-.16-.319-.161-.319-.164-.317-.166-.316-.167-.314-.169-.314-.171-.313-.173-.311-.175-.31-.177-.309-.178-.308-.18-.307-.182-.305-.184-.305-.185-.303-.188-.302-.189-.3-.191-.3-.192-.298-.195-.297-.196-.296-.197-.295-.2-.293-.201-.292-.203-.291-.205-.289-.206-.288-.208-.287-.21-.286-.211-.284-.213-.283-.215-.282-.216-.28-.218-.279-.219-.278-.222-.276-.222-.275-.225-.273-.226-.273-.228-.27-.229-.27-.231-.268-.232-.267-.234-.265-.235-.264-.238-.262-.238-.261-.24-.259-.242-.258-.243-.257-.245-.255-.246-.254-.248-.252-.249-.251-.251-.249-.252-.248-.254-.246-.255-.245-.257-.243-.258-.242-.259-.24-.261-.239-.263-.237-.263-.235-.266-.234-.266-.233-.268-.23-.27-.23-.27-.227-.273-.226-.273-.225-.275-.223-.276-.221-.278-.219-.279-.218-.28-.217-.282-.214-.283-.213-.284-.212-.286-.209-.287-.208-.288-.207-.289-.204-.291-.203-.292-.201-.294-.2-.294-.198-.296-.196-.297-.194-.298-.192-.3-.191-.3-.189-.302-.188-.303-.185-.305-.184-.305-.182-.307-.18-.308-.178-.309-.177-.31-.175-.312-.173-.312-.171-.314-.169-.315-.167-.315-.166-.318-.164-.318-.161-.319-.16-.32-.159-.322-.156-.322-.154-.324-.152-.325-.151-.325-.148-.327-.147-.328-.145-.329-.143-.33-.14-.331-.139-.332-.137-.332-.135-.334-.133-.335-.131-.336-.129-.337-.127-.338-.125-.339-.123-.34-.121-.341-.119-.341-.117-.343-.115-.344-.113-.344-.11-.345-.109-.347-.107-.347-.104-.348-.103-.349-.1-.35-.098-.351-.097-.351-.094-.353-.092-.353-.09-.354-.087-.355-.086-.356-.083-.357-.081-.357-.079-.359-.077-.359-.075-.36-.073-.36-.07-.362-.068-.362-.066-.363-.064-.364-.061-.364-.06-.365-.057-.366-.055-.367-.052-.367-.05-.369-.048-.368-.046-.37-.044-.37-.041-.371-.039-.372-.036-.372-.035-.373-.032-.373-.029-.374-.028-.375-.025-.376-.022-.376-.02-.377-.018-.377-.016-.378-.013-.378-.011-.379-.008-.38-.006-.38-.004-.381-.001-.381.001z"/><circle cx="407.937" cy="350.611" r="58.926" fill="#11b100"/><path d="M408.336 288.827l.398.003.398.007.397.009.397.011.396.014.395.016.395.019.394.021.394.024.393.026.392.029.391.031.391.033.391.036.389.039.389.04.388.044.388.045.386.048.386.05.386.053.384.055.384.058.383.06.382.062.382.064.38.067.38.069.379.072.378.074.378.076.376.078.376.081.375.083.374.085.374.087.372.09.371.092.371.094.37.097.369.098.368.101.366.103.367.106.365.107.364.11.363.112.363.114.361.116.36.118.36.121.358.122.358.125.356.127.356.129.354.131.353.133.353.136.351.137.35.14.35.141.348.144.347.145.346.148.345.15.343.152.343.153.342.156.34.158.34.16.338.162.337.163.336.166.335.168.333.17.333.171.331.174.33.176.329.177.328.179.326.182.326.183.324.185.323.187.321.189.321.191.319.192.318.195.316.196.315.199.314.2.313.201.312.204.31.206.308.207.308.209.306.211.305.213.303.214.302.217.301.218.3.22.298.221.296.223.295.225.294.227.293.229.291.23.289.232.289.233.286.236.286.236.284.239.282.24.281.242.279.244.278.245.277.247.275.249.273.25.273.251.27.254.269.255.267.256.266.258.265.26.262.261.262.263.259.264.259.266.256.268.255.269.253.27.252.272.25.274.249.275.246.276.246.278.243.28.242.281.241.282.238.284.237.285.236.287.233.288.232.29.23.291.228.292.227.294.225.296.224.296.221.298.22.299.218.301.216.302.215.304.212.305.211.306.21.307.207.309.206.31.203.312.202.312.2.314.198.316.197.316.194.318.193.319.191.321.189.321.187.323.185.324.183.325.181.327.18.328.177.328.176.331.173.331.172.332.17.334.167.335.166.336.164.337.162.338.16.339.158.341.155.341.154.343.152.344.15.345.147.346.146.347.144.348.141.35.14.35.137.351.135.352.134.354.131.354.129.356.127.356.124.357.123.359.12.359.119.361.116.361.114.362.112.364.11.364.107.365.105.366.103.367.101.368.099.369.096.37.095.37.092.372.089.372.088.373.085.374.083.375.081.376.078.377.076.377.074.379.071.379.07.38.066.38.065.382.062.382.06.383.057.384.055.384.053.385.051.386.048.387.045.387.043.389.041.389.039.389.035.39.034.391.031.392.029.392.026.393.024.394.021.394.019.394.016.396.014.396.011.397.009.397.006.398.004.398.001.399-.001.399-.004.398-.006.398-.009.398-.011.396-.014.396-.016.396-.019.394-.021.395-.024.393-.026.393-.029.392-.031.392-.034.391-.035.39-.039.39-.041.388-.043.389-.045.387-.048.387-.051.386-.053.385-.055.385-.057.383-.06.383-.062.383-.065.381-.066.381-.07.38-.071.379-.074.378-.076.378-.078.376-.081.376-.083.375-.085.374-.088.373-.089.373-.092.371-.095.371-.096.369-.099.369-.101.368-.103.367-.105.366-.107.365-.11.365-.112.363-.114.362-.116.362-.119.36-.12.359-.123.359-.124.357-.127.357-.129.355-.131.354-.134.354-.135.352-.137.352-.14.35-.141.349-.144.348-.146.347-.147.346-.15.345-.152.344-.154.343-.155.341-.158.341-.16.339-.162.338-.164.338-.166.336-.167.334-.17.334-.172.332-.173.332-.176.33-.177.329-.18.328-.181.326-.183.325-.185.324-.187.323-.189.322-.191.32-.193.319-.194.318-.197.317-.198.315-.2.314-.202.313-.204.311-.205.31-.207.309-.21.307-.211.307-.212.304-.215.304-.216.302-.218.301-.22.299-.221.298-.224.297-.225.295-.227.294-.228.292-.23.291-.232.29-.233.288-.236.287-.237.285-.238.284-.241.283-.242.281-.243.279-.245.278-.247.276-.249.276-.25.273-.252.272-.253.271-.255.268-.256.268-.259.266-.259.264-.262.263-.262.261-.265.26-.266.258-.267.257-.269.255-.271.253-.272.252-.273.25-.275.248-.277.247-.278.245-.279.244-.281.242-.282.24-.284.239-.286.237-.286.235-.289.234-.289.231-.291.231-.293.228-.293.227-.296.225-.297.223-.297.222-.3.219-.301.219-.302.216-.303.214-.305.213-.306.211-.308.209-.308.208-.311.205-.311.204-.313.202-.314.2-.315.198-.317.196-.317.195-.319.193-.321.19-.321.189-.323.187-.324.185-.326.184-.326.181-.328.179-.329.178-.33.175-.331.174-.333.172-.333.169-.335.168-.336.166-.337.164-.338.161-.34.16-.34.158-.342.156-.343.154-.343.151-.345.15-.346.148-.347.146-.349.143-.349.142-.35.139-.351.138-.353.135-.353.133-.354.131-.356.129-.356.127-.358.125-.358.122-.36.121-.36.118-.361.117-.363.114-.363.111-.364.11-.365.108-.366.105-.368.103-.367.101-.369.099-.37.096-.371.094-.371.092-.372.09-.374.087-.374.086-.375.083-.376.08-.376.079-.378.076-.378.074-.379.071-.38.069-.38.067-.382.065-.382.062-.383.059-.384.058-.384.055-.386.053-.386.05-.386.048-.388.046-.388.043-.389.041-.39.038-.39.036-.391.034-.391.031-.392.028-.393.026-.394.024-.394.021-.395.019-.395.017-.396.013-.397.012-.397.009-.398.006-.398.004-.399.001-.399-.001-.399-.004-.398-.006-.397-.009-.397-.012-.395-.013-.396-.017-.395-.019-.394-.021-.394-.024-.392-.026-.393-.028-.391-.031-.391-.034-.39-.036-.39-.038-.389-.041-.388-.043-.388-.046-.386-.048-.386-.05-.385-.053-.385-.055-.384-.058-.383-.059-.382-.062-.381-.065-.381-.067-.38-.069-.379-.071-.378-.074-.378-.076-.376-.079-.376-.08-.375-.083-.374-.086-.373-.087-.373-.09-.371-.092-.371-.094-.37-.096-.369-.099-.367-.101-.367-.103-.367-.105-.365-.108-.364-.11-.363-.111-.362-.114-.362-.117-.36-.118-.36-.121-.358-.122-.357-.125-.357-.127-.355-.129-.355-.131-.353-.133-.353-.135-.351-.138-.35-.139-.349-.142-.349-.143-.347-.146-.346-.148-.345-.15-.343-.151-.343-.154-.342-.156-.34-.158-.34-.16-.338-.161-.337-.164-.336-.166-.335-.168-.333-.169-.333-.172-.331-.174-.33-.175-.329-.178-.328-.179-.326-.181-.326-.184-.324-.185-.322-.187-.322-.189-.32-.191-.32-.192-.317-.195-.317-.196-.315-.198-.314-.2-.313-.202-.311-.204-.31-.205-.309-.208-.308-.209-.306-.211-.305-.213-.303-.214-.302-.216-.301-.219-.3-.219-.297-.222-.297-.223-.295-.225-.294-.227-.293-.228-.291-.231-.289-.231-.288-.234-.287-.235-.286-.237-.283-.239-.283-.24-.281-.242-.279-.244-.278-.245-.277-.247-.275-.248-.273-.25-.272-.252-.271-.253-.269-.255-.267-.257-.266-.258-.265-.26-.262-.261-.262-.263-.259-.264-.258-.266-.257-.268-.255-.268-.253-.271-.252-.272-.25-.273-.249-.275-.246-.277-.246-.278-.243-.279-.242-.282-.24-.282-.239-.284-.237-.285-.235-.287-.234-.288-.232-.29-.23-.291-.228-.292-.227-.294-.225-.295-.223-.297-.222-.298-.22-.299-.218-.301-.216-.302-.215-.304-.212-.304-.211-.307-.209-.307-.208-.309-.205-.31-.204-.311-.202-.313-.2-.314-.198-.315-.197-.317-.194-.318-.193-.319-.191-.32-.188-.322-.188-.323-.185-.324-.183-.325-.181-.327-.18-.327-.177-.329-.176-.33-.173-.331-.172-.333-.17-.334-.167-.335-.166-.336-.164-.336-.162-.339-.16-.339-.157-.341-.156-.341-.154-.343-.152-.344-.149-.345-.148-.346-.146-.347-.143-.348-.142-.349-.14-.351-.137-.351-.135-.352-.133-.354-.131-.354-.13-.355-.126-.357-.125-.357-.123-.359-.12-.359-.119-.36-.116-.362-.114-.362-.112-.363-.109-.364-.108-.366-.105-.366-.103-.367-.101-.368-.099-.369-.096-.369-.095-.371-.092-.371-.089-.373-.088-.373-.085-.374-.083-.375-.081-.376-.078-.377-.076-.377-.074-.378-.071-.379-.069-.38-.067-.381-.065-.381-.062-.383-.06-.383-.057-.383-.055-.385-.053-.385-.05-.386-.048-.387-.046-.387-.043-.388-.041-.389-.038-.39-.036-.39-.034-.391-.031-.391-.029-.393-.026-.393-.023-.393-.022-.395-.019-.394-.016-.396-.014-.396-.011-.397-.009-.397-.006-.397-.004-.399-.001-.399.001-.399.004-.398.006-.398.009-.397.011-.397.014-.396.016-.395.019-.395.022-.394.023-.394.026-.393.029-.392.031-.392.034-.391.036-.39.038-.389.041-.389.043-.388.046-.388.048-.387.05-.386.053-.385.055-.384.057-.384.06-.383.062-.382.065-.382.067-.38.069-.38.071-.38.074-.378.076-.377.078-.377.081-.376.083-.374.085-.375.088-.373.089-.372.092-.372.095-.37.096-.37.099-.369.101-.368.103-.367.105-.366.108-.365.109-.364.112-.363.114-.363.116-.361.119-.361.12-.359.123-.358.125-.358.126-.356.129-.356.132-.354.133-.354.135-.352.137-.351.14-.351.142-.349.143-.348.146-.347.148-.346.149-.345.152-.344.154-.343.156-.341.157-.341.16-.339.162-.338.164-.337.166-.336.167-.335.17-.334.172-.332.173-.331.176-.331.177-.328.18-.328.181-.327.183-.325.186-.324.187-.323.188-.321.191-.321.193-.319.194-.318.197-.316.198-.316.2-.314.202-.312.204-.312.205-.31.208-.309.209-.307.211-.306.212-.305.215-.304.216-.302.218-.3.22-.3.222-.298.223-.297.225-.295.227-.294.228-.292.23-.291.232-.29.234-.288.235-.287.237-.285.239-.284.24-.282.242-.281.243-.28.246-.278.246-.276.249-.275.25-.274.252-.272.253-.27.255-.269.257-.268.258-.266.259-.264.262-.263.262-.261.265-.26.266-.258.267-.256.269-.255.271-.254.272-.251.273-.25.275-.249.277-.247.278-.245.279-.244.281-.242.283-.24.283-.238.286-.237.286-.236.289-.233.289-.232.291-.23.293-.229.294-.227.295-.225.297-.223.298-.221.299-.22.301-.218.302-.217.303-.214.305-.213.306-.211.308-.209.308-.207.311-.206.311-.204.313-.201.314-.2.315-.199.317-.196.318-.195.319-.192.32-.191.322-.189.322-.187.324-.185.326-.183.326-.182.328-.179.329-.177.33-.176.331-.174.333-.171.333-.17.335-.168.336-.166.337-.163.338-.162.34-.16.34-.158.342-.156.343-.153.344-.152.344-.15.346-.148.347-.145.349-.144.349-.141.35-.14.351-.137.353-.136.353-.133.355-.131.355-.129.356-.127.358-.125.358-.122.36-.121.36-.118.361-.116.363-.114.363-.112.364-.11.366-.107.366-.106.366-.103.368-.101.369-.098.37-.097.371-.094.371-.092.373-.09.373-.087.374-.085.375-.083.376-.081.376-.078.378-.076.378-.074.379-.072.38-.069.381-.067.381-.064.382-.062.383-.06.384-.058.384-.055.386-.053.386-.05.387-.048.387-.045.388-.044.389-.04.39-.039.39-.036.391-.033.391-.031.393-.029.393-.026.393-.024.394-.021.395-.019.395-.016.396-.014.397-.011.397-.009.398-.007.399-.003.399-.002.399.002zm-.78 2.859l-.381.004-.379.006-.379.008-.379.011-.378.013-.377.016-.377.018-.376.02-.375.022-.375.025-.374.028-.374.029-.373.032-.372.035-.372.036-.371.039-.37.041-.369.044-.369.046-.368.048-.368.05-.366.052-.366.055-.366.057-.364.06-.364.061-.363.064-.362.066-.361.068-.361.07-.36.073-.359.075-.358.077-.358.079-.356.081-.356.083-.355.086-.354.087-.354.09-.352.092-.352.094-.351.097-.35.098-.349.1-.348.103-.347.104-.346.107-.346.109-.344.11-.344.113-.342.115-.342.117-.341.119-.34.121-.339.123-.337.125-.337.127-.336.129-.335.131-.334.133-.333.135-.332.137-.331.139-.33.14-.329.143-.328.145-.326.147-.326.148-.325.151-.323.152-.323.154-.321.156-.321.159-.319.16-.318.161-.317.164-.316.166-.315.167-.314.169-.312.171-.311.173-.311.175-.309.177-.308.178-.306.18-.306.182-.304.184-.303.185-.302.188-.301.189-.299.191-.299.192-.297.194-.296.196-.294.198-.293.2-.292.201-.291.203-.29.204-.288.207-.287.208-.285.209-.285.212-.283.213-.281.214-.281.217-.279.218-.277.219-.277.221-.274.223-.274.225-.272.226-.271.227-.269.23-.268.23-.267.233-.265.234-.264.235-.263.237-.26.239-.26.24-.258.242-.257.243-.255.245-.254.246-.252.248-.25.249-.25.251-.247.252-.247.254-.244.255-.244.257-.241.258-.241.259-.238.261-.237.262-.236.264-.234.265-.232.267-.231.268-.229.27-.228.27-.226.273-.224.273-.223.275-.221.276-.22.278-.218.279-.216.28-.215.282-.213.283-.211.284-.21.286-.208.287-.206.288-.205.289-.203.291-.201.292-.199.293-.198.295-.196.296-.194.297-.193.298-.191.3-.189.3-.187.302-.186.303-.183.305-.182.305-.181.307-.178.308-.177.309-.174.31-.173.311-.171.313-.17.314-.167.314-.166.316-.163.317-.162.319-.16.319-.158.32-.156.322-.155.322-.152.324-.15.324-.149.326-.147.327-.144.328-.143.329-.141.33-.139.33-.137.332-.135.333-.133.334-.131.335-.129.336-.127.337-.125.338-.123.339-.121.34-.119.34-.117.342-.114.343-.113.343-.111.345-.109.345-.106.347-.105.347-.102.348-.101.349-.098.35-.096.351-.094.351-.092.353-.09.353-.088.354-.085.355-.084.356-.081.357-.079.357-.077.359-.075.359-.072.36-.071.36-.068.362-.066.362-.063.363-.062.364-.059.364-.057.365-.055.366-.053.367-.05.367-.048.368-.046.369-.043.37-.041.37-.039.371-.037.371-.034.373-.032.373-.03.373-.027.374-.025.375-.023.376-.02.376-.018.376-.016.378-.013.378-.011.378-.008.379-.006.38-.004.38-.001.381.001.381.004.38.006.38.008.379.011.379.013.378.016.377.018.377.02.376.023.375.025.375.027.374.03.374.032.373.034.372.037.371.039.371.041.371.043.369.046.369.048.368.05.367.053.367.055.366.057.365.059.365.062.363.063.363.066.363.068.361.071.361.072.36.075.359.077.358.079.357.081.357.084.356.085.355.088.354.09.353.092.353.094.352.096.35.098.35.101.349.102.348.105.348.106.346.109.345.111.345.113.343.114.343.117.342.119.341.121.339.123.339.125.338.127.337.129.336.131.335.133.334.135.333.137.332.139.331.141.33.143.329.144.327.147.327.149.326.15.325.152.323.155.323.156.321.158.32.16.32.162.318.163.317.166.316.167.315.17.313.171.313.173.311.174.31.177.309.178.308.181.307.182.306.183.304.186.303.187.302.189.301.191.299.193.298.194.298.196.295.198.295.199.293.201.292.203.291.205.289.206.289.208.286.21.286.211.284.213.283.215.282.216.28.218.279.22.278.221.276.223.275.224.274.226.272.228.271.229.269.231.268.232.267.234.265.236.264.237.262.238.261.241.26.241.258.244.256.244.256.247.253.247.252.25.251.25.249.252.248.254.246.255.245.257.243.258.242.26.24.26.239.263.237.264.235.265.234.267.233.268.231.269.229.271.227.272.227.274.224.274.223.277.221.277.22.279.218.281.216.281.214.283.213.285.212.285.21.287.207.288.207.29.204.291.203.292.202.293.199.294.198.296.196.297.194.299.193.299.191.301.189.302.187.303.185.304.184.306.182.306.18.308.179.309.176.311.175.311.173.312.171.314.169.315.168.316.165.317.164.318.162.319.16.321.158.321.156.323.154.323.153.325.15.326.149.326.146.328.145.329.143.33.141.331.139.332.136.333.135.334.133.335.131.336.129.337.127.337.125.339.123.34.121.341.119.342.117.342.115.344.113.344.111.346.108.346.107.347.105.348.102.349.1.35.099.351.096.352.094.352.092.354.09.354.087.355.086.356.083.356.082.358.079.358.077.359.074.36.073.361.07.361.068.362.066.363.064.364.062.364.059.366.057.366.055.366.052.368.051.368.048.369.045.369.044.37.041.371.039.372.037.372.034.373.032.374.03.374.027.375.025.375.022.376.021.377.018.377.015.378.013.379.011.379.009.379.006.381.003.381.001.38-.001.381-.003.379-.006.379-.009.379-.011.378-.013.377-.015.377-.018.376-.021.376-.022.374-.025.375-.027.373-.03.373-.032.372-.034.372-.037.371-.039.37-.041.369-.044.369-.045.368-.048.368-.051.366-.052.366-.055.366-.057.364-.059.364-.062.363-.064.362-.066.361-.068.361-.07.36-.073.359-.074.358-.077.358-.079.357-.082.355-.083.355-.086.355-.087.353-.09.352-.092.352-.094.351-.096.35-.099.349-.1.348-.102.347-.105.346-.107.346-.108.344-.111.344-.113.343-.115.341-.117.341-.119.34-.121.339-.123.338-.125.337-.127.335-.129.335-.131.334-.133.333-.135.332-.136.331-.139.33-.141.329-.143.328-.145.327-.146.325-.149.325-.15.324-.153.322-.154.322-.156.32-.158.319-.16.318-.162.317-.164.316-.165.315-.168.314-.169.312-.171.312-.173.31-.175.309-.176.308-.179.306-.18.306-.182.304-.184.303-.185.302-.187.301-.189.3-.191.298-.193.297-.194.296-.196.294-.198.294-.199.292-.202.29-.203.29-.204.288-.207.287-.207.285-.21.285-.212.283-.213.281-.214.281-.216.279-.218.277-.22.277-.221.275-.223.273-.224.272-.227.271-.227.27-.229.268-.231.266-.233.265-.234.264-.235.263-.237.261-.239.259-.24.258-.242.257-.243.255-.245.254-.246.252-.248.251-.249.249-.251.248-.252.246-.253.245-.256.243-.256.242-.258.24-.26.238-.261.237-.262.236-.264.234-.265.232-.267.231-.268.229-.269.228-.271.226-.272.224-.274.223-.275.221-.276.22-.278.218-.279.216-.28.215-.282.213-.283.211-.284.21-.286.208-.286.206-.289.205-.289.203-.291.201-.292.199-.293.198-.295.196-.295.195-.298.192-.298.191-.299.189-.301.187-.302.186-.303.184-.304.182-.306.18-.307.178-.308.177-.309.174-.31.173-.311.171-.313.17-.313.167-.315.166-.316.163-.317.162-.318.16-.32.158-.32.156-.321.155-.323.152-.323.151-.325.148-.326.147-.327.145-.327.142-.329.141-.33.139-.331.137-.332.135-.333.133-.334.131-.335.129-.336.127-.337.125-.338.123-.339.121-.339.119-.341.117-.342.115-.343.112-.343.111-.345.109-.345.106-.346.105-.348.103-.348.1-.349.098-.35.096-.35.094-.352.092-.353.09-.353.088-.354.085-.355.084-.356.081-.357.079-.357.077-.358.075-.359.072-.36.071-.361.068-.361.066-.363.064-.363.061-.363.059-.365.057-.365.055-.366.053-.367.05-.367.048-.368.046-.369.043-.369.042-.371.038-.371.037-.371.034-.372.032-.373.03-.374.027-.374.025-.375.023-.375.02-.376.018-.377.016-.377.013-.378.011-.379.008-.379.006-.38.004-.38.001-.381-.001-.381-.004-.38-.006-.38-.008-.379-.011-.378-.013-.378-.016-.378-.018-.376-.02-.376-.023-.376-.025-.375-.027-.374-.03-.373-.032-.373-.034-.373-.037-.371-.038-.371-.042-.37-.043-.37-.046-.369-.048-.368-.05-.367-.053-.367-.055-.366-.057-.365-.059-.364-.061-.364-.064-.363-.066-.362-.068-.362-.071-.36-.072-.36-.075-.359-.077-.359-.079-.357-.081-.357-.084-.356-.085-.355-.088-.354-.09-.353-.092-.353-.094-.351-.096-.351-.098-.35-.1-.349-.103-.348-.105-.347-.106-.347-.109-.345-.111-.345-.112-.343-.115-.343-.117-.342-.119-.34-.121-.34-.123-.339-.125-.338-.127-.337-.129-.336-.131-.335-.133-.334-.135-.333-.137-.332-.139-.33-.141-.33-.142-.329-.145-.328-.147-.327-.148-.326-.151-.324-.152-.324-.155-.322-.156-.322-.158-.32-.16-.319-.162-.319-.163-.317-.166-.316-.167-.314-.17-.314-.171-.313-.173-.311-.174-.31-.177-.309-.178-.308-.18-.307-.182-.305-.184-.305-.186-.303-.187-.302-.189-.3-.191-.3-.192-.298-.195-.297-.196-.296-.198-.295-.199-.293-.201-.292-.203-.291-.205-.289-.206-.288-.208-.287-.21-.286-.211-.284-.213-.283-.215-.282-.216-.28-.218-.279-.22-.278-.221-.276-.223-.275-.224-.273-.226-.273-.228-.27-.229-.27-.231-.268-.232-.267-.234-.265-.236-.264-.237-.262-.238-.261-.24-.259-.242-.258-.243-.257-.245-.255-.246-.254-.248-.252-.249-.251-.251-.249-.252-.248-.254-.246-.255-.245-.257-.243-.258-.242-.259-.24-.261-.239-.263-.237-.264-.235-.265-.234-.266-.233-.268-.23-.27-.23-.271-.227-.272-.226-.273-.225-.275-.223-.277-.221-.277-.219-.279-.218-.281-.217-.281-.214-.283-.213-.285-.212-.285-.209-.287-.208-.288-.207-.29-.204-.29-.203-.292-.201-.294-.2-.294-.198-.296-.196-.297-.194-.298-.192-.3-.191-.301-.189-.302-.188-.303-.185-.304-.184-.306-.182-.306-.18-.308-.178-.309-.177-.31-.175-.312-.173-.312-.171-.314-.169-.315-.167-.316-.166-.317-.164-.318-.161-.319-.16-.32-.159-.322-.156-.322-.154-.324-.152-.325-.151-.325-.148-.327-.147-.328-.145-.329-.143-.33-.14-.331-.139-.332-.137-.333-.135-.334-.133-.335-.131-.335-.129-.337-.127-.338-.125-.339-.123-.34-.121-.341-.119-.341-.117-.343-.115-.344-.113-.344-.11-.346-.109-.346-.107-.347-.104-.348-.103-.349-.1-.35-.098-.351-.097-.352-.094-.352-.092-.353-.09-.355-.087-.355-.086-.355-.083-.357-.081-.358-.079-.358-.077-.359-.075-.36-.073-.361-.07-.361-.068-.362-.066-.363-.064-.364-.061-.364-.06-.366-.057-.366-.055-.366-.052-.368-.05-.368-.048-.369-.046-.369-.044-.37-.041-.371-.039-.372-.036-.372-.035-.373-.032-.373-.029-.375-.028-.374-.025-.376-.022-.376-.02-.377-.018-.377-.016-.378-.013-.379-.011-.379-.008-.379-.006-.381-.004-.38-.001-.381.001zM48.498 335.432s-11-60 8-106.5c0 0 48.5 30 118.5 59.5 0 0-59 29-24 108.5 0 0-56-18.5-102.5-61.5"/><path d="M572.831 334.432s11-60-8-106.5c0 0-48.5 30-118.5 59.5 0 0 59 29 24 108.5 0 0 56-18.5 102.5-61.5"/></svg>